<svg width="40" height="40" viewBox="0 0 40 40" fill="none" xmlns="http://www.w3.org/2000/svg">
<path fill-rule="evenodd" clip-rule="evenodd" d="M19.8 8.79961C19.4136 8.79961 19.043 8.94972 18.7698 9.21693C18.4966 9.48414 18.3431 9.84656 18.3431 10.2244L18.3431 26.7327L12.0902 20.6144C11.9547 20.4819 11.7939 20.3768 11.6169 20.3051C11.44 20.2334 11.2503 20.1965 11.0587 20.1965C10.8672 20.1965 10.6775 20.2334 10.5005 20.3051C10.3235 20.3768 10.1627 20.4819 10.0272 20.6144C9.89179 20.7469 9.78435 20.9041 9.71104 21.0772C9.63773 21.2503 9.6 21.4358 9.6 21.6232C9.6 21.8105 9.63773 21.996 9.71104 22.1691C9.78435 22.3422 9.89179 22.4995 10.0272 22.632L18.7685 31.181C18.9039 31.3137 19.0646 31.419 19.2416 31.4908C19.4186 31.5626 19.6084 31.5996 19.8 31.5996C19.9916 31.5996 20.1814 31.5626 20.3584 31.4908C20.5354 31.419 20.6961 31.3137 20.8315 31.181L29.5728 22.632C29.8463 22.3644 30 22.0015 30 21.6232C30 21.2448 29.8463 20.8819 29.5728 20.6144C29.2992 20.3468 28.9282 20.1965 28.5413 20.1965C28.1544 20.1965 27.7834 20.3468 27.5098 20.6144L21.2569 26.7327L21.2569 10.2245C21.2569 9.84656 21.1034 9.48414 20.8302 9.21693C20.557 8.94972 20.1864 8.79961 19.8 8.79961Z" fill="white"/>
</svg>
