<?xml version="1.0" encoding="utf-8"?>
<!-- Generator: Adobe Illustrator 25.3.1, SVG Export Plug-In . SVG Version: 6.00 Build 0)  -->
<svg version="1.1" id="圖層_1" xmlns="http://www.w3.org/2000/svg" xmlns:xlink="http://www.w3.org/1999/xlink" x="0px" y="0px"
	 viewBox="0 0 133 35" style="enable-background:new 0 0 133 35;" xml:space="preserve">
<path d="M31.2,12.9c-1.2,0-2.2,1-2.2,2.2s1,2.2,2.2,2.2c1.2,0,2.2-1,2.2-2.2C33.3,13.8,32.4,12.9,31.2,12.9z"/>
<path d="M39.4,16.9c-0.3-0.6-0.7-1.7-0.7-2.3v-2.3c0-4.3-3.4-7.7-7.7-7.7h-5.4V2.3c0-1.2-1-2.3-2.3-2.3H10.8c-4,0-7.3,3.3-7.3,7.4
	v2.3c0,0.7-0.3,1.9-0.7,2.5l-2.5,4.1c-0.3,0.6-0.4,1.2-0.1,1.7c0.3,0.5,0.8,0.8,1.5,0.8h1.1c0.5,0,0.8,0.3,0.8,0.8v2.2
	c0,4.1,3.3,7.4,7.3,7.4h5v2.6c0,1.5,1.2,2.6,2.6,2.6h12.6c4.3,0,7.7-3.5,7.7-7.7v-2.2c0-0.3,0.2-0.5,0.5-0.5h1.1
	c0.8,0,1.4-0.3,1.8-1c0.3-0.6,0.3-1.4-0.1-2.1L39.4,16.9z M10.7,12.3c-1.2,0-2.2-1-2.2-2.2c0-1.2,1-2.2,2.2-2.2c1.2,0,2.2,1,2.2,2.2
	C12.9,11.3,12,12.3,10.7,12.3z M39.2,21.7c-1.4,0-2.6,1.2-2.6,2.6v2.2c0,3-2.5,5.5-5.5,5.5H18.5c-0.3,0-0.5-0.2-0.5-0.5V29h5.4
	c1.2,0,2.3-1,2.3-2.3V6.8h5.4c3,0,5.5,2.5,5.5,5.5v2.3c0,1,0.4,2.6,1,3.5l2.3,3.7H39.2z"/>
<path d="M89,27h-1.7V23c0-0.3-0.1-0.5-0.4-0.6c-0.2-0.1-0.5,0-0.6,0.2l-4.6,5.8c-0.1,0.2-0.1,0.4-0.1,0.6c0.1,0.2,0.3,0.3,0.5,0.3
	h1.7v4.1c0,0.3,0.1,0.5,0.4,0.6c0.1,0,0.1,0,0.2,0.1c0.2,0,0.3-0.1,0.5-0.2l4.6-5.8c0.1-0.2,0.1-0.4,0.1-0.6
	C89.4,27.2,89.2,27,89,27z"/>
<path d="M82.6,23.9c-0.1-0.2-0.3-0.3-0.5-0.3h-1.7v-4.1c0-0.3-0.1-0.5-0.4-0.6c-0.2-0.1-0.5,0-0.6,0.2l-4.6,5.8
	c-0.1,0.1-0.1,0.4-0.1,0.6c0.1,0.2,0.3,0.3,0.5,0.3h1.7v4.1c0,0.3,0.1,0.5,0.4,0.6c0.1,0,0.1,0,0.2,0.1c0.2,0,0.3-0.1,0.5-0.2
	l4.6-5.8C82.7,24.3,82.7,24.1,82.6,23.9z"/>
<path d="M50.4,4.6h-4v12.3h4c4.1,0,5.2-2.6,5.2-6.2C55.6,7.3,54.5,4.6,50.4,4.6z M50.4,14.5H49V7h1.4c1.9,0,2.5,1.4,2.5,3.7
	C52.9,13.1,52.3,14.5,50.4,14.5z"/>
<path d="M60.4,8.4c-3,0-3.8,1.8-3.8,4.4c0,2.6,0.8,4.4,3.8,4.4c3,0,3.8-1.8,3.8-4.4C64.2,10.2,63.5,8.4,60.4,8.4z M60.4,15
	c-0.9,0-1.2-0.6-1.2-2.2c0-1.7,0.3-2.2,1.2-2.2s1.2,0.6,1.2,2.2C61.6,14.5,61.3,15,60.4,15z"/>
<path d="M70.3,14.5c-0.3,0.1-0.8,0.4-1.4,0.4c-0.7,0-0.9-0.4-0.9-1V8.6h-2.6v5.7c0,1.6,0.6,2.8,2.9,2.8c0.9,0,1.9-0.3,2.8-0.8
	l0.3,0.6h1.6V8.6h-2.6L70.3,14.5L70.3,14.5z"/>
<path d="M76.4,16.3c0.5,0.5,1.3,0.9,2.6,0.9c2.1,0,3.2-1.3,3.2-4.4c0-3-1-4.4-3.2-4.4c-0.9,0-1.6,0.2-2.1,0.6V4.6h-2.6v12.3h1.6
	L76.4,16.3z M77,10.9c0,0,0.5-0.3,1.2-0.3c1.2,0,1.4,0.8,1.4,2.2S79.3,15,78.2,15c-0.7,0-1.2-0.3-1.2-0.3V10.9z"/>
<path d="M85.9,17c0.4,0,0.8-0.1,0.8-0.1v-2.1c-0.5,0-0.7-0.2-0.7-0.5V4.6h-2.6v10.2C83.4,16.3,84.5,17,85.9,17z"/>
<path d="M91.3,8.4c-2.5,0-3.8,1.4-3.8,4.4c0,3,1.3,4.4,4,4.4c1,0,2.1-0.2,3.1-0.6v-2.1c-0.6,0.3-1.5,0.6-2.7,0.6
	c-1.3,0-1.9-0.3-1.8-1.4h4.7C95,11.1,94.8,8.4,91.3,8.4z M92.4,12H90c0-1,0.4-1.7,1.3-1.7C92.4,10.4,92.5,11.1,92.4,12z"/>
<path d="M99.4,6.4l-2.6,0.7v1.7l-1.3,0.3v1.7h1.3v3.3c0,1.9,0.9,2.9,3.2,2.9c0.3,0,1-0.1,1.3-0.1v-2.1c-0.1,0-0.5,0.1-0.8,0.1
	c-0.8,0-1.1-0.3-1.1-1v-3.1h2V8.6h-2L99.4,6.4L99.4,6.4z"/>
<path d="M107.2,8.4c-0.9,0-1.6,0.2-2.1,0.6V4.6h-2.6v12.3h2.6V11c0.3-0.1,0.8-0.4,1.4-0.4c0.7,0,0.9,0.4,0.9,1v5.3h2.6v-5.7
	C110.1,9.6,109.5,8.4,107.2,8.4z"/>
<path d="M112.8,7.9c0.9,0,1.6-0.7,1.6-1.6s-0.7-1.6-1.6-1.6c-0.9,0-1.6,0.7-1.6,1.6C111.3,7.2,111.9,7.9,112.8,7.9z"/>
<path d="M114.1,14.3V8.6h-2.6v6c0,1.6,1.1,2.3,2.5,2.3c0.4,0,0.8-0.1,0.8-0.1v-2.1C114.3,14.8,114.1,14.7,114.1,14.3z"/>
<path d="M120.6,8.4c-0.9,0-1.9,0.3-2.8,0.8l-0.3-0.6h-1.6v8.2h2.6V11c0.3-0.1,0.8-0.4,1.4-0.4c0.7,0,0.9,0.4,0.9,1v5.3h2.6v-5.7
	C123.5,9.6,122.9,8.4,120.6,8.4z"/>
<path d="M129.6,12l3.2-3.4h-3.3l-2.1,2.6V4.6h-2.5v12.3h2.5v-2.6l0.5-0.6l1.9,3.1h3.2L129.6,12z"/>
<path d="M49,18.3h-2.6v12.3H54v-2.4H49V18.3z"/>
<path d="M59.3,22.1c-1.2,0-2.4,0.3-3,0.6v2.2c0.7-0.3,1.9-0.6,3-0.6c0.7,0,1,0.2,1,0.6v0.6l-1.5,0.1c-1.4,0.1-3.1,0.5-3.1,2.7
	c0,1.2,0.7,2.6,2.7,2.6c1,0,1.8-0.3,2.4-0.8l0.3,0.6h1.6v-5.3C62.8,23.4,62.3,22.1,59.3,22.1z M60.3,28.6C60,28.9,59.6,29,59.1,29
	c-0.5,0-1-0.3-1-1c0-0.6,0.3-1,1-1.1l1.1-0.1V28.6z"/>
<path d="M68.9,22.1c-0.9,0-1.6,0.2-2.1,0.6v-4.4h-2.6v12.3h1.6l0.4-0.7c0.5,0.5,1.3,0.9,2.6,0.9c2.1,0,3.2-1.3,3.2-4.4
	C72,23.4,71,22.1,68.9,22.1z M68,28.7c-0.6,0-1.2-0.3-1.2-0.3v-3.7c0,0,0.5-0.3,1.2-0.3c1.2,0,1.4,0.8,1.4,2.2
	C69.4,27.9,69.2,28.7,68,28.7z"/>
</svg>
