<svg width="119" height="35" viewBox="0 0 119 35" fill="none" xmlns="http://www.w3.org/2000/svg">
<g clip-path="url(#clip0)">
<path d="M115.46 29.0352H42.1695C42.1372 29.0421 42.1037 29.0416 42.0715 29.0338C42.0394 29.0261 42.0093 29.0112 41.9836 28.9903C41.9579 28.9693 41.9372 28.9429 41.923 28.9129C41.9088 28.8829 41.9014 28.8501 41.9014 28.8169C41.9014 28.7837 41.9088 28.7508 41.923 28.7209C41.9372 28.6909 41.9579 28.6644 41.9836 28.6435C42.0093 28.6226 42.0394 28.6077 42.0715 28.5999C42.1037 28.5922 42.1372 28.5917 42.1695 28.5986H115.46C115.493 28.5917 115.526 28.5922 115.558 28.5999C115.59 28.6077 115.62 28.6226 115.646 28.6435C115.672 28.6644 115.692 28.6909 115.707 28.7209C115.721 28.7508 115.728 28.7837 115.728 28.8169C115.728 28.8501 115.721 28.8829 115.707 28.9129C115.692 28.9429 115.672 28.9693 115.646 28.9903C115.62 29.0112 115.59 29.0261 115.558 29.0338C115.526 29.0416 115.493 29.0421 115.46 29.0352Z" fill="black"/>
<path d="M115.46 35H42.1695C42.1372 35.0069 42.1037 35.0065 42.0715 34.9987C42.0394 34.9909 42.0093 34.976 41.9836 34.9551C41.9579 34.9342 41.9372 34.9078 41.923 34.8778C41.9088 34.8478 41.9014 34.815 41.9014 34.7817C41.9014 34.7485 41.9088 34.7157 41.923 34.6857C41.9372 34.6557 41.9579 34.6293 41.9836 34.6084C42.0093 34.5874 42.0394 34.5726 42.0715 34.5648C42.1037 34.557 42.1372 34.5566 42.1695 34.5634H115.46C115.493 34.5566 115.526 34.557 115.558 34.5648C115.59 34.5726 115.62 34.5874 115.646 34.6084C115.672 34.6293 115.692 34.6557 115.707 34.6857C115.721 34.7157 115.728 34.7485 115.728 34.7817C115.728 34.815 115.721 34.8478 115.707 34.8778C115.692 34.9078 115.672 34.9342 115.646 34.9551C115.62 34.976 115.59 34.9909 115.558 34.9987C115.526 35.0065 115.493 35.0069 115.46 35Z" fill="black"/>
<path d="M13.8894 7.33428L13.6847 7.69324L20.5037 11.7311L20.72 11.3799L13.8894 7.33428ZM14.3548 6.51157L14.1617 6.88024L21.114 10.7454L21.3341 10.3923L14.3548 6.51157ZM14.741 5.80722L14.5576 6.17783L21.645 9.88584L21.8652 9.53075L14.741 5.80722ZM15.1968 5.03109L15.0037 5.40363L22.1124 9.1194L22.3325 8.76626L15.1968 5.03109ZM15.6815 4.18121L15.4884 4.55376L22.6338 8.27535L22.852 7.9222L15.6815 4.18121ZM16.1836 3.28477L16.0021 3.65926L23.217 7.34592L23.4372 6.9889L16.1836 3.28477Z" fill="black"/>
<path d="M11.651 10.8619L11.7225 11.5682L16.6895 2.81339L16.3361 2.60577L11.651 10.8619ZM11.4772 9.11564L11.5467 9.81998L16.0792 1.83157L15.7239 1.62201L11.4772 9.11564ZM11.315 7.49739L11.3942 8.20755L15.5231 0.940952L15.1716 0.731394L11.315 7.49739ZM13.3099 -0.000117198L10.977 4.14835L11.0485 4.85851L13.7811 0.00764437L13.3099 -0.000117198ZM14.3972 -0.000117198L11.1759 6.11198L11.2474 6.85125L14.8703 -0.000117198H14.3972Z" fill="black"/>
<path d="M3.57294 3.33725L11.4271 3.35471L11.6608 2.93366L3.57487 2.92007L3.57294 3.33725ZM2.09944 2.11871V2.53588L11.9176 2.47573L12.1513 2.05662L2.09944 2.11871ZM0.440547 1.20286V1.62004L12.4139 1.58705L12.6476 1.16988L0.440547 1.20286ZM0.575731 0.684792L12.9141 0.698375L13.1497 0.28702L0.579593 0.267617L0.575731 0.684792Z" fill="black"/>
<path d="M14.571 -0.000117198L16.8421 3.61475L17.5547 3.97954L15.0634 -0.000117198H14.571ZM15.5037 -0.000117198L18.2653 4.34044L18.9876 4.71105L15.9904 -0.000117198H15.5037ZM16.618 -0.000117198L19.6655 5.05837L20.3588 5.41151L17.097 -0.000117198H16.618ZM17.6396 -0.000117198L21.0887 5.786L21.7782 6.1372L18.1089 -0.000117198H17.6396ZM18.7578 -0.000117198L22.6318 6.57572L23.3115 6.9211L19.2329 -0.000117198H18.7578Z" fill="black"/>
<path d="M22.8153 6.07711L23.0644 6.50205L31.1909 6.60877V6.18965L22.8153 6.07711ZM22.1529 4.95365L22.402 5.3747L31.554 5.51829V5.10111L22.1529 4.95365ZM21.5156 3.87287L21.7628 4.29393L31.9344 4.45692V4.03974L21.5156 3.87287ZM20.8783 2.79404L21.1275 3.21316L31.919 3.39167V2.97643L20.8783 2.79404ZM20.1947 1.62983L20.4438 2.05283L31.2585 2.29925L31.2681 1.88208L20.1947 1.62983Z" fill="black"/>
<path d="M19.2329 -0.000117198L19.7929 0.952594L20.6928 1.64336L21.3939 1.65888L19.2329 -0.000117198ZM19.9957 -0.000117198L22.1567 1.67634L22.8538 1.69187L20.6639 -0.000117198H19.9957ZM21.3881 -0.000117198L23.495 1.70545L24.1748 1.72291L22.0505 -0.000117198H21.3881ZM22.8596 -0.000117198L24.9067 1.7462L25.5672 1.76172L23.5008 0.0154059L22.8596 -0.000117198ZM24.3505 -0.000117198L26.4439 1.77336L27.1005 1.78888L24.9878 -0.000117198H24.3505ZM25.9438 -0.000117198L28.2187 1.81605L28.9004 1.82963L26.6081 -0.000117198H25.9438Z" fill="black"/>
<path d="M27.0118 -0.000117198L26.7163 0.0871986L27.1161 0.405416L28.4872 -0.000117198H27.0118ZM30.3141 -0.000117198L27.6278 0.814829L28.0237 1.12917L31.7509 -0.000117198H30.3141ZM33.5508 -0.000117198L28.5915 1.59097L28.9005 1.83545H29.1631L34.9181 -0.000117198H33.5508Z" fill="black"/>
<path d="M30.1267 21.8676L30.3546 22.3857L35.8353 9.02055L35.4587 8.85756L30.1267 21.8676ZM29.6787 20.5404L29.6671 20.8217L29.8428 21.2215L35.1478 7.97664L34.7616 7.81753L29.6787 20.5404ZM29.7888 17.6532L29.7405 18.893L34.4584 6.86288L34.0721 6.70765L29.7888 17.6532ZM29.9104 14.5486L29.8641 15.7128L33.9196 6.04211L33.5333 5.87912L29.9104 14.5486ZM30.0128 11.8767L29.9626 13.138L33.1587 4.85268L32.7724 4.70133L30.0128 11.8767ZM30.1267 8.77024L30.0746 10.1557L32.3688 3.62832L31.9826 3.48667L30.1267 8.77024Z" fill="black"/>
<path d="M30.5382 1.397L35.8857 9.70169V8.94496L30.9437 1.26894L30.5382 1.397ZM31.5308 1.07878L35.8857 7.93015V7.15402L31.9364 0.944899L31.5308 1.07878ZM32.5099 0.768327L35.8857 5.87533V5.13217L32.9174 0.640264L32.5099 0.768327ZM33.5451 0.438468L35.8857 4.12513V3.35675L33.9545 0.310405L33.5451 0.438468ZM34.9181 -0.00199095L34.5319 0.122191L35.8837 2.25658V1.48044L34.9394 -0.0078125L34.9181 -0.00199095ZM35.4145 -0.00199095L35.8857 0.698475V-5.09266e-05L35.4145 -0.00199095Z" fill="black"/>
<path d="M30.737 21.4331L33.1858 29.8445L33.572 29.7281L30.9784 20.8258L30.737 21.4331ZM31.384 19.8498L34.4546 30.2811L34.8408 30.1589L31.6312 19.2483L31.384 19.8498ZM32.2897 18.0375L35.5496 30.6498L35.8836 30.5625V30.318L32.6856 17.9289L32.2897 18.0375ZM33.3982 17.4554L35.8836 27.4055V25.7232L33.796 17.3603L33.3982 17.4554ZM34.5164 16.8733L35.8836 22.8787V21.0528L34.9181 16.7841L34.5164 16.8733ZM35.5785 16.3261L35.8836 17.7717V16.2563L35.5785 16.3261Z" fill="black"/>
<path d="M32.1796 17.9093L31.9382 18.4914L35.8836 16.4618V15.9961L32.1796 17.9093ZM32.7589 16.4948L32.5156 17.0904L35.8817 15.3306V14.8629L32.7589 16.4948ZM33.3209 15.1229L33.0718 15.7341L35.8836 14.2032V13.7298L33.3209 15.1229ZM33.9621 13.5707L33.713 14.176L35.8817 13.0118V12.5403L33.9621 13.5707ZM34.609 11.9893L34.3657 12.5714L35.8817 11.7797V11.314L34.609 11.9893ZM35.1729 10.6116L34.9238 11.2228L35.8894 10.6951V10.2119L35.1729 10.6116Z" fill="black"/>
<path d="M6.46013 12.5307L5.72821 18.6796L6.19942 18.1557L6.64746 14.3779L6.46013 12.5307ZM5.92712 10.7941L4.44204 20.0942L4.94608 19.5392L6.29791 11.0133L6.28246 10.8562L5.92712 10.7941ZM5.17396 10.3226L3.32581 21.3554L3.64639 21.4097L3.43975 21.2157L3.83757 20.7791L5.57564 10.3944L5.17396 10.3226ZM4.33003 9.75986L2.35635 20.7675L2.75804 20.8412L4.73171 9.82584L4.33003 9.75986ZM3.40499 9.15448L1.58774 20.3154L1.98942 20.3813L3.80667 9.22239L3.40499 9.15448ZM2.43939 8.53357L0.882851 19.8303L1.28647 19.8885L2.85267 8.57625L2.43939 8.53357Z" fill="black"/>
<path d="M0.691662 -0.000116435L0.0254011 0.801247V1.20484L0.143204 1.30962L1.23046 -0.000116435H0.691662Z" fill="black"/>
<path d="M0.0253906 32.1688V32.7354L1.7036 34.7824H2.23467L0.0659455 32.1339L0.0253906 32.1688ZM0.195335 31.4295L3.09212 34.7824H3.63092L0.502394 31.152L0.195335 31.4295ZM0.666546 30.4399L4.54051 34.7824H5.09283L0.96588 30.1586L0.666546 30.4399ZM1.16866 29.3495L5.92711 34.7824H6.47364L1.47378 29.072L1.16866 29.3495ZM1.58 28.455L7.29439 34.732L7.59373 34.4487L1.87547 28.1736L1.58 28.455ZM1.98748 27.5605L7.7347 33.787L8.03211 33.5037L2.28295 27.2733L1.98748 27.5605Z" fill="black"/>
<path d="M19.8162 27.0095L23.4681 33.0828L23.9721 33.1254L20.3743 27.1356L19.8162 27.0095ZM18.4856 26.6951L22.1896 32.9663L22.6879 33.0071L19.0399 26.8154L18.4856 26.6951ZM16.9194 26.3245L20.9228 32.8654L21.4268 32.9081L17.4814 26.4565L16.9194 26.3245ZM15.4749 25.9811L19.7525 32.7723L20.2662 32.8169L16.0465 26.1227L15.4749 25.9811ZM14.1231 25.6609L18.5648 32.6656L19.0708 32.7083L14.6773 25.787L14.1231 25.6609ZM12.5878 25.2981L17.3733 32.5647L17.8947 32.6093L13.171 25.43L12.5878 25.2981ZM11.2224 24.974L16.0098 32.4424L16.5235 32.4871L11.7902 25.1021L11.2224 24.974Z" fill="black"/>
<path d="M24.3988 32.5764L31.4998 34.9766H32.8053L24.9704 32.3299L24.3988 32.5764ZM25.8878 31.9341L34.8697 34.9766H35.8585V34.8737L26.4575 31.6877L25.8878 31.9341ZM27.4578 31.2589L35.8585 34.1888V33.7483L28.0159 31.0086L27.4578 31.2589ZM28.9004 30.636L35.8527 33.0809V32.6365L29.4585 30.3896L28.9004 30.636ZM30.1557 30.0947L35.8585 31.971V31.5363L30.7312 29.8482L30.1557 30.0947ZM31.4631 29.5339L35.8585 31.0629V30.6205L32.0289 29.2894L31.4631 29.5339Z" fill="black"/>
<path d="M15.4303 17.7132L9.13458 24.9177L9.43778 25.1952L15.7335 17.9907L15.4303 17.7132ZM15.1039 16.6033L8.18057 24.3395L8.48184 24.6228L15.4052 16.8866L15.1039 16.6033ZM14.7177 15.3731L7.27098 23.7787L7.57225 24.0601L15.0151 15.6525L14.7177 15.3731ZM14.3565 14.2089L6.32276 23.1927L6.6221 23.4741L14.6597 14.4922L14.3565 14.2089ZM13.9838 12.9943L5.33013 22.6106L5.6314 22.892L14.2773 13.2853L13.9838 12.9943ZM13.5686 11.8747L4.32978 21.9994L4.6349 22.2847L13.8776 12.1657L13.5686 11.8747ZM13.2248 10.5456L3.43564 21.3824L3.73497 21.6637L13.5184 10.8347L13.2248 10.5456Z" fill="black"/>
<path d="M19.7097 11.0037L19.3235 11.1201L21.0925 17.3175L21.4787 17.1992L19.7097 11.0037ZM18.2362 10.1538L17.85 10.2741L19.9956 17.5581L20.3818 17.4398L18.2362 10.1538ZM16.8747 9.33689L16.4885 9.4572L18.9469 17.8143L19.3332 17.6959L16.8747 9.33689ZM13.1147 9.14286L12.7285 9.26898L15.5944 18.5827L15.9806 18.4585L13.1147 9.14286ZM15.3221 8.42105L14.9358 8.55105L17.989 18.0297L18.3753 17.8996L15.3221 8.42105ZM13.8679 7.8273L13.4816 7.95925L16.867 18.3032L17.2533 18.1713L13.8679 7.8273Z" fill="black"/>
<path d="M24.3139 20.6258L11.0794 23.3229L10.6217 23.8371L24.3911 21.0333L24.3139 20.6258ZM23.9006 19.5916L12.2381 21.9918L11.7804 22.5099L23.9817 19.9972L23.9006 19.5916ZM23.5433 18.6079L13.308 20.7675L12.8503 21.2894L23.6244 19.0173L23.5433 18.6079ZM23.2015 17.6804L14.3682 19.5528L13.9105 20.0767L23.2826 18.084L23.2015 17.6804ZM22.8153 16.6869L15.3705 18.4022L14.9051 18.9358L22.908 17.0925L22.8153 16.6869Z" fill="black"/>
<path d="M9.92629 3.2947L9.52074 3.33739L10.4284 13.6329L10.8146 13.2215L9.92629 3.2947ZM6.87501 3.285L6.46946 3.32575L7.72473 16.6288L8.09359 16.2194L6.87501 3.285ZM10.8687 3.285L10.4632 3.32769L11.394 12.5773L11.7629 12.1699L10.8687 3.285ZM8.90662 3.25978L8.50107 3.30247L9.46666 14.702L9.83552 14.2965L8.90662 3.25978ZM7.8715 3.25978L7.46595 3.30441L8.66522 15.5946L9.03215 15.189L7.8715 3.25978ZM5.90362 3.29276L5.49807 3.33545L6.95225 17.5019L7.32304 17.0945L5.90362 3.29276Z" fill="black"/>
<path d="M10.2356 24.2775L9.92659 24.6326L22.7883 27.677L22.8829 27.2715L10.2356 24.2775ZM11.935 23.5693L10.9907 23.7633L24.2232 27.0872L24.3197 26.6797L11.935 23.5693ZM14.152 23.1289L13.198 23.3229L25.7797 26.4527L25.8782 26.0394L14.152 23.1289ZM16.4695 22.6593L15.529 22.8533L25.9304 25.3622L26.0308 24.9567L16.4695 22.6593ZM18.6305 22.2208L17.6127 22.4264L25.4089 24.099L25.4939 23.6916L18.6305 22.2208ZM21.0232 21.7318L19.9784 21.9452L25.0613 22.9794L25.1405 22.572L21.0232 21.7318ZM23.3793 21.2525L22.3306 21.4679L24.6674 21.9394L24.7504 21.5319L23.3793 21.2525Z" fill="black"/>
<path d="M28.5992 6.44186L21.9154 16.9061L22.4831 16.7742L29.0357 6.54275L28.5992 6.44186ZM27.4405 6.39335L21.2433 16.3764L21.3959 16.91L27.7843 6.60873L27.4405 6.39335ZM26.2219 6.39335L20.8745 15.0842L21.027 15.6197L26.5657 6.61649L26.2219 6.39335ZM25.0188 6.33514L20.5095 13.8132L20.664 14.3546L25.3664 6.55245L25.0188 6.33514ZM23.9566 6.31573L20.1367 12.5074L20.2893 13.039L24.3004 6.53887L23.9566 6.31573Z" fill="black"/>
<path d="M22.8307 16.2212L22.5565 16.65L26.1215 26.1072L26.5077 25.9578L22.8307 16.2212ZM23.3444 15.4179L23.0779 15.837L27.0832 25.7211L27.4695 25.5698L23.3444 15.4179ZM23.8717 14.599L23.6052 15.0123L28.0469 25.366L28.4157 25.1894L23.8717 14.599ZM24.4645 13.6696L24.2038 14.079L28.9545 24.945L29.3215 24.7723L24.4645 13.6696ZM25.0111 12.8159L24.7504 13.233L29.7985 24.6267L30.1693 24.4502L25.0111 12.8159ZM25.6252 11.8612L25.3587 12.2629L30.6231 24.2057L30.9958 24.033L25.6252 11.8612Z" fill="black"/>
<path d="M26.4188 10.6175L25.9746 11.3102L25.9167 12.5248L26.2836 13.3592L26.4188 10.6175ZM27.2299 9.34072L26.8108 9.99656L26.7316 14.3818L27.1179 15.2704L27.2299 9.34072ZM28.1047 7.98248L27.6876 8.63444L27.5601 16.2697L27.9464 17.1623L28.1047 7.98248ZM29.8042 6.44184L29.275 20.1407L29.6516 20.9925L30.2136 6.45931L29.8042 6.44184ZM28.8579 6.41274L29.0356 6.53304L28.7748 6.95022L28.4137 18.1751L28.7999 19.0366L29.2055 6.42438L28.8579 6.41274Z" fill="black"/>
<path d="M13.835 34.9203L14.5052 34.9513H23.1086L13.8544 34.5031L13.835 34.9203ZM14.3951 33.7832L26.1638 34.5982L26.1889 34.181L14.4202 33.3661L14.3951 33.7832ZM14.9069 32.7413L25.6848 33.6552L25.7177 33.238L14.9416 32.326L14.9069 32.7413Z" fill="black"/>
<path d="M32.7435 28.5133L23.4448 32.5182L23.6032 32.9062L32.8613 28.9208L32.7435 28.5133ZM32.4345 27.4539L22.879 31.5888L23.0393 31.9768L32.5504 27.8575L32.4345 27.4539ZM32.1873 26.6001L22.3382 30.6613L22.4966 31.0493L32.3032 27.0095L32.1873 26.6001ZM31.8938 25.597L21.8323 29.8424L21.9906 30.2305L32.0116 26.0006L31.8938 25.597ZM31.6234 24.6637L21.334 28.9945L21.4866 29.3826L31.7393 25.0692L31.6234 24.6637ZM31.3434 23.7109L20.801 28.1155L20.9555 28.5036L31.4593 24.099L31.3434 23.7109Z" fill="black"/>
<path d="M8.11116 32.8131L7.11853 34.9475H7.56656L8.63837 32.6482L8.11116 32.8131ZM9.42051 32.4115L8.28497 34.9514H8.73493L9.94579 32.2485L9.42051 32.4115ZM10.6217 32.0545L9.37029 34.9533H9.8164L11.1354 31.8992L10.6217 32.0545ZM11.8712 31.6664L10.4286 34.9514H10.8766L12.3791 31.5131L11.8712 31.6664ZM13.505 34.9456H13.9607L15.5849 31.7071L15.3261 31.3035L13.505 34.9456ZM12.9971 31.3229L11.4309 34.9456H11.8808L13.5108 31.1658L12.9971 31.3229ZM14.291 30.9349L12.4756 34.9533H12.9256L14.8143 30.7777L14.291 30.9349Z" fill="black"/>
<path d="M14.7195 30.4148L7.11837 32.7335L7.43122 33.0731L14.9629 30.7796L14.7195 30.4148ZM14.0822 29.4194L6.24547 31.7866L6.56604 32.1242L14.3256 29.7842L14.0822 29.4194ZM13.4546 28.4492L5.40733 30.8747L5.72018 31.2142L13.6921 28.8063L13.4546 28.4492ZM12.8134 27.4461L4.54023 29.9394L4.85694 30.2809L13.0471 27.805L12.8134 27.4461ZM12.1414 26.3983L3.66926 28.9925L3.98597 29.3379L12.377 26.7572L12.1414 26.3983ZM11.4462 25.3156L2.7867 28.0379L3.09956 28.3774L11.6779 25.661L11.4462 25.3156Z" fill="black"/>
<path d="M0.0253906 25.6648L3.50153 27.8089L4.02682 27.6459L0.0253906 25.1798V25.6648ZM0.0253906 24.4871L4.68922 27.4383L5.20871 27.2753L0.0253906 23.9981V24.4871ZM0.0253906 23.3752L5.88849 27.0619L6.40798 26.8989L0.0253906 22.8863V23.3752ZM0.0253906 22.1606L7.30984 26.6234L7.83126 26.4584L0.0253906 21.6716V22.1606ZM0.0253906 20.975L8.63464 26.1965L9.16185 26.0296L0.0253906 20.4919V20.975ZM0.0253906 19.7254L10.0019 25.7657L10.5253 25.5989L0.0253906 19.2481V19.7254Z" fill="black"/>
<path d="M0.0253906 7.30534L6.32494 11.4325L6.27086 10.9047L0.0253906 6.81055V7.30534ZM0.0253906 6.15278L6.1801 10.0645L6.13182 9.54644L0.0253906 5.66575V6.15278ZM0.0253906 5.01767L6.04491 8.67329L5.98698 8.15522L0.0253906 4.53259V5.01767ZM0.0253906 3.95242L5.90973 7.34997L5.85566 6.8416L0.0253906 3.4751V3.95242ZM0.0253906 2.75523L5.77841 6.08292L5.7282 5.57261L0.0253906 2.27402V2.75523ZM0.0253906 1.64729L5.63743 4.70916L5.58915 4.21049L0.0253906 1.17578V1.64729Z" fill="black"/>
<path d="M0.0253906 31.7266V32.7084L2.54753 27.2172L2.19798 27.0096L0.0253906 31.7266ZM0.0253906 29.4369V30.4071L1.73643 26.7205L1.38495 26.5031L0.0253906 29.4369ZM0.0253906 26.9572V27.9274L0.846147 26.1694L0.492739 25.954L0.0253906 26.9572Z" fill="black"/>
<path d="M31.2527 34.9997H31.525L31.1793 34.8833L31.2527 34.9997ZM30.0071 34.9997H30.4879L30.2176 34.5592L29.6112 34.3536L30.0071 34.9997ZM28.7614 34.9997H29.2442L28.6494 34.0295L28.043 33.8219L28.7614 34.9997ZM27.5853 34.9997H28.0508L27.2783 33.5638L26.7086 33.3698L27.5853 34.9997ZM26.2895 34.9997H26.7549L25.6986 33.0244L25.1308 32.8304L26.2895 34.9997Z" fill="black"/>
<path d="M1.82333 13.2602L2.20957 10.439V8.74117L1.79822 8.4734L1.82333 13.2602ZM1.02575 19.0114L1.37916 16.4735L1.24204 8.1028L0.828766 7.83115L1.02575 19.0114ZM0.0253906 14.8222L0.164436 19.3238L0.579642 19.578L0.204991 7.42174L0.0253906 7.30534V14.8222Z" fill="black"/>
<path d="M0.0253906 34.641V35H0.386523L1.54524 34.8059L1.24204 34.4334L0.0253906 34.641ZM0.0253906 33.7601V34.1889L0.917601 34.0473L0.612472 33.6747L0.0253906 33.7601Z" fill="black"/>
<path d="M102.724 2.26623C102.469 2.26643 102.217 2.31721 101.982 2.41564C101.611 2.56816 101.303 2.84384 101.109 3.19683C100.915 3.54983 100.847 3.95888 100.916 4.35598C101.008 4.85531 101.232 5.32052 101.565 5.70259V12.4123C101.578 12.7192 101.708 13.0094 101.928 13.2221C102.149 13.4349 102.443 13.5537 102.748 13.5537C103.054 13.5537 103.348 13.4349 103.568 13.2221C103.789 13.0094 103.919 12.7192 103.931 12.4123V9.5891L106.003 13.039C106.108 13.2151 106.256 13.361 106.433 13.463C106.611 13.5649 106.811 13.6194 107.015 13.6211C107.122 13.6206 107.227 13.6062 107.33 13.5785C107.579 13.5085 107.798 13.3588 107.955 13.1523C108.112 12.9457 108.198 12.6934 108.199 12.4337V5.18645C108.187 4.87956 108.057 4.58937 107.836 4.37661C107.616 4.16386 107.322 4.04505 107.016 4.04505C106.71 4.04505 106.417 4.16386 106.196 4.37661C105.976 4.58937 105.846 4.87956 105.833 5.18645V8.15712L104.19 5.429C104.846 4.31912 104.576 3.51193 104.223 3.01326C104.049 2.77945 103.822 2.59002 103.562 2.46026C103.302 2.33049 103.015 2.26403 102.724 2.26623ZM102.772 4.4627C102.917 4.18523 102.867 4.07463 102.84 4.02612C102.824 4.01208 102.806 4.0014 102.786 3.99473C102.766 3.98806 102.745 3.98553 102.724 3.98732C102.695 3.98665 102.666 3.99193 102.639 4.00284C102.606 4.01642 102.597 4.0203 102.606 4.0921C102.631 4.22726 102.688 4.3544 102.772 4.4627ZM102.724 2.92207C102.911 2.92025 103.096 2.96249 103.263 3.04539C103.431 3.12828 103.577 3.24953 103.69 3.39939C104.089 3.94851 103.995 4.62375 103.412 5.41153C103.95 6.30603 105.466 8.82267 106.482 10.5127V5.18645C106.482 5.04545 106.538 4.91022 106.637 4.81052C106.736 4.71081 106.871 4.6548 107.011 4.6548C107.152 4.6548 107.286 4.71081 107.385 4.81052C107.485 4.91022 107.54 5.04545 107.54 5.18645V12.4201C107.541 12.5366 107.504 12.6501 107.434 12.7431C107.364 12.8361 107.266 12.9034 107.154 12.9345C107.043 12.9657 106.924 12.959 106.816 12.9154C106.709 12.8719 106.618 12.7939 106.559 12.6937L103.276 7.23352V12.4201C103.276 12.5611 103.221 12.6963 103.121 12.796C103.022 12.8957 102.888 12.9517 102.747 12.9517C102.607 12.9517 102.472 12.8957 102.373 12.796C102.274 12.6963 102.218 12.5611 102.218 12.4201V5.49109C102.176 5.43094 102.129 5.37079 102.083 5.3087C101.818 5.01281 101.637 4.64994 101.562 4.25897C101.513 4.00634 101.554 3.74478 101.677 3.51898C101.799 3.29318 101.996 3.11717 102.234 3.02102C102.389 2.9561 102.556 2.92247 102.724 2.92207Z" fill="black"/>
<path d="M93.2633 13.7298C93.0081 13.7288 92.7554 13.779 92.5198 13.8773C92.1468 14.0307 91.8376 14.3081 91.6436 14.6629C91.4496 15.0178 91.3826 15.4288 91.4537 15.8273C91.5456 16.3267 91.7697 16.7919 92.1026 17.1739V23.8837C92.1026 24.1986 92.2271 24.5007 92.4488 24.7233C92.6704 24.946 92.9711 25.0712 93.2845 25.0712C93.598 25.0712 93.8986 24.946 94.1202 24.7233C94.3419 24.5007 94.4664 24.1986 94.4664 23.8837V21.0527L96.5405 24.4968C96.6744 24.7184 96.8767 24.89 97.1166 24.9855C97.3565 25.0809 97.6209 25.095 97.8695 25.0256C98.1181 24.9562 98.3373 24.807 98.4938 24.6009C98.6502 24.3948 98.7354 24.1429 98.7363 23.8837V16.65C98.7239 16.3432 98.5939 16.053 98.3734 15.8402C98.153 15.6275 97.8591 15.5086 97.5534 15.5086C97.2477 15.5086 96.9539 15.6275 96.7334 15.8402C96.5129 16.053 96.3829 16.3432 96.3706 16.65V19.6207L94.7271 16.8926C95.3837 15.7827 95.1134 14.9755 94.7599 14.4769C94.5862 14.2432 94.3602 14.0538 94.1002 13.9241C93.8403 13.7943 93.5536 13.7278 93.2633 13.7298ZM93.3096 15.9263C93.4545 15.6469 93.4043 15.5382 93.3772 15.4897C93.3615 15.4758 93.3431 15.4651 93.3232 15.4585C93.3033 15.4518 93.2823 15.4492 93.2613 15.4509C93.2329 15.4499 93.2045 15.4552 93.1783 15.4664C93.1435 15.48 93.132 15.4839 93.1435 15.5557C93.1684 15.6909 93.2254 15.818 93.3096 15.9263ZM93.2633 14.3857C93.4502 14.3837 93.6349 14.4259 93.8027 14.5088C93.9704 14.5917 94.1164 14.713 94.2289 14.863C94.6267 15.4102 94.534 16.0873 93.9508 16.8751C94.4896 17.7696 96.0056 20.2863 97.0214 21.9763V16.65C97.0214 16.509 97.0771 16.3738 97.1764 16.2741C97.2756 16.1744 97.4102 16.1184 97.5505 16.1184C97.6909 16.1184 97.8255 16.1744 97.9247 16.2741C98.0239 16.3738 98.0797 16.509 98.0797 16.65V23.8837C98.079 23.9994 98.0408 24.1117 97.9709 24.2036C97.9009 24.2955 97.803 24.362 97.6921 24.393C97.5811 24.4239 97.4631 24.4176 97.356 24.3751C97.2489 24.3326 97.1585 24.2561 97.0986 24.1573L93.8156 18.6971V23.8837C93.8156 24.0247 93.7598 24.1599 93.6606 24.2596C93.5614 24.3593 93.4268 24.4153 93.2864 24.4153C93.1461 24.4153 93.0115 24.3593 92.9123 24.2596C92.8131 24.1599 92.7573 24.0247 92.7573 23.8837V16.9547C92.7148 16.8945 92.6685 16.8344 92.6221 16.7723C92.3567 16.4764 92.1765 16.1135 92.1007 15.7226C92.0522 15.4699 92.0928 15.2082 92.2154 14.9823C92.338 14.7564 92.5351 14.5804 92.7728 14.4846C92.9289 14.4195 93.0962 14.3859 93.2652 14.3857" fill="black"/>
<path d="M55.2147 2.26623C54.9601 2.26613 54.708 2.31691 54.4731 2.41564C54.1017 2.56816 53.7933 2.84384 53.5994 3.19683C53.4055 3.54983 53.3376 3.95888 53.4071 4.35598C53.4989 4.85531 53.7231 5.32052 54.056 5.70259V12.4123C54.056 12.7273 54.1805 13.0293 54.4022 13.252C54.6238 13.4747 54.9244 13.5998 55.2379 13.5998C55.5513 13.5998 55.852 13.4747 56.0736 13.252C56.2953 13.0293 56.4198 12.7273 56.4198 12.4123V9.5891L58.4939 13.039C58.5986 13.2152 58.7468 13.3613 58.924 13.4632C59.1012 13.5652 59.3016 13.6196 59.5058 13.6211C59.6122 13.6213 59.7181 13.6069 59.8206 13.5785C60.0696 13.5085 60.2891 13.3588 60.4459 13.1523C60.6027 12.9457 60.6883 12.6934 60.6896 12.4337V5.18645C60.6773 4.87956 60.5473 4.58937 60.3268 4.37661C60.1063 4.16386 59.8125 4.04505 59.5068 4.04505C59.2011 4.04505 58.9073 4.16386 58.6868 4.37661C58.4663 4.58937 58.3363 4.87956 58.3239 5.18645V8.15907L56.6805 5.429C57.3371 4.31912 57.0764 3.51193 56.7133 3.01326C56.5393 2.77945 56.313 2.59002 56.0526 2.46026C55.7923 2.33049 55.5053 2.26403 55.2147 2.26623ZM55.263 4.4627C55.4078 4.18523 55.3576 4.07463 55.3306 4.02612C55.3149 4.01208 55.2965 4.0014 55.2766 3.99473C55.2567 3.98806 55.2356 3.98553 55.2147 3.98732C55.1862 3.98627 55.1579 3.99157 55.1317 4.00284C55.0969 4.01642 55.0853 4.0203 55.0969 4.0921C55.1218 4.22726 55.1787 4.3544 55.263 4.4627ZM55.2147 2.92207C55.4016 2.92025 55.5863 2.96249 55.754 3.04539C55.9217 3.12828 56.0677 3.24953 56.1803 3.39939C56.5781 3.94851 56.4854 4.62375 55.9022 5.41153L58.9767 10.5166V5.18645C58.9767 5.04545 59.0324 4.91022 59.1317 4.81052C59.2309 4.71081 59.3655 4.6548 59.5058 4.6548C59.6462 4.6548 59.7808 4.71081 59.88 4.81052C59.9792 4.91022 60.035 5.04545 60.035 5.18645V12.4201C60.0359 12.5366 59.9985 12.6501 59.9287 12.7431C59.8589 12.8361 59.7605 12.9034 59.6488 12.9345C59.5371 12.9657 59.4182 12.959 59.3107 12.9154C59.2032 12.8719 59.1129 12.7939 59.0539 12.6937L55.7709 7.23352V12.4201C55.7709 12.5611 55.7152 12.6963 55.6159 12.796C55.5167 12.8957 55.3821 12.9517 55.2417 12.9517C55.1014 12.9517 54.9668 12.8957 54.8676 12.796C54.7684 12.6963 54.7126 12.5611 54.7126 12.4201V5.49109C54.6701 5.43094 54.6238 5.37079 54.5774 5.3087C54.312 5.01281 54.1318 4.64994 54.056 4.25897C54.0079 4.00634 54.0486 3.74478 54.1712 3.51898C54.2938 3.29318 54.4906 3.11717 54.7281 3.02102C54.8835 2.9561 55.0502 2.92247 55.2186 2.92207" fill="black"/>
<path d="M47.5287 2.26616C47.2741 2.26606 47.022 2.31685 46.7871 2.41557C46.4156 2.5681 46.1073 2.84377 45.9134 3.19676C45.7194 3.54976 45.6516 3.95881 45.7211 4.35592C45.8124 4.85505 46.0359 5.32023 46.3681 5.70252V12.4122C46.3804 12.7191 46.5104 13.0093 46.7309 13.2221C46.9514 13.4348 47.2452 13.5536 47.5509 13.5536C47.8566 13.5536 48.1504 13.4348 48.3709 13.2221C48.5914 13.0093 48.7214 12.7191 48.7338 12.4122V9.58904C49.7805 11.3353 50.8079 13.0351 50.8079 13.0351C50.9126 13.2112 51.0608 13.3573 51.238 13.4593C51.4152 13.5612 51.6156 13.6156 51.8198 13.6172C52.1333 13.6172 52.4339 13.4921 52.6555 13.2694C52.8772 13.0467 53.0017 12.7446 53.0017 12.4297V5.18638C53.0017 4.87144 52.8772 4.5694 52.6555 4.3467C52.4339 4.124 52.1333 3.99889 51.8198 3.99889C51.5064 3.99889 51.2057 4.124 50.9841 4.3467C50.7624 4.5694 50.6379 4.87144 50.6379 5.18638V8.159L48.9945 5.42893C49.6511 4.32099 49.3807 3.51186 49.0254 3.0132C48.852 2.77919 48.626 2.58959 48.366 2.45979C48.1059 2.32999 47.8191 2.26365 47.5287 2.26616ZM47.577 4.46264C47.7199 4.18517 47.6716 4.07457 47.6446 4.02606C47.6288 4.01211 47.6105 4.00149 47.5906 3.99482C47.5707 3.98815 47.5496 3.98558 47.5287 3.98725C47.4996 3.98658 47.4707 3.99186 47.4437 4.00277C47.4109 4.01636 47.3993 4.02024 47.4109 4.09203C47.4358 4.2272 47.4927 4.35433 47.577 4.46264ZM47.5287 2.922C47.7156 2.92018 47.9003 2.96242 48.068 3.04532C48.2357 3.12821 48.3817 3.24946 48.4943 3.39932C48.8921 3.94844 48.7975 4.62368 48.2162 5.41147L51.2907 10.5165V5.18638C51.2907 5.04538 51.3464 4.91015 51.4456 4.81045C51.5449 4.71074 51.6795 4.65473 51.8198 4.65473C51.9601 4.65473 52.0947 4.71074 52.194 4.81045C52.2932 4.91015 52.349 5.04538 52.349 5.18638V12.42C52.3493 12.5359 52.3116 12.6486 52.2418 12.7408C52.172 12.8331 52.0739 12.8996 51.9627 12.9303C51.8512 12.9633 51.7319 12.958 51.6238 12.9151C51.5157 12.8722 51.425 12.7942 51.366 12.6936L48.0868 7.23345V12.42C48.0868 12.561 48.0311 12.6962 47.9318 12.7959C47.8326 12.8956 47.698 12.9517 47.5577 12.9517C47.4173 12.9517 47.2827 12.8956 47.1835 12.7959C47.0843 12.6962 47.0285 12.561 47.0285 12.42V5.49102C46.986 5.43087 46.9397 5.37072 46.8914 5.30863C46.6266 5.01258 46.447 4.6497 46.3719 4.2589C46.3234 4.00625 46.364 3.74452 46.4866 3.51864C46.6093 3.29275 46.8063 3.11679 47.044 3.02096C47.1995 2.95603 47.3661 2.92241 47.5345 2.922" fill="black"/>
<path d="M65.9888 11.5741C65.4923 11.5741 65.0069 11.4262 64.594 11.149C64.1811 10.8718 63.8594 10.4779 63.6693 10.017C63.4793 9.55605 63.4296 9.04887 63.5265 8.55956C63.6234 8.07025 63.8625 7.62079 64.2136 7.26802C64.5647 6.91525 65.012 6.67501 65.499 6.57768C65.986 6.48035 66.4908 6.5303 66.9495 6.72122C67.4083 6.91214 67.8004 7.23545 68.0762 7.65027C68.3521 8.06508 68.4993 8.55277 68.4993 9.05167C68.4993 9.72066 68.2348 10.3623 67.764 10.8353C67.2932 11.3084 66.6546 11.5741 65.9888 11.5741ZM65.9888 4.16005C65.025 4.15928 64.0825 4.44574 63.2808 4.9832C62.479 5.52066 61.8539 6.28496 61.4845 7.17943C61.1152 8.0739 61.0181 9.05834 61.2057 10.0082C61.3932 10.9581 61.857 11.8308 62.5383 12.5158C63.2195 13.2008 64.0877 13.6675 65.033 13.8567C65.9782 14.0459 66.9581 13.9492 67.8486 13.5788C68.7392 13.2084 69.5003 12.5809 70.0359 11.7757C70.5715 10.9706 70.8573 10.024 70.8573 9.05555C70.8568 7.75801 70.3438 6.51371 69.431 5.59584C68.5182 4.67798 67.2802 4.16159 65.9888 4.16005ZM65.9888 12.2319C66.6142 12.2327 67.2258 12.047 67.7462 11.6985C68.2666 11.3499 68.6724 10.8541 68.9123 10.2738C69.1521 9.69344 69.2153 9.05466 69.0937 8.43825C68.9722 7.82185 68.6714 7.25551 68.2294 6.8109C67.7875 6.36629 67.2242 6.06339 66.6108 5.94052C65.9975 5.81764 65.3616 5.88032 64.7837 6.12061C64.2059 6.36091 63.7119 6.76803 63.3643 7.29046C63.0168 7.81289 62.8313 8.42716 62.8313 9.05555C62.8318 9.89714 63.1645 10.7042 63.7564 11.2996C64.3484 11.8951 65.1512 12.2304 65.9888 12.2319ZM65.9888 4.81589C66.8235 4.81512 67.6397 5.06312 68.3342 5.52851C69.0286 5.9939 69.57 6.65578 69.89 7.43041C70.21 8.20504 70.2941 9.05761 70.1317 9.88028C69.9693 10.703 69.5677 11.4587 68.9778 12.0521C68.3878 12.6454 67.6359 13.0496 66.8173 13.2135C65.9986 13.3774 65.15 13.2936 64.3788 12.9729C63.6075 12.6521 62.9482 12.1087 62.4844 11.4114C62.0206 10.7141 61.773 9.89424 61.773 9.05555C61.7727 8.49904 61.8816 7.94794 62.0933 7.43369C62.305 6.91945 62.6155 6.45215 63.007 6.05846C63.3984 5.66477 63.8633 5.35241 64.3749 5.13921C64.8865 4.92601 65.4349 4.81614 65.9888 4.81589Z" fill="black"/>
<path d="M53.834 22.4574C53.3375 22.4574 52.8521 22.3095 52.4393 22.0323C52.0264 21.7551 51.7046 21.3612 51.5146 20.9002C51.3246 20.4393 51.2749 19.9321 51.3717 19.4428C51.4686 18.9535 51.7077 18.5041 52.0588 18.1513C52.4099 17.7985 52.8573 17.5583 53.3443 17.461C53.8313 17.3636 54.3361 17.4136 54.7948 17.6045C55.2535 17.7954 55.6456 18.1187 55.9215 18.5335C56.1973 18.9484 56.3446 19.436 56.3446 19.9349C56.3446 20.6039 56.0801 21.2455 55.6093 21.7186C55.1384 22.1916 54.4999 22.4574 53.834 22.4574ZM53.834 15.0414C52.8705 15.0418 51.9286 15.3292 51.1276 15.8674C50.3266 16.4055 49.7024 17.1702 49.3339 18.0648C48.9654 18.9594 48.8692 19.9436 49.0574 20.8931C49.2457 21.8426 49.7099 22.7148 50.3914 23.3992C51.0729 24.0837 51.941 24.5497 52.8861 24.7385C53.8312 24.9272 54.8108 24.8301 55.701 24.4595C56.5912 24.089 57.352 23.4615 57.8873 22.6565C58.4226 21.8515 58.7084 20.905 58.7084 19.9369C58.7068 18.6397 58.1935 17.396 57.2809 16.4783C56.3684 15.5607 55.1309 15.0439 53.8398 15.0414H53.834ZM53.8398 23.1132C54.4653 23.114 55.0769 22.9284 55.5972 22.5798C56.1176 22.2313 56.5234 21.7354 56.7633 21.1551C57.0032 20.5748 57.0663 19.936 56.9448 19.3196C56.8232 18.7032 56.5225 18.1368 56.0805 17.6922C55.6385 17.2476 55.0752 16.9447 54.4619 16.8218C53.8485 16.699 53.2127 16.7617 52.6348 17.0019C52.0569 17.2422 51.5629 17.6494 51.2154 18.1718C50.8679 18.6942 50.6823 19.3085 50.6823 19.9369C50.6823 20.7786 51.0149 21.586 51.6069 22.1815C52.199 22.7771 53.0021 23.1122 53.8398 23.1132ZM53.8398 15.6972C54.6746 15.6965 55.4908 15.9445 56.1852 16.4098C56.8796 16.8752 57.4211 17.5371 57.741 18.3117C58.061 19.0864 58.1451 19.9389 57.9827 20.7616C57.8204 21.5843 57.4188 22.3401 56.8288 22.9334C56.2388 23.5267 55.487 23.9309 54.6683 24.0948C53.8497 24.2587 53.0011 24.175 52.2298 23.8542C51.4585 23.5334 50.7993 22.99 50.3355 22.2927C49.8716 21.5954 49.6241 20.7756 49.6241 19.9369C49.6241 18.8131 50.0681 17.7353 50.8586 16.9404C51.6491 16.1454 52.7214 15.6982 53.8398 15.6972Z" fill="black"/>
<path d="M73.2019 15.0822C72.3707 15.0817 71.553 15.2927 70.825 15.6957C70.0971 16.0986 69.4826 16.6804 69.039 17.3865C68.5954 18.0927 68.3371 18.9003 68.2883 19.734C68.2395 20.5676 68.4017 21.4001 68.7598 22.1536C69.1179 22.9072 69.6602 23.5573 70.3361 24.0433C71.012 24.5293 71.7994 24.8352 72.6249 24.9326C73.4504 25.03 74.2869 24.9157 75.0565 24.6002C75.8261 24.2848 76.5035 23.7786 77.0256 23.1288C77.1231 23.0074 77.1959 22.8679 77.2397 22.7182C77.2836 22.5686 77.2976 22.4117 77.2812 22.2566C77.2647 22.1014 77.2179 21.9511 77.1436 21.8141C77.0692 21.6771 76.9688 21.5562 76.8479 21.4582C76.7271 21.3602 76.5882 21.2871 76.4393 21.2431C76.2903 21.199 76.1342 21.1849 75.9798 21.2015C75.8254 21.218 75.6757 21.265 75.5394 21.3397C75.4031 21.4144 75.2827 21.5153 75.1852 21.6367C74.8616 22.0406 74.4237 22.3364 73.9294 22.4852C73.435 22.634 72.9074 22.6288 72.4161 22.4702C71.9248 22.3117 71.4928 22.0073 71.1771 21.5972C70.8614 21.187 70.6768 20.6904 70.6477 20.1727C70.6186 19.6551 70.7463 19.1407 71.014 18.6974C71.2816 18.2541 71.6767 17.9027 72.1471 17.6896C72.6175 17.4764 73.1412 17.4115 73.6491 17.5034C74.157 17.5953 74.6252 17.8396 74.9921 18.2042C75.2168 18.4154 75.5145 18.5303 75.8222 18.5246C76.1298 18.519 76.4231 18.3932 76.6401 18.174C76.857 17.9548 76.9804 17.6593 76.9843 17.3502C76.9881 17.0411 76.872 16.7427 76.6606 16.5181C76.2057 16.0613 75.6654 15.6994 75.0709 15.453C74.4763 15.2066 73.8392 15.0806 73.1961 15.0822H73.2019ZM73.1961 15.7381C73.7536 15.7366 74.306 15.8458 74.8214 16.0596C75.3367 16.2734 75.805 16.5875 76.1991 16.9838C76.2987 17.0831 76.355 17.2181 76.3555 17.3591C76.3561 17.5001 76.3008 17.6356 76.202 17.7356C76.1031 17.8357 75.9687 17.8923 75.8284 17.8928C75.6881 17.8934 75.5532 17.8379 75.4536 17.7386C74.9922 17.2817 74.4037 16.976 73.7659 16.8618C73.1281 16.7476 72.4708 16.8302 71.8806 17.0989C71.2905 17.3675 70.7952 17.8094 70.46 18.3665C70.1249 18.9236 69.9656 19.5696 70.0031 20.2195C70.0407 20.8693 70.2733 21.4925 70.6704 22.0069C71.0675 22.5212 71.6103 22.9027 72.2274 23.1009C72.8446 23.299 73.507 23.3047 74.1273 23.1171C74.7477 22.9295 75.297 22.5575 75.7028 22.05C75.7464 21.9956 75.8002 21.9504 75.8613 21.9169C75.9223 21.8834 75.9893 21.8623 76.0584 21.8548C76.1275 21.8474 76.1974 21.8536 76.2642 21.8733C76.3309 21.893 76.3931 21.9257 76.4472 21.9695C76.5014 22.0133 76.5464 22.0674 76.5797 22.1287C76.6131 22.19 76.634 22.2574 76.6415 22.3268C76.6489 22.3963 76.6427 22.4665 76.6231 22.5336C76.6035 22.6006 76.571 22.6631 76.5274 22.7175C76.0737 23.2787 75.486 23.7155 74.8191 23.9871C74.1522 24.2587 73.4277 24.3563 72.7131 24.2707C71.9986 24.1852 71.3172 23.9194 70.7324 23.498C70.1476 23.0767 69.6785 22.5135 69.3687 21.8609C69.0589 21.2083 68.9185 20.4875 68.9607 19.7657C69.0028 19.0439 69.226 18.3446 69.6096 17.7328C69.9932 17.1211 70.5247 16.6168 71.1544 16.267C71.7842 15.9172 72.4919 15.7332 73.2115 15.7322" fill="black"/>
<path d="M95.9205 11.5741C95.4239 11.5741 94.9385 11.4262 94.5257 11.149C94.1128 10.8718 93.791 10.4779 93.601 10.017C93.411 9.55605 93.3613 9.04887 93.4582 8.55956C93.555 8.07025 93.7941 7.6208 94.1452 7.26803C94.4964 6.91525 94.9437 6.67501 95.4307 6.57768C95.9177 6.48035 96.4225 6.53031 96.8812 6.72123C97.34 6.91214 97.7321 7.23545 98.0079 7.65027C98.2838 8.06508 98.431 8.55277 98.431 9.05167C98.431 9.72066 98.1665 10.3623 97.6957 10.8353C97.2249 11.3084 96.5863 11.5741 95.9205 11.5741ZM95.9205 4.16005C94.9567 4.15967 94.0145 4.44646 93.213 4.98415C92.4115 5.52184 91.7867 6.28628 91.4176 7.18078C91.0485 8.07528 90.9517 9.05966 91.1395 10.0094C91.3273 10.9592 91.7912 11.8317 92.4725 12.5165C93.1539 13.2013 94.0221 13.6678 94.9673 13.8568C95.9125 14.0459 96.8923 13.9491 97.7827 13.5786C98.6731 13.2081 99.4342 12.5806 99.9697 11.7755C100.505 10.9704 100.791 10.0239 100.791 9.05555C100.79 7.75768 100.277 6.51308 99.364 5.59516C98.4508 4.67724 97.2122 4.16108 95.9205 4.16005ZM95.9205 12.2319C96.5459 12.2327 97.1575 12.047 97.6779 11.6985C98.1983 11.3499 98.6041 10.8541 98.844 10.2738C99.0838 9.69344 99.147 9.05466 99.0254 8.43826C98.9039 7.82185 98.6031 7.25551 98.1611 6.81091C97.7192 6.3663 97.1559 6.06339 96.5425 5.94052C95.9292 5.81764 95.2933 5.88032 94.7154 6.12061C94.1375 6.36091 93.6436 6.76803 93.296 7.29046C92.9485 7.81289 92.763 8.42716 92.763 9.05555C92.7635 9.89714 93.0962 10.7042 93.6881 11.2996C94.28 11.8951 95.0829 12.2304 95.9205 12.2319ZM95.9205 4.81589C96.7552 4.81512 97.5714 5.06312 98.2658 5.52851C98.9603 5.99391 99.5017 6.65578 99.8217 7.43041C100.142 8.20504 100.226 9.05762 100.063 9.88028C99.901 10.703 99.4994 11.4588 98.9095 12.0521C98.3195 12.6454 97.5676 13.0496 96.749 13.2135C95.9303 13.3774 95.0817 13.2936 94.3104 12.9729C93.5392 12.6521 92.8799 12.1087 92.4161 11.4114C91.9523 10.7141 91.7047 9.89424 91.7047 9.05555C91.7044 8.49904 91.8133 7.94794 92.025 7.4337C92.2367 6.91945 92.5472 6.45215 92.9387 6.05846C93.3301 5.66477 93.7949 5.35241 94.3066 5.13921C94.8182 4.92601 95.3666 4.81614 95.9205 4.81589Z" fill="black"/>
<path d="M76.0196 3.99905C75.7648 4.00031 75.5171 4.08376 75.313 4.23711C75.1089 4.39046 74.9592 4.60561 74.886 4.85086L73.8316 8.43469L72.6439 4.81594C72.5668 4.57813 72.4166 4.37098 72.2151 4.22422C72.0135 4.07746 71.7708 3.99863 71.5219 3.99905C71.3966 3.99961 71.2721 4.01991 71.153 4.0592C71.0053 4.10775 70.8686 4.18508 70.7507 4.28677C70.6328 4.38846 70.5361 4.51251 70.4659 4.65182C70.3958 4.79114 70.3537 4.94298 70.342 5.09865C70.3303 5.25433 70.3493 5.4108 70.3979 5.55909L72.7694 12.7908C72.8469 13.0287 72.9974 13.2359 73.1993 13.3827C73.4012 13.5294 73.6442 13.6082 73.8934 13.6077H73.9108C74.1632 13.6048 74.408 13.5205 74.609 13.3671C74.81 13.2137 74.9566 12.9994 75.027 12.7558L77.1513 5.52416C77.2394 5.22184 77.2048 4.89676 77.0549 4.62004C76.9051 4.34331 76.6523 4.13748 76.3518 4.04756C76.2425 4.01599 76.1295 3.99966 76.0158 3.99905H76.0196ZM76.0158 4.65489C76.0669 4.65502 76.1176 4.66287 76.1664 4.67817C76.3008 4.71819 76.4138 4.81012 76.4808 4.9338C76.5478 5.05748 76.5632 5.20281 76.5237 5.33789L74.3994 12.5696C74.369 12.6796 74.3041 12.7767 74.2143 12.8467C74.1245 12.9166 74.0147 12.9555 73.9011 12.9576C73.7895 12.958 73.6807 12.9227 73.5904 12.8568C73.5001 12.7908 73.4331 12.6977 73.399 12.5909L71.0198 5.35341C70.9758 5.21961 70.9865 5.07375 71.0495 4.94786C71.1125 4.82198 71.2227 4.72637 71.3558 4.68205C71.4095 4.66516 71.4656 4.65665 71.5219 4.65683C71.6331 4.65689 71.7415 4.69217 71.8316 4.75766C71.9218 4.82314 71.9891 4.9155 72.024 5.02162L73.8644 10.637L75.5098 5.03714C75.5408 4.92605 75.6069 4.82812 75.6982 4.75811C75.7895 4.68811 75.9009 4.64983 76.0158 4.64907" fill="black"/>
<path d="M84.7157 3.62833C84.4473 3.62881 84.187 3.72121 83.9779 3.89028H83.0683C82.7549 3.89028 82.4543 4.01539 82.2326 4.23809C82.011 4.46079 81.8865 4.76283 81.8865 5.07777C81.8865 5.39272 82.011 5.69476 82.2326 5.91746C82.4543 6.14016 82.7549 6.26527 83.0683 6.26527H83.5318V12.4201C83.5442 12.7269 83.6742 13.0171 83.8947 13.2299C84.1151 13.4426 84.409 13.5615 84.7147 13.5615C85.0204 13.5615 85.3142 13.4426 85.5347 13.2299C85.7552 13.0171 85.8852 12.7269 85.8975 12.4201V6.26527H86.3591C86.6725 6.26527 86.9732 6.14016 87.1948 5.91746C87.4165 5.69476 87.541 5.39272 87.541 5.07777C87.541 4.76283 87.4165 4.46079 87.1948 4.23809C86.9732 4.01539 86.6725 3.89028 86.3591 3.89028H85.4514C85.243 3.72135 84.9834 3.62894 84.7157 3.62833ZM84.7157 4.28417C84.8067 4.28559 84.8958 4.31041 84.9746 4.35627C85.0534 4.40212 85.1191 4.46748 85.1656 4.54612H86.3552C86.4956 4.54612 86.6302 4.60213 86.7294 4.70184C86.8286 4.80154 86.8844 4.93677 86.8844 5.07777C86.8844 5.21878 86.8286 5.35401 86.7294 5.45371C86.6302 5.55342 86.4956 5.60943 86.3552 5.60943H85.2429V12.4201C85.2472 12.4924 85.2368 12.565 85.2122 12.6332C85.1876 12.7013 85.1495 12.7638 85.1 12.8166C85.0505 12.8694 84.9908 12.9114 84.9245 12.9402C84.8583 12.969 84.7869 12.9838 84.7147 12.9838C84.6425 12.9838 84.5711 12.969 84.5048 12.9402C84.4386 12.9114 84.3789 12.8694 84.3294 12.8166C84.2799 12.7638 84.2417 12.7013 84.2171 12.6332C84.1926 12.565 84.1821 12.4924 84.1865 12.4201V5.60943H83.0683C82.928 5.60943 82.7934 5.55342 82.6942 5.45371C82.5949 5.35401 82.5392 5.21878 82.5392 5.07777C82.5392 4.93677 82.5949 4.80154 82.6942 4.70184C82.7934 4.60213 82.928 4.54612 83.0683 4.54612H84.2618C84.3081 4.46641 84.3743 4.40027 84.4539 4.35431C84.5336 4.30835 84.6238 4.28416 84.7157 4.28417Z" fill="black"/>
<path d="M89.2212 3.62833C88.9079 3.62885 88.6075 3.75412 88.386 3.97671C88.1645 4.1993 88.0398 4.50104 88.0393 4.81583V12.4201C88.0516 12.7269 88.1816 13.0171 88.4021 13.2299C88.6226 13.4426 88.9164 13.5615 89.2221 13.5615C89.5278 13.5615 89.8217 13.4426 90.0422 13.2299C90.2626 13.0171 90.3927 12.7269 90.405 12.4201V4.81583C90.4045 4.50071 90.2795 4.19867 90.0576 3.97602C89.8356 3.75338 89.5348 3.62833 89.2212 3.62833ZM89.2212 4.28417C89.3615 4.28417 89.4961 4.34019 89.5953 4.43989C89.6946 4.53959 89.7503 4.67482 89.7503 4.81583V12.4201C89.7503 12.5611 89.6946 12.6963 89.5953 12.796C89.4961 12.8957 89.3615 12.9517 89.2212 12.9517C89.0808 12.9517 88.9462 12.8957 88.847 12.796C88.7478 12.6963 88.692 12.5611 88.692 12.4201V4.81583C88.692 4.67482 88.7478 4.53959 88.847 4.43989C88.9462 4.34019 89.0808 4.28417 89.2212 4.28417Z" fill="black"/>
<path d="M89.2212 0.525814C88.9538 0.525814 88.6924 0.605474 88.4701 0.75472C88.2478 0.903966 88.0745 1.11609 87.9722 1.36428C87.8699 1.61247 87.8431 1.88557 87.8953 2.14904C87.9475 2.41251 88.0762 2.65453 88.2653 2.84448C88.4543 3.03444 88.6952 3.1638 88.9574 3.2162C89.2196 3.26861 89.4915 3.24171 89.7385 3.13891C89.9855 3.03611 90.1966 2.86202 90.3452 2.63866C90.4937 2.4153 90.573 2.15269 90.573 1.88406C90.5705 1.52461 90.4272 1.18061 90.1742 0.926443C89.9213 0.672271 89.5789 0.528355 89.2212 0.525814ZM89.2212 1.18165C89.3609 1.18204 89.4973 1.22401 89.6133 1.30228C89.7293 1.38055 89.8196 1.49159 89.8728 1.62139C89.926 1.75119 89.9397 1.89392 89.9122 2.03155C89.8847 2.16918 89.8173 2.29554 89.7183 2.39467C89.6194 2.49379 89.4935 2.56123 89.3564 2.58848C89.2193 2.61573 89.0773 2.60155 88.9483 2.54774C88.8192 2.49393 88.709 2.40291 88.6314 2.28616C88.5538 2.16942 88.5124 2.03219 88.5124 1.89182C88.5121 1.79832 88.5303 1.7057 88.5659 1.6193C88.6014 1.53289 88.6536 1.45442 88.7195 1.38839C88.7854 1.32237 88.8637 1.27011 88.9498 1.23463C89.0359 1.19914 89.1281 1.18114 89.2212 1.18165Z" fill="black"/>
<path d="M44.1318 0.525814C43.8648 0.52773 43.6044 0.609015 43.3834 0.759421C43.1624 0.909826 42.9906 1.12262 42.8898 1.37097C42.7889 1.61932 42.7635 1.8921 42.8168 2.15494C42.87 2.41777 42.9995 2.65887 43.1889 2.84786C43.3784 3.03684 43.6193 3.16524 43.8812 3.21687C44.1432 3.2685 44.4145 3.24104 44.661 3.13796C44.9074 3.03488 45.118 2.86079 45.2661 2.63764C45.4142 2.41449 45.4933 2.15228 45.4933 1.88406C45.4907 1.52294 45.3462 1.17749 45.0911 0.923041C44.836 0.668596 44.4912 0.525805 44.1318 0.525814ZM44.1318 1.18165C44.2716 1.18165 44.4082 1.2233 44.5245 1.30134C44.6407 1.37937 44.7313 1.49028 44.7848 1.62005C44.8383 1.74982 44.8523 1.89261 44.825 2.03037C44.7977 2.16813 44.7304 2.29467 44.6316 2.39398C44.5327 2.4933 44.4068 2.56094 44.2697 2.58834C44.1326 2.61574 43.9904 2.60168 43.8613 2.54793C43.7321 2.49418 43.6217 2.40315 43.5441 2.28637C43.4664 2.16958 43.425 2.03228 43.425 1.89182C43.425 1.70347 43.4994 1.52284 43.632 1.38966C43.7645 1.25647 43.9443 1.18165 44.1318 1.18165Z" fill="black"/>
<path d="M44.1318 3.62833C43.8183 3.62833 43.5177 3.75344 43.296 3.97614C43.0744 4.19884 42.9499 4.50089 42.9499 4.81583V12.4201C42.9622 12.7269 43.0922 13.0171 43.3127 13.2299C43.5332 13.4426 43.827 13.5615 44.1327 13.5615C44.4384 13.5615 44.7323 13.4426 44.9527 13.2299C45.1732 13.0171 45.3032 12.7269 45.3156 12.4201V4.81583C45.3151 4.50071 45.1901 4.19867 44.9682 3.97602C44.7462 3.75338 44.4454 3.62833 44.1318 3.62833ZM44.1318 4.28417C44.2721 4.28417 44.4067 4.34019 44.5059 4.43989C44.6052 4.53959 44.6609 4.67482 44.6609 4.81583V12.4201C44.6609 12.5611 44.6052 12.6963 44.5059 12.796C44.4067 12.8957 44.2721 12.9517 44.1318 12.9517C43.9914 12.9517 43.8568 12.8957 43.7576 12.796C43.6584 12.6963 43.6026 12.5611 43.6026 12.4201V4.81583C43.6026 4.74601 43.6163 4.67688 43.6429 4.61237C43.6695 4.54787 43.7085 4.48926 43.7576 4.43989C43.8067 4.39052 43.8651 4.35136 43.9293 4.32464C43.9935 4.29792 44.0623 4.28417 44.1318 4.28417Z" fill="black"/>
<path d="M61.5744 17.463H61.9606C62.2889 17.4804 63.2951 17.657 63.2931 19.1336C63.2935 19.3029 63.2734 19.4717 63.2333 19.6362C62.9444 19.3825 62.6111 19.1851 62.2503 19.0541C62.0298 18.9785 61.7995 18.936 61.5667 18.9279L61.5744 17.463ZM60.3906 15.086C60.0769 15.0866 59.7763 15.2121 59.5547 15.4351C59.3331 15.6581 59.2087 15.9604 59.2087 16.2755V23.5906C59.221 23.8975 59.3511 24.1877 59.5715 24.4004C59.792 24.6132 60.0858 24.732 60.3915 24.732C60.6972 24.732 60.9911 24.6132 61.2116 24.4004C61.432 24.1877 61.562 23.8975 61.5744 23.5906V23.09C61.68 23.0977 61.7862 23.1016 61.893 23.1016C62.2012 23.1025 62.5084 23.0673 62.8084 22.9968C62.8973 23.156 62.9803 23.3112 63.0595 23.4567L63.0749 23.4858C63.212 23.74 63.3414 23.9806 63.4708 24.1979C63.5503 24.3319 63.6553 24.4489 63.7798 24.5422C63.9043 24.6354 64.0459 24.7032 64.1964 24.7414C64.347 24.7797 64.5036 24.7879 64.6572 24.7653C64.8109 24.7428 64.9587 24.6901 65.092 24.6102C65.2254 24.5304 65.3419 24.4249 65.4347 24.2998C65.5275 24.1747 65.5949 24.0324 65.633 23.8812C65.6711 23.7299 65.6792 23.5726 65.6568 23.4182C65.6344 23.2638 65.5819 23.1154 65.5024 22.9813C65.3904 22.7873 65.2572 22.5428 65.1394 22.3255C65.0216 22.1082 64.925 21.9374 64.8091 21.7201C65.3702 20.9772 65.6697 20.0681 65.6608 19.1355C65.6608 15.8796 63.0286 15.1074 62.0128 15.086H60.3906ZM61.9008 21.3825C62.0963 21.3829 62.2911 21.3574 62.4801 21.3068C62.2764 21.0355 62.0054 20.8227 61.6941 20.6898C61.591 20.6517 61.4792 20.6439 61.3719 20.6673C61.2645 20.6907 61.166 20.7442 61.0877 20.8217C61.0463 20.8555 61.0139 20.899 60.9933 20.9485C60.9728 20.9979 60.9647 21.0517 60.9699 21.105C61.0008 21.1981 61.1939 21.3146 61.5493 21.3611C61.6634 21.3748 61.7781 21.382 61.893 21.3825H61.9008ZM60.912 19.6963C61.0972 19.6264 61.2935 19.5909 61.4914 19.5915C61.6779 19.5912 61.8633 19.622 62.0398 19.6827C62.5801 19.901 63.0486 20.2674 63.3916 20.7402C63.7662 20.2907 63.9652 19.7197 63.9517 19.1336C63.9517 16.9604 62.2136 16.8168 61.9799 16.8052H60.9178L60.912 19.6963ZM61.9973 15.7438C62.0263 15.7438 65.008 15.8525 65.0042 19.1355C65.0133 19.599 64.9287 20.0595 64.7554 20.4891C64.5821 20.9187 64.3238 21.3084 63.9961 21.6347C64.1892 21.9723 64.3823 22.3158 64.5561 22.6359C64.6913 22.8862 64.8188 23.123 64.9327 23.317C64.9716 23.3769 64.998 23.4442 65.0104 23.5146C65.0228 23.585 65.0209 23.6573 65.0049 23.727C64.9888 23.7967 64.9589 23.8624 64.917 23.9202C64.8751 23.978 64.822 24.0268 64.7609 24.0635C64.6997 24.1002 64.6319 24.1241 64.5614 24.1339C64.4908 24.1436 64.4191 24.1389 64.3504 24.1201C64.2817 24.1013 64.2174 24.0688 64.1615 24.0245C64.1056 23.9802 64.0592 23.925 64.0251 23.8622C63.8976 23.6488 63.7663 23.4024 63.6253 23.1443C63.4689 22.8533 63.2931 22.5273 63.1058 22.211C62.7182 22.3686 62.3035 22.4484 61.8853 22.4458C61.7277 22.4459 61.5703 22.4355 61.4141 22.4147C61.2436 22.3932 61.0755 22.3555 60.912 22.3022V23.5906C60.912 23.7316 60.8562 23.8668 60.757 23.9665C60.6578 24.0662 60.5232 24.1222 60.3829 24.1222C60.2425 24.1222 60.1079 24.0662 60.0087 23.9665C59.9095 23.8668 59.8537 23.7316 59.8537 23.5906V16.2755C59.8537 16.1345 59.9095 15.9992 60.0087 15.8995C60.1079 15.7998 60.2425 15.7438 60.3829 15.7438H61.9973Z" fill="black"/>
<path d="M83.1457 14.9346C82.8324 14.9352 82.532 15.0604 82.3105 15.283C82.089 15.5056 81.9643 15.8074 81.9638 16.1221V19.8728H79.9959V16.1221C79.9835 15.8152 79.8535 15.525 79.633 15.3123C79.4126 15.0995 79.1187 14.9807 78.813 14.9807C78.5073 14.9807 78.2135 15.0995 77.993 15.3123C77.7725 15.525 77.6425 15.8152 77.6302 16.1221V23.7516C77.6425 24.0585 77.7725 24.3487 77.993 24.5614C78.2135 24.7742 78.5073 24.893 78.813 24.893C79.1187 24.893 79.4126 24.7742 79.633 24.5614C79.8535 24.3487 79.9835 24.0585 79.9959 23.7516V22.2478H81.9638V23.7516C81.9761 24.0585 82.1061 24.3487 82.3266 24.5614C82.5471 24.7742 82.8409 24.893 83.1466 24.893C83.4523 24.893 83.7462 24.7742 83.9666 24.5614C84.1871 24.3487 84.3171 24.0585 84.3295 23.7516V16.1221C84.329 15.807 84.204 15.505 83.9821 15.2823C83.7601 15.0597 83.4593 14.9346 83.1457 14.9346ZM83.1457 15.5905C83.286 15.5905 83.4206 15.6465 83.5198 15.7462C83.619 15.8459 83.6748 15.9811 83.6748 16.1221V23.7516C83.6748 23.8926 83.619 24.0278 83.5198 24.1275C83.4206 24.2272 83.286 24.2832 83.1457 24.2832C83.0053 24.2832 82.8707 24.2272 82.7715 24.1275C82.6723 24.0278 82.6165 23.8926 82.6165 23.7516V21.592H79.3431V23.7516C79.3431 23.8926 79.2874 24.0278 79.1882 24.1275C79.0889 24.2272 78.9543 24.2832 78.814 24.2832C78.6736 24.2832 78.5391 24.2272 78.4398 24.1275C78.3406 24.0278 78.2849 23.8926 78.2849 23.7516V16.1221C78.2849 15.9811 78.3406 15.8459 78.4398 15.7462C78.5391 15.6465 78.6736 15.5905 78.814 15.5905C78.9543 15.5905 79.0889 15.6465 79.1882 15.7462C79.2874 15.8459 79.3431 15.9811 79.3431 16.1221V20.5287H82.6165V16.1221C82.6165 15.9811 82.6723 15.8459 82.7715 15.7462C82.8707 15.6465 83.0053 15.5905 83.1457 15.5905Z" fill="black"/>
<path d="M104.157 14.7852C103.426 14.7853 102.705 14.9489 102.045 15.2642C101.385 15.5794 100.804 16.0384 100.342 16.6078C99.8812 17.1772 99.5521 17.8427 99.3789 18.5559C99.2058 19.2691 99.1929 20.0121 99.3413 20.7309C99.4897 21.4497 99.7956 22.1263 100.237 22.7115C100.678 23.2966 101.243 23.7757 101.892 24.1138C102.54 24.452 103.256 24.6407 103.986 24.6663C104.716 24.6919 105.443 24.5537 106.113 24.2618C106.221 24.5126 106.411 24.7184 106.652 24.8447C106.893 24.9709 107.17 25.0099 107.436 24.955C107.703 24.9001 107.942 24.7546 108.114 24.5432C108.286 24.3318 108.38 24.0673 108.381 23.7942V19.7195C108.381 19.4045 108.256 19.1025 108.034 18.8798C107.813 18.6571 107.512 18.532 107.199 18.532C106.885 18.532 106.585 18.6571 106.363 18.8798C106.141 19.1025 106.017 19.4045 106.017 19.7195V21.4658C105.669 21.8383 105.219 22.0981 104.724 22.2121C104.229 22.3261 103.711 22.289 103.237 22.1055C102.762 21.9221 102.354 21.6007 102.062 21.1824C101.771 20.7641 101.61 20.2681 101.601 19.7576C101.592 19.2472 101.735 18.7457 102.011 18.3172C102.287 17.8887 102.685 17.5528 103.152 17.3524C103.619 17.152 104.135 17.0963 104.634 17.1924C105.133 17.2884 105.593 17.5319 105.953 17.8917C106.178 18.1028 106.475 18.2177 106.783 18.2121C107.091 18.2064 107.384 18.0807 107.601 17.8615C107.818 17.6422 107.941 17.3468 107.945 17.0377C107.949 16.7286 107.833 16.4301 107.622 16.2055C107.167 15.7489 106.626 15.3871 106.032 15.1407C105.437 14.8943 104.8 14.7682 104.157 14.7697V14.7852ZM104.157 15.4255C104.715 15.424 105.267 15.5333 105.782 15.7471C106.298 15.9609 106.766 16.2749 107.16 16.6712C107.262 16.7713 107.32 16.908 107.322 17.0511C107.323 17.1943 107.268 17.3323 107.169 17.4347C107.069 17.5371 106.933 17.5956 106.791 17.5972C106.648 17.5989 106.511 17.5435 106.409 17.4435C105.949 16.9845 105.362 16.6763 104.724 16.5596C104.087 16.4428 103.429 16.5228 102.838 16.7892C102.246 17.0556 101.749 17.4958 101.412 18.0518C101.075 18.6077 100.913 19.2534 100.948 19.9035C100.983 20.5537 101.214 21.1778 101.609 21.6937C102.005 22.2095 102.547 22.5928 103.163 22.7931C103.78 22.9934 104.442 23.0012 105.063 22.8155C105.685 22.6298 106.235 22.2594 106.642 21.753C106.65 21.7463 106.657 21.7392 106.664 21.7316V19.7292C106.664 19.5882 106.719 19.4529 106.819 19.3532C106.918 19.2535 107.053 19.1975 107.193 19.1975C107.333 19.1975 107.468 19.2535 107.567 19.3532C107.666 19.4529 107.722 19.5882 107.722 19.7292V23.8039C107.722 23.9449 107.666 24.0801 107.567 24.1798C107.468 24.2796 107.333 24.3356 107.193 24.3356C107.053 24.3356 106.918 24.2796 106.819 24.1798C106.719 24.0801 106.664 23.9449 106.664 23.8039V23.1966C106.12 23.5952 105.489 23.8587 104.825 23.9655C104.16 24.0724 103.479 24.0195 102.839 23.8112C102.198 23.6029 101.615 23.2452 101.139 22.7673C100.662 22.2894 100.305 21.7049 100.097 21.0616C99.8882 20.4184 99.8343 19.7346 99.9394 19.0664C100.044 18.3982 100.306 17.7645 100.701 17.2171C101.097 16.6698 101.616 16.2244 102.216 15.9173C102.816 15.6103 103.48 15.4504 104.153 15.4507" fill="black"/>
<path d="M114.25 15.09H111.683C110.437 15.09 109.429 16.0039 109.172 17.366C109.006 18.216 109.15 19.0976 109.578 19.8497C109.313 20.322 109.129 20.8355 109.033 21.369C108.959 21.8216 108.976 22.2848 109.086 22.7302C109.196 23.1756 109.395 23.5939 109.671 23.9593C109.894 24.2669 110.178 24.5242 110.506 24.7147C110.834 24.9052 111.198 25.0246 111.575 25.0653C111.61 25.0671 111.646 25.0671 111.681 25.0653H114.25C114.555 25.0529 114.844 24.9223 115.056 24.7008C115.267 24.4792 115.386 24.184 115.386 23.8769C115.386 23.5697 115.267 23.2745 115.056 23.053C114.844 22.8314 114.555 22.7008 114.25 22.6884H111.766C111.678 22.6518 111.603 22.5905 111.55 22.5118C111.47 22.4089 111.412 22.2909 111.379 22.1648C111.346 22.0388 111.338 21.9074 111.357 21.7784C111.357 21.7299 111.376 21.6794 111.388 21.629C111.783 21.8542 112.229 21.9751 112.683 21.9802C112.743 21.9802 112.807 21.9802 112.876 21.9802C113.759 21.9122 114.549 21.3825 115.223 20.4065C115.329 20.2508 115.4 20.0729 115.428 19.8861C115.457 19.6994 115.444 19.5085 115.389 19.3277C115.196 18.7243 114.665 18.4022 113.844 18.0742C113.462 17.9183 113.053 17.8373 112.641 17.8356C112.236 17.8353 111.836 17.9164 111.463 18.0742C111.464 17.9851 111.472 17.8962 111.488 17.8084C111.511 17.692 111.594 17.4708 111.681 17.4708H114.25C114.555 17.4584 114.844 17.3278 115.056 17.1062C115.267 16.8847 115.386 16.5895 115.386 16.2823C115.386 15.9752 115.267 15.68 115.056 15.4584C114.844 15.2369 114.555 15.1063 114.25 15.0939V15.09ZM112.695 20.2668H112.747C113.053 20.2154 113.329 20.0506 113.52 19.805C113.438 19.7662 113.34 19.7235 113.22 19.675C113.036 19.5989 112.84 19.5593 112.641 19.5586C112.399 19.5624 112.163 19.6293 111.955 19.7526C111.902 19.7811 111.852 19.8128 111.803 19.8477C112.038 20.0899 112.35 20.2417 112.685 20.2765L112.695 20.2668ZM114.25 15.7555C114.319 15.7555 114.388 15.7693 114.452 15.796C114.516 15.8227 114.575 15.8619 114.624 15.9112C114.673 15.9606 114.712 16.0192 114.738 16.0837C114.765 16.1482 114.779 16.2174 114.779 16.2872C114.779 16.357 114.765 16.4261 114.738 16.4906C114.712 16.5551 114.673 16.6137 114.624 16.6631C114.575 16.7125 114.516 16.7516 114.452 16.7784C114.388 16.8051 114.319 16.8188 114.25 16.8188H111.683C111.053 16.8188 110.883 17.5484 110.856 17.6939C110.758 18.1605 110.843 18.6474 111.094 19.0522C111.207 18.9637 111.326 18.8846 111.451 18.8155C111.817 18.6057 112.23 18.4947 112.65 18.4934C112.982 18.4944 113.31 18.5603 113.616 18.6874C114.47 19.0289 114.69 19.2598 114.775 19.5217C114.801 19.6075 114.808 19.698 114.794 19.7867C114.781 19.8754 114.748 19.9599 114.698 20.034C114.139 20.8412 113.516 21.2758 112.84 21.3282H112.705C112.063 21.3282 111.525 20.9848 111.119 20.6297C110.93 20.9513 110.799 21.3041 110.733 21.6716C110.698 21.8893 110.707 22.1119 110.761 22.3257C110.814 22.5396 110.911 22.7402 111.044 22.9154C111.122 23.0301 111.222 23.1278 111.339 23.2028C111.455 23.2778 111.585 23.3285 111.722 23.352H114.25C114.39 23.352 114.524 23.408 114.624 23.5077C114.723 23.6074 114.779 23.7426 114.779 23.8836C114.779 24.0246 114.723 24.1599 114.624 24.2596C114.524 24.3593 114.39 24.4153 114.25 24.4153H111.637C111.35 24.3824 111.073 24.2896 110.825 24.1429C110.576 23.9962 110.36 23.7988 110.192 23.5635C109.971 23.2707 109.811 22.9355 109.723 22.5785C109.635 22.2215 109.62 21.8502 109.68 21.4873C109.786 20.8971 110.016 20.3365 110.356 19.8438C110.105 19.5125 109.927 19.1312 109.834 18.7253C109.742 18.3195 109.736 17.8985 109.817 17.4902C110.011 16.4502 110.762 15.7439 111.683 15.7439L114.25 15.7555Z" fill="black"/>
<path d="M43.6027 15.0434C43.2954 15.0434 43.0007 15.1661 42.7834 15.3844C42.5661 15.6027 42.444 15.8989 42.444 16.2076V23.6411C42.444 23.9522 42.567 24.2505 42.7859 24.4705C43.0049 24.6905 43.3018 24.814 43.6114 24.814C43.921 24.814 44.2179 24.6905 44.4369 24.4705C44.6558 24.2505 44.7788 23.9522 44.7788 23.6411V21.1051H47.2893C47.599 21.1051 47.8959 20.9815 48.1148 20.7615C48.3338 20.5416 48.4568 20.2432 48.4568 19.9321C48.4568 19.621 48.3338 19.3227 48.1148 19.1027C47.8959 18.8828 47.599 18.7592 47.2893 18.7592H44.7788V17.3893H47.2893C47.599 17.3893 47.8959 17.2657 48.1148 17.0458C48.3338 16.8258 48.4568 16.5274 48.4568 16.2164C48.4568 15.9053 48.3338 15.6069 48.1148 15.387C47.8959 15.167 47.599 15.0434 47.2893 15.0434H43.6027ZM47.2893 15.6993C47.4256 15.6993 47.5563 15.7536 47.6526 15.8504C47.7489 15.9472 47.803 16.0785 47.803 16.2154C47.803 16.3523 47.7489 16.4836 47.6526 16.5804C47.5563 16.6771 47.4256 16.7315 47.2893 16.7315H44.1222V19.417H47.2893C47.3568 19.417 47.4236 19.4303 47.4859 19.4563C47.5483 19.4822 47.6049 19.5202 47.6526 19.5681C47.7003 19.6161 47.7381 19.673 47.7639 19.7356C47.7898 19.7982 47.803 19.8653 47.803 19.9331C47.803 20.0009 47.7898 20.068 47.7639 20.1306C47.7381 20.1932 47.7003 20.2501 47.6526 20.2981C47.6049 20.346 47.5483 20.384 47.4859 20.4099C47.4236 20.4359 47.3568 20.4492 47.2893 20.4492H44.1222V23.6489C44.1222 23.7858 44.0681 23.917 43.9717 24.0138C43.8754 24.1106 43.7447 24.165 43.6085 24.165C43.4723 24.165 43.3416 24.1106 43.2453 24.0138C43.1489 23.917 43.0948 23.7858 43.0948 23.6489V16.2154C43.0948 16.1476 43.1081 16.0805 43.1339 16.0179C43.1597 15.9553 43.1976 15.8984 43.2453 15.8504C43.293 15.8025 43.3496 15.7645 43.4119 15.7385C43.4742 15.7126 43.541 15.6993 43.6085 15.6993H47.2893Z" fill="black"/>
<path d="M88.2923 15.22C88.0408 15.2196 87.7957 15.2999 87.5928 15.4493C87.3899 15.5987 87.2399 15.8093 87.1645 16.0505L84.8896 23.2821C84.7957 23.5827 84.8243 23.9083 84.9691 24.1877C85.114 24.4671 85.3632 24.6773 85.6621 24.7723C85.7776 24.8091 85.8981 24.8281 86.0193 24.8286C86.2709 24.8293 86.5162 24.7491 86.7191 24.5997C86.9221 24.4502 87.0721 24.2394 87.1471 23.9981L87.6782 22.3061H88.8717L89.3893 23.9904C89.435 24.1394 89.5096 24.278 89.6086 24.3981C89.7077 24.5182 89.8294 24.6175 89.9666 24.6904C90.1039 24.7633 90.2541 24.8083 90.4087 24.8229C90.5633 24.8374 90.7192 24.8212 90.8676 24.7752C91.0159 24.7292 91.1538 24.6543 91.2734 24.5548C91.3929 24.4553 91.4918 24.333 91.5643 24.1951C91.6369 24.0572 91.6817 23.9063 91.6961 23.7509C91.7106 23.5956 91.6945 23.439 91.6488 23.2899L89.4144 16.0563C89.341 15.8139 89.1918 15.6017 88.9891 15.4511C88.7863 15.3005 88.5406 15.2194 88.2885 15.22H88.2923ZM87.5623 20.4706H88.9798L88.2788 18.1907L87.5623 20.4706ZM88.2865 15.8758C88.3993 15.8761 88.509 15.9126 88.5997 15.98C88.6904 16.0474 88.7572 16.1421 88.7906 16.2503L91.0134 23.4839C91.034 23.5504 91.0414 23.6204 91.035 23.6897C91.0287 23.7591 91.0089 23.8265 90.9766 23.8882C90.9443 23.9498 90.9002 24.0044 90.8469 24.049C90.7935 24.0935 90.732 24.127 90.6658 24.1475C90.6153 24.1642 90.5625 24.1728 90.5093 24.1728C90.396 24.1727 90.2857 24.1361 90.1946 24.0684C90.1035 24.0006 90.0365 23.9052 90.0034 23.7963L89.3429 21.6503H87.1954L86.5176 23.8002C86.4836 23.9079 86.4165 24.002 86.326 24.069C86.2354 24.1359 86.126 24.1723 86.0135 24.1728C85.9592 24.1719 85.9052 24.1635 85.8532 24.1475C85.7196 24.1048 85.6083 24.0104 85.5439 23.8853C85.4794 23.7601 85.467 23.6144 85.5095 23.4801L87.7844 16.2484C87.8184 16.1407 87.8855 16.0465 87.9761 15.9796C88.0666 15.9126 88.176 15.8763 88.2885 15.8758H88.2865Z" fill="black"/>
<path d="M79.4319 4.11335C79.1806 4.11278 78.9357 4.19285 78.7328 4.34187C78.53 4.4909 78.3797 4.7011 78.3041 4.94187L76.0291 12.1755C75.9825 12.3243 75.9654 12.4809 75.979 12.6363C75.9926 12.7917 76.0365 12.943 76.1082 13.0813C76.1799 13.2197 76.2781 13.3425 76.3971 13.4428C76.516 13.5431 76.6535 13.6188 76.8016 13.6657C76.9497 13.7126 77.1056 13.7297 77.2602 13.7161C77.4149 13.7024 77.5654 13.6583 77.7032 13.5862C77.8409 13.5142 77.9631 13.4155 78.0629 13.296C78.1627 13.1765 78.2381 13.0383 78.2848 12.8895L78.8158 11.1995H80.0093L80.5269 12.8837C80.6001 13.1271 80.7497 13.3402 80.9533 13.4912C81.1568 13.6423 81.4035 13.7232 81.6566 13.7219C81.7752 13.7222 81.8932 13.7039 82.0062 13.6676C82.3037 13.5726 82.5519 13.3632 82.6965 13.0852C82.8412 12.8072 82.8707 12.483 82.7786 12.1833L80.5578 4.9574C80.4857 4.71356 80.3372 4.49965 80.1343 4.34754C79.9314 4.19544 79.685 4.11329 79.4319 4.11335ZM78.7057 9.37169H80.1252L79.4222 7.08984L78.7057 9.37169ZM79.4299 4.77695C79.5427 4.77726 79.6524 4.81376 79.7431 4.88112C79.8338 4.94849 79.9007 5.0432 79.934 5.15143L82.1587 12.3831C82.1998 12.5179 82.1861 12.6636 82.1206 12.7883C82.0551 12.913 81.9431 13.0066 81.8092 13.0486C81.7584 13.064 81.7057 13.0718 81.6527 13.0719C81.5397 13.072 81.4295 13.0357 81.3384 12.9683C81.2474 12.9009 81.1802 12.806 81.1468 12.6974L80.4863 10.5514H78.335L77.6571 12.7013C77.6236 12.8092 77.5566 12.9034 77.4659 12.9701C77.3752 13.0368 77.2655 13.0725 77.1531 13.0719C77.0993 13.0721 77.0458 13.0636 76.9947 13.0467C76.9283 13.0262 76.8666 12.9926 76.8132 12.9479C76.7598 12.9032 76.7157 12.8484 76.6836 12.7865C76.6514 12.7246 76.6318 12.6569 76.6259 12.5873C76.62 12.5177 76.6278 12.4477 76.649 12.3812L78.924 5.14755C78.958 5.04004 79.0252 4.94618 79.1158 4.87956C79.2064 4.81294 79.3157 4.777 79.428 4.77695H79.4299Z" fill="black"/>
<path d="M43.1411 30.6808L43.7089 32.1477L44.3037 30.5741L44.8714 32.1477L45.4759 30.6808H45.8332L44.8579 33.0092L44.2959 31.457L43.7166 33.0092L42.7896 30.6808H43.1411Z" fill="black"/>
<path d="M46.4356 31.5383H47.3761V30.6807H47.7006V32.8752H47.3703V31.8604H46.4298V32.8849H46.0996V30.6807H46.4298L46.4356 31.5383Z" fill="black"/>
<path d="M49.4387 30.9912H48.5639V31.5189H49.4136V31.8313H48.5639V32.5628H49.4387V32.8752H48.2336V30.6807H49.4387V30.9912Z" fill="black"/>
<path d="M50.6069 31.94L51.2828 32.8753H50.8811L50.2574 31.9769H50.1975V32.8753H49.8673V30.6808H50.2535C50.4745 30.6612 50.6955 30.7188 50.8792 30.8437C50.9485 30.9026 51.0036 30.9765 51.0404 31.0598C51.0772 31.1432 51.0947 31.2338 51.0916 31.3249C51.0953 31.4698 51.0481 31.6113 50.9584 31.7247C50.8714 31.8373 50.7464 31.9139 50.6069 31.94ZM50.1975 31.6878H50.3018C50.6146 31.6878 50.7711 31.5694 50.7711 31.3288C50.7711 31.0882 50.6185 30.9912 50.3153 30.9912H50.1975V31.6878Z" fill="black"/>
<path d="M52.8162 30.9912H51.9491V31.5189H52.7988V31.8313H51.9491V32.5628H52.8239V32.8752H51.6188V30.6807H52.8239L52.8162 30.9912Z" fill="black"/>
<path d="M54.4734 31.9845V32.8751H54.1432V30.6806H54.5178C54.6566 30.6764 54.7954 30.6895 54.9311 30.7194C55.0256 30.7445 55.1117 30.7948 55.1802 30.8649C55.243 30.9246 55.2927 30.997 55.326 31.0772C55.3592 31.1574 55.3754 31.2437 55.3733 31.3306C55.3781 31.4195 55.3632 31.5084 55.3298 31.5909C55.2965 31.6735 55.2454 31.7475 55.1802 31.8079C55.0269 31.9315 54.8338 31.9943 54.6376 31.9845H54.4734ZM54.4734 31.676H54.597C54.8983 31.676 55.0508 31.5596 55.0508 31.3267C55.0508 31.0939 54.8944 30.9852 54.5815 30.9852H54.4734V31.676Z" fill="black"/>
<path d="M56.9124 30.9912H56.0376V31.5189H56.8873V31.8313H56.0376V32.5628H56.9124V32.8752H55.7074V30.6807H56.9124V30.9912Z" fill="black"/>
<path d="M57.2368 31.7673C57.2354 31.6184 57.2647 31.4709 57.3229 31.334C57.3811 31.197 57.4668 31.0737 57.5747 30.9717C57.6804 30.8645 57.8065 30.7798 57.9456 30.7228C58.0846 30.6658 58.2337 30.6376 58.3839 30.6399C58.6846 30.6414 58.9725 30.7621 59.1852 30.9758C59.3978 31.1894 59.5179 31.4787 59.5194 31.7808C59.5217 31.9308 59.4931 32.0796 59.4352 32.2179C59.3774 32.3561 59.2916 32.4809 59.1834 32.5841C58.9738 32.7889 58.6949 32.9064 58.4027 32.9133C58.1104 32.9201 57.8264 32.8157 57.6075 32.621C57.4863 32.5155 57.3901 32.384 57.3259 32.2363C57.2617 32.0886 57.2313 31.9283 57.2368 31.7673ZM57.5689 31.7673C57.5644 31.9301 57.6087 32.0906 57.6961 32.2278C57.7835 32.3651 57.9099 32.4728 58.0589 32.537C58.2079 32.6012 58.3727 32.6189 58.5319 32.5879C58.6911 32.5569 58.8373 32.4785 58.9517 32.3629C59.0274 32.2865 59.0872 32.1956 59.1277 32.0957C59.1681 31.9957 59.1884 31.8887 59.1873 31.7808C59.1892 31.673 59.1695 31.5659 59.1293 31.4659C59.0892 31.3659 59.0294 31.275 58.9536 31.1987C58.8011 31.0458 58.5945 30.9598 58.3791 30.9598C58.1636 30.9598 57.957 31.0458 57.8045 31.1987C57.729 31.2733 57.6692 31.3625 57.6287 31.4608C57.5882 31.5592 57.5679 31.6647 57.5689 31.7711V31.7673Z" fill="black"/>
<path d="M60.265 31.9845V32.8751H59.9347V30.6806H60.3074C60.4469 30.6765 60.5863 30.6895 60.7226 30.7194C60.8172 30.7446 60.9032 30.7948 60.9718 30.8649C61.0346 30.9247 61.0842 30.997 61.1175 31.0772C61.1508 31.1574 61.1669 31.2438 61.1649 31.3306C61.17 31.4196 61.1554 31.5086 61.122 31.5912C61.0886 31.6738 61.0372 31.7478 60.9718 31.808C60.8191 31.9314 60.6267 31.9942 60.431 31.9845H60.265ZM60.265 31.676H60.3866C60.6898 31.676 60.8404 31.5596 60.8404 31.3267C60.8404 31.0939 60.686 30.9853 60.3731 30.9853H60.265V31.676Z" fill="black"/>
<path d="M61.8291 30.6807V32.5628H62.4703V32.8752H61.5047V30.6807H61.8291Z" fill="black"/>
<path d="M63.9882 30.9912H63.1134V31.5189H63.9631V31.8313H63.1134V32.5628H63.9882V32.8752H62.7832V30.6807H63.9882V30.9912Z" fill="black"/>
<path d="M66.9294 30.7991V31.1872C66.7677 31.0381 66.5578 30.9527 66.3384 30.9466C66.2321 30.9444 66.1266 30.9649 66.0287 31.0067C65.9308 31.0486 65.8429 31.1107 65.7707 31.1891C65.6948 31.2673 65.6352 31.3599 65.5954 31.4615C65.5556 31.5632 65.5364 31.6717 65.5389 31.7809C65.5363 31.8887 65.5555 31.9958 65.5953 32.0959C65.6352 32.1959 65.6948 32.2868 65.7707 32.363C65.844 32.4398 65.9322 32.5006 66.0299 32.5416C66.1275 32.5827 66.2326 32.6031 66.3384 32.6017C66.44 32.6046 66.5409 32.5847 66.6339 32.5435C66.6834 32.5232 66.7306 32.4979 66.7749 32.4678C66.8232 32.4348 66.8753 32.396 66.9294 32.3514V32.7511C66.7484 32.8555 66.5433 32.9103 66.3346 32.9102C66.1866 32.9115 66.0398 32.8832 65.9028 32.8271C65.7658 32.771 65.6412 32.6881 65.5363 32.5832C65.4314 32.4784 65.3482 32.3536 65.2917 32.2162C65.2351 32.0788 65.2062 31.9315 65.2068 31.7829C65.205 31.5087 65.3025 31.2432 65.481 31.0358C65.5875 30.9062 65.7219 30.8026 65.8742 30.7331C66.0264 30.6635 66.1925 30.6296 66.3597 30.6342C66.5609 30.6368 66.7576 30.6938 66.9294 30.7991Z" fill="black"/>
<path d="M67.2268 31.7673C67.2249 31.6183 67.2541 31.4707 67.3123 31.3337C67.3704 31.1967 67.4564 31.0734 67.5647 30.9717C67.6704 30.8645 67.7965 30.7798 67.9356 30.7228C68.0746 30.6658 68.2237 30.6376 68.3739 30.6399C68.6746 30.6414 68.9625 30.7621 69.1752 30.9758C69.3878 31.1894 69.5079 31.4787 69.5094 31.7808C69.5117 31.9308 69.4831 32.0796 69.4252 32.2179C69.3674 32.3561 69.2816 32.4809 69.1734 32.5841C68.9638 32.7889 68.6849 32.9064 68.3927 32.9133C68.1004 32.9201 67.8164 32.8157 67.5975 32.621C67.4763 32.5155 67.3801 32.384 67.3159 32.2363C67.2518 32.0886 67.2213 31.9283 67.2268 31.7673ZM67.5589 31.7673C67.5544 31.9301 67.5987 32.0906 67.6861 32.2278C67.7735 32.3651 67.8999 32.4728 68.0489 32.537C68.1979 32.6012 68.3627 32.6189 68.5219 32.5879C68.6811 32.5569 68.8273 32.4785 68.9417 32.3629C69.0174 32.2865 69.0772 32.1956 69.1177 32.0957C69.1581 31.9957 69.1784 31.8887 69.1773 31.7808C69.1792 31.673 69.1595 31.5659 69.1194 31.4659C69.0792 31.3659 69.0194 31.275 68.9436 31.1987C68.7911 31.0458 68.5845 30.9598 68.3691 30.9598C68.1536 30.9598 67.947 31.0458 67.7945 31.1987C67.719 31.2733 67.6592 31.3625 67.6187 31.4608C67.5782 31.5592 67.5579 31.6647 67.5589 31.7711V31.7673Z" fill="black"/>
<path d="M69.9247 32.8751V30.5311L71.518 32.2057V30.6805H71.8405V33.009L70.2492 31.3383V32.8751H69.9247Z" fill="black"/>
<path d="M72.3694 32.8751V30.5311L73.9626 32.2057V30.6805H74.2929V33.009L72.6997 31.3383V32.8751H72.3694Z" fill="black"/>
<path d="M76.0214 30.9912H75.1446V31.5189H75.9963V31.8313H75.1446V32.5628H76.0214V32.8752H74.8163V30.6807H76.0214V30.9912Z" fill="black"/>
<path d="M78.0666 31.187C77.9053 31.0373 77.6952 30.9518 77.4757 30.9464C77.3697 30.9444 77.2644 30.965 77.1669 31.0068C77.0694 31.0486 76.9818 31.1107 76.9098 31.1889C76.8334 31.2668 76.7733 31.3593 76.7331 31.461C76.693 31.5626 76.6736 31.6714 76.6762 31.7807C76.6735 31.8887 76.6928 31.996 76.733 32.0961C76.7732 32.1962 76.8334 32.287 76.9098 32.3628C76.9832 32.4396 77.0714 32.5004 77.1691 32.5414C77.2667 32.5825 77.3717 32.6029 77.4776 32.6015C77.5792 32.6044 77.6801 32.5845 77.7731 32.5433C77.8225 32.523 77.8698 32.4977 77.9141 32.4676C77.967 32.4316 78.0179 32.3927 78.0666 32.3512V32.7509C77.8863 32.8553 77.6818 32.9102 77.4737 32.91C77.3257 32.9113 77.1788 32.8831 77.0417 32.827C76.9046 32.7709 76.7798 32.688 76.6748 32.5832C76.5697 32.4783 76.4864 32.3536 76.4296 32.2162C76.3728 32.0788 76.3437 31.9314 76.344 31.7827C76.343 31.5083 76.4411 31.2428 76.6202 31.0356C76.7941 30.8303 77.0348 30.6934 77.2996 30.6494C77.5644 30.6053 77.8361 30.6569 78.0666 30.795V31.187Z" fill="black"/>
<path d="M79.0864 30.9912V32.8752H78.7562V30.9912H78.2541V30.6807H79.5866V30.9912H79.0864Z" fill="black"/>
<path d="M81.3767 30.9912V32.8752H81.0484V30.9912H80.5463V30.6807H81.8827V30.9912H81.3767Z" fill="black"/>
<path d="M81.9965 31.7673C81.9947 31.6183 82.0238 31.4707 82.082 31.3337C82.1402 31.1967 82.2262 31.0734 82.3345 30.9717C82.4402 30.8645 82.5663 30.7798 82.7054 30.7228C82.8444 30.6658 82.9935 30.6376 83.1437 30.6399C83.4444 30.6414 83.7323 30.7621 83.9449 30.9758C84.1576 31.1894 84.2777 31.4787 84.2792 31.7808C84.2815 31.9308 84.2529 32.0796 84.195 32.2179C84.1372 32.3561 84.0514 32.4809 83.9432 32.5841C83.7336 32.7889 83.4547 32.9064 83.1625 32.9133C82.8702 32.9201 82.5862 32.8157 82.3673 32.621C82.2461 32.5155 82.1499 32.384 82.0857 32.2363C82.0215 32.0886 81.9911 31.9283 81.9965 31.7673ZM82.3287 31.7673C82.3242 31.9301 82.3685 32.0906 82.4559 32.2278C82.5433 32.3651 82.6697 32.4728 82.8187 32.537C82.9677 32.6012 83.1325 32.6189 83.2917 32.5879C83.4509 32.5569 83.5971 32.4785 83.7114 32.3629C83.7872 32.2865 83.847 32.1956 83.8875 32.0957C83.9279 31.9957 83.9482 31.8887 83.9471 31.7808C83.949 31.673 83.9293 31.5659 83.8891 31.4659C83.849 31.3659 83.7892 31.275 83.7134 31.1987C83.6377 31.1215 83.5475 31.0602 83.4481 31.0184C83.3486 30.9765 83.2419 30.955 83.134 30.955C83.0262 30.955 82.9194 30.9765 82.82 31.0184C82.7205 31.0602 82.6303 31.1215 82.5547 31.1987C82.4808 31.2741 82.4228 31.3636 82.384 31.462C82.3452 31.5603 82.3264 31.6654 82.3287 31.7711V31.7673Z" fill="black"/>
<path d="M87.2011 30.799V31.1871C87.0398 31.0374 86.8297 30.9519 86.6102 30.9465C86.5039 30.9447 86.3984 30.9654 86.3006 31.0072C86.2028 31.0489 86.1148 31.1109 86.0424 31.189C85.9665 31.2672 85.9069 31.3598 85.8671 31.4614C85.8273 31.5631 85.8081 31.6716 85.8106 31.7808C85.808 31.8886 85.8272 31.9957 85.867 32.0958C85.9069 32.1958 85.9665 32.2867 86.0424 32.3629C86.1159 32.4399 86.2045 32.5008 86.3025 32.5419C86.4005 32.583 86.5059 32.6033 86.6121 32.6016C86.7137 32.6045 86.8146 32.5846 86.9076 32.5434C86.957 32.5231 87.0043 32.4978 87.0485 32.4677C87.1014 32.4317 87.1524 32.3928 87.2011 32.3513V32.751C87.0208 32.8554 86.8163 32.9103 86.6082 32.9101C86.4602 32.9114 86.3133 32.8832 86.1762 32.827C86.039 32.7709 85.9143 32.6881 85.8093 32.5832C85.7042 32.4784 85.6209 32.3537 85.5641 32.2163C85.5073 32.0789 85.4782 31.9315 85.4785 31.7828C85.4775 31.5084 85.5756 31.2429 85.7546 31.0357C85.861 30.906 85.9954 30.8024 86.1477 30.7328C86.3 30.6632 86.4661 30.6294 86.6333 30.6341C86.8339 30.6367 87.0301 30.6937 87.2011 30.799Z" fill="black"/>
<path d="M88.3578 31.94L89.0337 32.8753H88.6301L88.0063 31.9769H87.9465V32.8753H87.6182V30.6808H88.0044C88.2254 30.6612 88.4464 30.7188 88.6301 30.8437C88.6991 30.9027 88.754 30.9767 88.7904 31.06C88.8269 31.1434 88.844 31.234 88.8406 31.3249C88.844 31.4694 88.7976 31.6106 88.7093 31.7247C88.6215 31.8363 88.4968 31.9127 88.3578 31.94ZM87.9465 31.6878H88.0623C88.3732 31.6878 88.5297 31.5694 88.5297 31.3288C88.5297 31.0882 88.3771 30.9912 88.0739 30.9912H87.9561L87.9465 31.6878Z" fill="black"/>
<path d="M90.5731 30.9912H89.6983V31.5189H90.548V31.8313H89.6983V32.5628H90.5731V32.8752H89.368V30.6807H90.5731V30.9912Z" fill="black"/>
<path d="M92.2822 32.3416H91.3456L91.1022 32.8751H90.7469L91.8283 30.5467L92.8712 32.8751H92.5043L92.2822 32.3416ZM92.1489 32.0311L91.8245 31.2782L91.4846 32.0253L92.1489 32.0311Z" fill="black"/>
<path d="M93.6261 30.9912V32.8752H93.2959V30.9912H92.7938V30.6807H94.1263V30.9912H93.6261Z" fill="black"/>
<path d="M95.627 30.9912H94.7503V31.5189H95.5942V31.8313H94.7445V32.5628H95.6212V32.8752H94.4162V30.6807H95.6212L95.627 30.9912Z" fill="black"/>
<path d="M97.5561 30.9912V32.8752H97.2259V30.9912H96.7238V30.6807H98.0563V30.9912H97.5561Z" fill="black"/>
<path d="M98.1742 31.7673C98.1728 31.6184 98.2021 31.4709 98.2603 31.334C98.3185 31.1971 98.4042 31.0738 98.5121 30.9718C98.6178 30.8646 98.744 30.78 98.883 30.723C99.0221 30.666 99.1711 30.6377 99.3213 30.64C99.5453 30.6393 99.7645 30.7056 99.9509 30.8304C100.137 30.9552 100.283 31.1329 100.368 31.3409C100.454 31.5488 100.476 31.7777 100.432 31.9984C100.388 32.2191 100.28 32.4217 100.121 32.5803C99.9112 32.785 99.6323 32.9026 99.3401 32.9095C99.0478 32.9163 98.7638 32.8119 98.5449 32.6172C98.4242 32.5121 98.3283 32.3813 98.2641 32.2342C98.2 32.0872 98.1693 31.9277 98.1742 31.7673ZM98.5083 31.7673C98.5048 31.8788 98.5247 31.9897 98.5666 32.093C98.6085 32.1963 98.6715 32.2896 98.7516 32.3669C98.8262 32.442 98.9149 32.5016 99.0124 32.5423C99.11 32.583 99.2146 32.604 99.3203 32.604C99.426 32.604 99.5306 32.583 99.6282 32.5423C99.7258 32.5016 99.8144 32.442 99.889 32.3669C100.039 32.2079 100.123 31.9971 100.123 31.778C100.123 31.5588 100.039 31.3481 99.889 31.1891C99.8133 31.1121 99.723 31.051 99.6236 31.0093C99.5241 30.9676 99.4174 30.9461 99.3097 30.9461C99.2019 30.9461 99.0952 30.9676 98.9958 31.0093C98.8964 31.051 98.8061 31.1121 98.7303 31.1891C98.6559 31.2659 98.5979 31.3571 98.5597 31.4572C98.5215 31.5573 98.504 31.6641 98.5083 31.7712V31.7673Z" fill="black"/>
<path d="M100.797 32.8752L101.256 30.5158L102.006 32.2213L102.778 30.5158L103.191 32.8752H102.854L102.643 31.55L101.996 32.9761L101.368 31.548L101.133 32.8752H100.797Z" fill="black"/>
<path d="M103.549 31.7673C103.547 31.6183 103.576 31.4707 103.634 31.3337C103.692 31.1967 103.778 31.0734 103.887 30.9717C103.992 30.8645 104.118 30.7798 104.257 30.7228C104.397 30.6658 104.546 30.6376 104.696 30.6399C104.92 30.6393 105.139 30.7055 105.325 30.8303C105.512 30.9552 105.657 31.1328 105.743 31.3408C105.829 31.5488 105.851 31.7777 105.807 31.9984C105.763 32.2191 105.654 32.4216 105.495 32.5803C105.286 32.785 105.007 32.9026 104.715 32.9094C104.422 32.9162 104.138 32.8118 103.919 32.6171C103.799 32.512 103.703 32.3812 103.639 32.2342C103.574 32.0872 103.544 31.9277 103.549 31.7673ZM103.881 31.7673C103.876 31.9301 103.921 32.0906 104.008 32.2278C104.095 32.3651 104.222 32.4728 104.371 32.537C104.52 32.6012 104.685 32.6189 104.844 32.5879C105.003 32.5569 105.149 32.4785 105.264 32.3629C105.339 32.2865 105.399 32.1956 105.44 32.0957C105.48 31.9957 105.5 31.8887 105.499 31.7808C105.501 31.673 105.481 31.5659 105.441 31.4659C105.401 31.3659 105.341 31.275 105.265 31.1987C105.19 31.1215 105.1 31.0602 105 31.0184C104.901 30.9765 104.794 30.955 104.686 30.955C104.578 30.955 104.472 30.9765 104.372 31.0184C104.273 31.0602 104.182 31.1215 104.107 31.1987C104.033 31.2741 103.975 31.3636 103.936 31.462C103.897 31.5603 103.879 31.6654 103.881 31.7711V31.7673Z" fill="black"/>
<path d="M106.988 31.94L107.664 32.8753H107.258L106.635 31.9769H106.575V32.8753H106.246V30.6807H106.633C106.853 30.6617 107.073 30.7192 107.256 30.8437C107.326 30.9023 107.381 30.9761 107.418 31.0596C107.455 31.143 107.472 31.2337 107.469 31.3249C107.473 31.4697 107.425 31.6112 107.336 31.7246C107.25 31.8364 107.126 31.913 106.988 31.94ZM106.577 31.6878H106.683C106.994 31.6878 107.15 31.5694 107.15 31.3288C107.15 31.0882 106.998 30.9912 106.694 30.9912H106.577V31.6878Z" fill="black"/>
<path d="M108.726 31.94L109.402 32.8752H108.998L108.375 31.9769H108.315V32.8752H107.986V30.6807H108.373C108.593 30.6616 108.813 30.7192 108.996 30.8437C109.066 30.9023 109.121 30.9761 109.158 31.0595C109.195 31.1429 109.212 31.2337 109.209 31.3249C109.213 31.4697 109.165 31.6112 109.076 31.7246C108.989 31.8368 108.865 31.9134 108.726 31.94ZM108.315 31.6877H108.421C108.732 31.6877 108.888 31.5694 108.888 31.3288C108.888 31.0882 108.736 30.9912 108.433 30.9912H108.315V31.6877Z" fill="black"/>
<path d="M109.576 31.7673C109.574 31.6183 109.603 31.4707 109.661 31.3337C109.72 31.1967 109.806 31.0734 109.914 30.9717C110.019 30.8645 110.146 30.7798 110.285 30.7228C110.424 30.6658 110.573 30.6376 110.723 30.6399C111.024 30.6414 111.312 30.7621 111.524 30.9758C111.737 31.1894 111.857 31.4787 111.859 31.7808C111.861 31.9308 111.832 32.0796 111.774 32.2179C111.716 32.3561 111.631 32.4809 111.522 32.5841C111.313 32.7889 111.034 32.9064 110.742 32.9133C110.45 32.9201 110.165 32.8157 109.947 32.621C109.825 32.5155 109.729 32.384 109.665 32.2363C109.601 32.0886 109.57 31.9283 109.576 31.7673ZM109.908 31.7673C109.904 31.9301 109.948 32.0906 110.035 32.2278C110.123 32.3651 110.249 32.4728 110.398 32.537C110.547 32.6012 110.712 32.6189 110.871 32.5879C111.03 32.5569 111.176 32.4785 111.291 32.3629C111.366 32.2865 111.426 32.1956 111.467 32.0957C111.507 31.9957 111.527 31.8887 111.526 31.7808C111.528 31.673 111.509 31.5659 111.468 31.4659C111.428 31.3659 111.369 31.275 111.293 31.1987C111.14 31.0458 110.934 30.9598 110.718 30.9598C110.503 30.9598 110.296 31.0458 110.144 31.1987C110.067 31.2728 110.007 31.3618 109.967 31.4603C109.926 31.5588 109.906 31.6646 109.908 31.7711V31.7673Z" fill="black"/>
<path d="M112.287 30.6808L112.857 32.1477L113.45 30.5741L114.02 32.1477L114.624 30.6808H114.981L114.016 33.0092L113.454 31.457L112.874 33.0092L111.946 30.6808H112.287Z" fill="black"/>
</g>
<defs>
<clipPath id="clip0">
<rect width="119" height="35" fill="white"/>
</clipPath>
</defs>
</svg>
