<svg width="18" height="19" viewBox="0 0 18 19" fill="none" xmlns="http://www.w3.org/2000/svg">
<path fill-rule="evenodd" clip-rule="evenodd" d="M4.25482 9.64054C4.25482 9.81441 4.31862 9.98117 4.43219 10.1041C4.54575 10.2271 4.69978 10.2961 4.86038 10.2961L11.8764 10.2961L9.27611 13.11C9.2198 13.1709 9.17514 13.2433 9.14467 13.3229C9.1142 13.4026 9.09852 13.4879 9.09852 13.5741C9.09852 13.6603 9.1142 13.7457 9.14467 13.8253C9.17514 13.905 9.2198 13.9773 9.27611 14.0383C9.33241 14.0992 9.39925 14.1476 9.47281 14.1806C9.54637 14.2136 9.62522 14.2305 9.70484 14.2305C9.78446 14.2305 9.86331 14.2136 9.93687 14.1806C10.0104 14.1476 10.0773 14.0992 10.1336 14.0383L13.7669 10.1047C13.8233 10.0438 13.8681 9.97145 13.8986 9.89181C13.9291 9.81216 13.9448 9.72677 13.9448 9.64054C13.9448 9.5543 13.9291 9.46892 13.8986 9.38927C13.8681 9.30962 13.8233 9.23727 13.7669 9.17638L10.1336 5.2428C10.0199 5.1197 9.86565 5.05054 9.70484 5.05054C9.54403 5.05054 9.38981 5.1197 9.27611 5.2428C9.1624 5.3659 9.09852 5.53287 9.09852 5.70696C9.09852 5.88106 9.1624 6.04802 9.27611 6.17112L11.8764 8.98494L4.86038 8.98494C4.69978 8.98494 4.54575 9.05401 4.43219 9.17696C4.31862 9.29991 4.25482 9.46666 4.25482 9.64054Z" fill="white"/>
</svg>
