<?xml version="1.0" encoding="utf-8"?>
<!-- Generator: Adobe Illustrator 25.3.1, SVG Export Plug-In . SVG Version: 6.00 Build 0)  -->
<svg version="1.1" id="圖層_1" xmlns="http://www.w3.org/2000/svg" xmlns:xlink="http://www.w3.org/1999/xlink" x="0px" y="0px"
	 viewBox="0 0 119 35" style="enable-background:new 0 0 119 35;" xml:space="preserve">
<style type="text/css">
	.st0{clip-path:url(#SVGID_2_);}
	.st1{fill:#FFFFFF;}
</style>
<g>
	<defs>
		<rect id="SVGID_1_" width="119" height="35"/>
	</defs>
	<clipPath id="SVGID_2_">
		<use xlink:href="#SVGID_1_"  style="overflow:visible;"/>
	</clipPath>
	<g class="st0">
		<path class="st1" d="M115.4,29H42.1c0,0-0.1,0-0.1,0c0,0-0.1,0-0.1,0c0,0,0,0-0.1-0.1c0,0,0-0.1,0-0.1s0-0.1,0-0.1
			c0,0,0-0.1,0.1-0.1c0,0,0.1,0,0.1,0c0,0,0.1,0,0.1,0h73.3c0,0,0.1,0,0.1,0c0,0,0.1,0,0.1,0c0,0,0,0,0.1,0.1c0,0,0,0.1,0,0.1
			s0,0.1,0,0.1c0,0,0,0.1-0.1,0.1C115.6,29,115.6,29,115.4,29C115.5,29,115.5,29,115.4,29z"/>
		<path class="st1" d="M115.4,35H42.1c0,0-0.1,0-0.1,0c0,0-0.1,0-0.1,0s0,0-0.1-0.1c0,0,0-0.1,0-0.1c0,0,0-0.1,0-0.1
			c0,0,0-0.1,0.1-0.1c0,0,0.1,0,0.1,0c0,0,0.1,0,0.1,0h73.3c0,0,0.1,0,0.1,0s0.1,0,0.1,0c0,0,0,0,0.1,0.1c0,0,0,0.1,0,0.1
			c0,0,0,0.1,0,0.1c0,0,0,0.1-0.1,0.1C115.6,35,115.6,35,115.4,35C115.5,35,115.5,35,115.4,35z"/>
		<path class="st1" d="M13.9,7.3l-0.2,0.4l6.8,4l0.2-0.4L13.9,7.3z M14.3,6.5l-0.2,0.4l7,3.9l0.2-0.4L14.3,6.5z M14.7,5.8l-0.2,0.4
			l7.1,3.7l0.2-0.4L14.7,5.8z M15.2,5L15,5.4l7.1,3.7l0.2-0.4L15.2,5z M15.7,4.2l-0.2,0.4l7.1,3.7l0.2-0.4L15.7,4.2z M16.2,3.3
			L16,3.7l7.2,3.7L23.4,7L16.2,3.3z"/>
		<path class="st1" d="M11.6,10.9l0.1,0.7l5-8.8l-0.4-0.2L11.6,10.9z M11.5,9.1l0.1,0.7l4.5-8l-0.4-0.2L11.5,9.1z M11.3,7.5l0.1,0.7
			l4.1-7.3l-0.4-0.2L11.3,7.5z M13.3,0L11,4.2L11,4.9L13.8,0L13.3,0z M14.4,0l-3.2,6.1l0.1,0.7L14.8,0H14.4z"/>
		<path class="st1" d="M3.5,3.3l7.9,0l0.2-0.4l-8.1,0L3.5,3.3z M2.1,2.1v0.4l9.8-0.1l0.2-0.4L2.1,2.1z M0.4,1.2v0.4l12,0l0.2-0.4
			L0.4,1.2z M0.6,0.7l12.3,0l0.2-0.4l-12.6,0L0.6,0.7z"/>
		<path class="st1" d="M14.5,0l2.3,3.6L17.5,4L15,0H14.5z M15.5,0l2.8,4.3L19,4.7L16,0H15.5z M16.6,0l3,5.1l0.7,0.4L17.1,0H16.6z
			 M17.6,0l3.4,5.8l0.7,0.4L18.1,0H17.6z M18.7,0l3.9,6.6l0.7,0.3L19.2,0H18.7z"/>
		<path class="st1" d="M22.8,6.1L23,6.5l8.1,0.1V6.2L22.8,6.1z M22.1,5l0.2,0.4l9.2,0.1V5.1L22.1,5z M21.5,3.9l0.2,0.4l10.2,0.2V4
			L21.5,3.9z M20.9,2.8l0.2,0.4l10.8,0.2V3L20.9,2.8z M20.2,1.6l0.2,0.4l10.8,0.2l0-0.4L20.2,1.6z"/>
		<path class="st1" d="M19.2,0l0.6,1l0.9,0.7l0.7,0L19.2,0z M20,0l2.2,1.7l0.7,0L20.6,0H20z M21.4,0l2.1,1.7l0.7,0L22,0H21.4z
			 M22.8,0l2,1.7l0.7,0L23.5,0L22.8,0z M24.3,0l2.1,1.8l0.7,0L25,0H24.3z M25.9,0l2.3,1.8l0.7,0L26.6,0H25.9z"/>
		<path class="st1" d="M27,0l-0.3,0.1l0.4,0.3L28.5,0H27z M30.3,0l-2.7,0.8L28,1.1L31.7,0H30.3z M33.5,0l-5,1.6l0.3,0.2h0.3L34.9,0
			H33.5z"/>
		<path class="st1" d="M30.1,21.9l0.2,0.5L35.8,9l-0.4-0.2L30.1,21.9z M29.7,20.5l0,0.3l0.2,0.4L35.1,8l-0.4-0.2L29.7,20.5z
			 M29.8,17.7l0,1.2l4.7-12L34,6.7L29.8,17.7z M29.9,14.6l0,1.2L33.9,6l-0.4-0.2L29.9,14.6z M30,11.9l-0.1,1.3l3.2-8.3l-0.4-0.2
			L30,11.9z M30.1,8.8L30,10.2l2.3-6.5L32,3.5L30.1,8.8z"/>
		<path class="st1" d="M30.5,1.4l5.3,8.3V9l-4.9-7.7L30.5,1.4z M31.5,1.1l4.4,6.9V7.2L31.9,1L31.5,1.1z M32.5,0.8l3.4,5.1V5.1
			l-3-4.5L32.5,0.8z M33.5,0.4l2.3,3.7V3.4l-1.9-3L33.5,0.4z M34.9,0l-0.4,0.1l1.4,2.1V1.5L34.9,0L34.9,0z M35.4,0l0.5,0.7V0L35.4,0
			z"/>
		<path class="st1" d="M30.7,21.4l2.4,8.4l0.4-0.1L31,20.8L30.7,21.4z M31.4,19.9l3.1,10.4l0.4-0.1l-3.2-10.9L31.4,19.9z M32.3,18
			l3.3,12.6l0.3-0.1v-0.2l-3.2-12.4L32.3,18z M33.4,17.5l2.5,10v-1.7l-2.1-8.4L33.4,17.5z M34.5,16.9l1.4,6v-1.8l-1-4.3L34.5,16.9z
			 M35.6,16.3l0.3,1.4v-1.5L35.6,16.3z"/>
		<path class="st1" d="M32.2,17.9l-0.2,0.6l3.9-2V16L32.2,17.9z M32.7,16.5l-0.2,0.6l3.4-1.8v-0.5L32.7,16.5z M33.3,15.1L33,15.7
			l2.8-1.5v-0.5L33.3,15.1z M33.9,13.6l-0.2,0.6l2.2-1.2v-0.5L33.9,13.6z M34.6,12l-0.2,0.6l1.5-0.8v-0.5L34.6,12z M35.1,10.6
			l-0.2,0.6l1-0.5v-0.5L35.1,10.6z"/>
		<path class="st1" d="M6.4,12.5l-0.7,6.1l0.5-0.5l0.4-3.8L6.4,12.5z M5.9,10.8l-1.5,9.3l0.5-0.6L6.3,11l0-0.2L5.9,10.8z M5.1,10.3
			l-1.8,11l0.3,0.1l-0.2-0.2l0.4-0.4l1.7-10.4L5.1,10.3z M4.3,9.8l-2,11l0.4,0.1l2-11L4.3,9.8z M3.4,9.2L1.6,20.3L2,20.4L3.8,9.2
			L3.4,9.2z M2.4,8.5L0.9,19.8l0.4,0.1L2.8,8.6L2.4,8.5z"/>
		<path class="st1" d="M0.7,0L0,0.8v0.4l0.1,0.1L1.2,0H0.7z"/>
		<path class="st1" d="M0,32.2v0.6l1.7,2h0.5L0,32.2L0,32.2z M0.2,31.4l2.9,3.4h0.5l-3.1-3.6L0.2,31.4z M0.6,30.4l3.9,4.3h0.6
			l-4.1-4.6L0.6,30.4z M1.1,29.4l4.8,5.4h0.5l-5-5.7L1.1,29.4z M1.6,28.5l5.7,6.3l0.3-0.3l-5.7-6.3L1.6,28.5z M2,27.6l5.7,6.2
			L8,33.5l-5.7-6.2L2,27.6z"/>
		<path class="st1" d="M19.8,27l3.7,6.1l0.5,0l-3.6-6L19.8,27z M18.5,26.7l3.7,6.3l0.5,0L19,26.8L18.5,26.7z M16.9,26.3l4,6.5l0.5,0
			l-3.9-6.5L16.9,26.3z M15.4,26l4.3,6.8l0.5,0L16,26.1L15.4,26z M14.1,25.7l4.4,7l0.5,0l-4.4-6.9L14.1,25.7z M12.6,25.3l4.8,7.3
			l0.5,0l-4.7-7.2L12.6,25.3z M11.2,25l4.8,7.5l0.5,0l-4.7-7.4L11.2,25z"/>
		<path class="st1" d="M24.4,32.6l7.1,2.4h1.3l-7.8-2.6L24.4,32.6z M25.9,31.9l9,3h1v-0.1l-9.4-3.2L25.9,31.9z M27.4,31.3l8.4,2.9
			v-0.4L28,31L27.4,31.3z M28.9,30.6l7,2.4v-0.4l-6.4-2.2L28.9,30.6z M30.1,30.1l5.7,1.9v-0.4l-5.1-1.7L30.1,30.1z M31.4,29.5
			l4.4,1.5v-0.4L32,29.3L31.4,29.5z"/>
		<path class="st1" d="M15.4,17.7l-6.3,7.2l0.3,0.3l6.3-7.2L15.4,17.7z M15.1,16.6l-6.9,7.7l0.3,0.3l6.9-7.7L15.1,16.6z M14.7,15.4
			l-7.4,8.4l0.3,0.3l7.4-8.4L14.7,15.4z M14.3,14.2l-8,9l0.3,0.3l8-9L14.3,14.2z M14,13l-8.7,9.6l0.3,0.3l8.6-9.6L14,13z M13.5,11.9
			L4.3,22l0.3,0.3l9.2-10.1L13.5,11.9z M13.2,10.6L3.4,21.4l0.3,0.3l9.8-10.8L13.2,10.6z"/>
		<path class="st1" d="M19.7,11l-0.4,0.1l1.8,6.2l0.4-0.1L19.7,11z M18.2,10.2l-0.4,0.1l2.1,7.3l0.4-0.1L18.2,10.2z M16.8,9.3
			l-0.4,0.1l2.5,8.4l0.4-0.1L16.8,9.3z M13.1,9.2l-0.4,0.1l2.9,9.3l0.4-0.1L13.1,9.2z M15.3,8.4l-0.4,0.1L18,18l0.4-0.1L15.3,8.4z
			 M13.8,7.8L13.5,8l3.4,10.3l0.4-0.1L13.8,7.8z"/>
		<path class="st1" d="M24.3,20.6l-13.2,2.7l-0.5,0.5L24.4,21L24.3,20.6z M23.9,19.6L12.2,22l-0.5,0.5L24,20L23.9,19.6z M23.5,18.6
			l-10.2,2.2l-0.5,0.5L23.6,19L23.5,18.6z M23.2,17.7l-8.8,1.9l-0.5,0.5l9.4-2L23.2,17.7z M22.8,16.7l-7.4,1.7l-0.5,0.5l8-1.8
			L22.8,16.7z"/>
		<path class="st1" d="M9.9,3.3l-0.4,0l0.9,10.3l0.4-0.4L9.9,3.3z M6.8,3.3l-0.4,0l1.3,13.3l0.4-0.4L6.8,3.3z M10.8,3.3l-0.4,0
			l0.9,9.2l0.4-0.4L10.8,3.3z M8.9,3.3l-0.4,0l1,11.4l0.4-0.4L8.9,3.3z M7.8,3.3l-0.4,0l1.2,12.3L9,15.2L7.8,3.3z M5.9,3.3l-0.4,0
			l1.5,14.2l0.4-0.4L5.9,3.3z"/>
		<path class="st1" d="M10.2,24.3l-0.3,0.4l12.9,3l0.1-0.4L10.2,24.3z M11.9,23.6L11,23.8l13.2,3.3l0.1-0.4L11.9,23.6z M14.1,23.1
			l-1,0.2l12.6,3.1l0.1-0.4L14.1,23.1z M16.4,22.7l-0.9,0.2l10.4,2.5L26,25L16.4,22.7z M18.6,22.2l-1,0.2l7.8,1.7l0.1-0.4L18.6,22.2
			z M21,21.7L20,22l5.1,1l0.1-0.4L21,21.7z M23.4,21.3l-1,0.2l2.3,0.5l0.1-0.4L23.4,21.3z"/>
		<path class="st1" d="M28.6,6.4l-6.7,10.5l0.6-0.1L29,6.6L28.6,6.4z M27.4,6.4l-6.2,10l0.2,0.5l6.4-10.3L27.4,6.4z M26.2,6.4
			l-5.3,8.7l0.2,0.5l5.5-9L26.2,6.4z M25,6.3l-4.5,7.5l0.2,0.5l4.7-7.8L25,6.3z M23.9,6.3l-3.8,6.2l0.2,0.5l4-6.5L23.9,6.3z"/>
		<path class="st1" d="M22.8,16.2l-0.3,0.4l3.6,9.5l0.4-0.1L22.8,16.2z M23.3,15.4l-0.3,0.4l4,9.9l0.4-0.2L23.3,15.4z M23.8,14.6
			L23.6,15L28,25.4l0.4-0.2L23.8,14.6z M24.4,13.7l-0.3,0.4L28.9,25l0.4-0.2L24.4,13.7z M25,12.8l-0.3,0.4l5,11.4l0.4-0.2L25,12.8z
			 M25.6,11.9l-0.3,0.4l5.3,11.9L31,24L25.6,11.9z"/>
		<path class="st1" d="M26.4,10.6l-0.4,0.7l-0.1,1.2l0.4,0.8L26.4,10.6z M27.2,9.3L26.8,10l-0.1,4.4l0.4,0.9L27.2,9.3z M28.1,8
			l-0.4,0.7l-0.1,7.6l0.4,0.9L28.1,8z M29.8,6.4l-0.5,13.7l0.4,0.9l0.6-14.5L29.8,6.4z M28.8,6.4L29,6.5L28.7,7l-0.4,11.2l0.4,0.9
			l0.4-12.6L28.8,6.4z"/>
		<path class="st1" d="M13.8,34.9l0.7,0h8.6l-9.3-0.4L13.8,34.9z M14.4,33.8l11.8,0.8l0-0.4l-11.8-0.8L14.4,33.8z M14.9,32.7
			l10.8,0.9l0-0.4l-10.8-0.9L14.9,32.7z"/>
		<path class="st1" d="M32.7,28.5l-9.3,4l0.2,0.4l9.3-4L32.7,28.5z M32.4,27.5l-9.6,4.1L23,32l9.5-4.1L32.4,27.5z M32.2,26.6
			l-9.8,4.1l0.2,0.4l9.8-4L32.2,26.6z M31.9,25.6l-10.1,4.2l0.2,0.4L32,26L31.9,25.6z M31.6,24.7L21.3,29l0.2,0.4l10.3-4.3
			L31.6,24.7z M31.3,23.7l-10.5,4.4l0.2,0.4l10.5-4.4L31.3,23.7z"/>
		<path class="st1" d="M8.1,32.8l-1,2.1h0.4l1.1-2.3L8.1,32.8z M9.4,32.4L8.3,35h0.4l1.2-2.7L9.4,32.4z M10.6,32.1L9.3,35h0.4
			l1.3-3.1L10.6,32.1z M11.8,31.7L10.4,35h0.4l1.5-3.4L11.8,31.7z M13.5,35h0.5l1.6-3.2l-0.3-0.4L13.5,35z M13,31.3L11.4,35h0.4
			l1.6-3.8L13,31.3z M14.3,30.9l-1.8,4h0.4l1.9-4.2L14.3,30.9z"/>
		<path class="st1" d="M14.7,30.4l-7.6,2.3l0.3,0.3l7.5-2.3L14.7,30.4z M14.1,29.4l-7.8,2.4l0.3,0.3l7.8-2.3L14.1,29.4z M13.4,28.5
			l-8,2.4l0.3,0.3l8-2.4L13.4,28.5z M12.8,27.5l-8.3,2.5l0.3,0.3l8.2-2.5L12.8,27.5z M12.1,26.4L3.6,29L4,29.3l8.4-2.6L12.1,26.4z
			 M11.4,25.3L2.8,28l0.3,0.3l8.6-2.7L11.4,25.3z"/>
		<path class="st1" d="M0,25.7l3.5,2.1L4,27.7l-4-2.5V25.7z M0,24.5l4.7,3l0.5-0.2L0,24V24.5z M0,23.4l5.9,3.7l0.5-0.2l-6.4-4V23.4z
			 M0,22.2l7.3,4.5l0.5-0.2L0,21.7V22.2z M0,21l8.6,5.2L9.1,26L0,20.5V21z M0,19.7l10,6l0.5-0.2L0,19.3V19.7z"/>
		<path class="st1" d="M0,7.3l6.3,4.1l-0.1-0.5L0,6.8V7.3z M0,6.2l6.2,3.9l0-0.5L0,5.7V6.2z M0,5l6,3.7L6,8.2L0,4.5V5z M0,4l5.9,3.4
			L5.8,6.8L0,3.5V4z M0,2.8l5.8,3.3L5.7,5.6L0,2.3V2.8z M0,1.7l5.6,3.1l0-0.5L0,1.2V1.7z"/>
		<path class="st1" d="M0,31.7v1l2.5-5.5L2.2,27L0,31.7z M0,29.4v1l1.7-3.7l-0.4-0.2L0,29.4z M0,27v1l0.8-1.8L0.5,26L0,27z"/>
		<path class="st1" d="M31.2,35h0.3l-0.3-0.1L31.2,35z M30,35h0.5l-0.3-0.4l-0.6-0.2L30,35z M28.7,35h0.5l-0.6-1L28,33.8L28.7,35z
			 M27.6,35H28l-0.8-1.4l-0.6-0.2L27.6,35z M26.3,35h0.5l-1.1-2l-0.6-0.2L26.3,35z"/>
		<path class="st1" d="M1.8,13.3l0.4-2.8V8.7L1.8,8.5L1.8,13.3z M1,19l0.4-2.5L1.2,8.1L0.8,7.8L1,19z M0,14.8l0.1,4.5l0.4,0.3
			L0.2,7.4L0,7.3V14.8z"/>
		<path class="st1" d="M0,34.6V35h0.4l1.2-0.2l-0.3-0.4L0,34.6z M0,33.8v0.4l0.9-0.1l-0.3-0.4L0,33.8z"/>
		<path class="st1" d="M102.7,2.3c-0.3,0-0.5,0.1-0.7,0.1c-0.4,0.2-0.7,0.4-0.9,0.8c-0.2,0.4-0.3,0.8-0.2,1.2c0.1,0.5,0.3,1,0.6,1.3
			v6.7c0,0.3,0.1,0.6,0.4,0.8c0.2,0.2,0.5,0.3,0.8,0.3c0.3,0,0.6-0.1,0.8-0.3c0.2-0.2,0.4-0.5,0.4-0.8V9.6L106,13
			c0.1,0.2,0.3,0.3,0.4,0.4c0.2,0.1,0.4,0.2,0.6,0.2c0.1,0,0.2,0,0.3,0c0.2-0.1,0.5-0.2,0.6-0.4c0.2-0.2,0.2-0.5,0.2-0.7V5.2
			c0-0.3-0.1-0.6-0.4-0.8c-0.2-0.2-0.5-0.3-0.8-0.3s-0.6,0.1-0.8,0.3c-0.2,0.2-0.3,0.5-0.4,0.8v3l-1.6-2.7c0.7-1.1,0.4-1.9,0-2.4
			c-0.2-0.2-0.4-0.4-0.7-0.6C103.3,2.3,103,2.3,102.7,2.3z M102.7,4.5c0.1-0.3,0.1-0.4,0.1-0.4c0,0,0,0-0.1,0c0,0,0,0-0.1,0
			c0,0-0.1,0-0.1,0c0,0,0,0,0,0.1C102.6,4.2,102.7,4.4,102.7,4.5z M102.7,2.9c0.2,0,0.4,0,0.5,0.1c0.2,0.1,0.3,0.2,0.4,0.4
			c0.4,0.5,0.3,1.2-0.3,2c0.5,0.9,2.1,3.4,3.1,5.1V5.2c0-0.1,0.1-0.3,0.2-0.4c0.1-0.1,0.2-0.2,0.4-0.2c0.1,0,0.3,0.1,0.4,0.2
			c0.1,0.1,0.2,0.2,0.2,0.4v7.2c0,0.1,0,0.2-0.1,0.3c-0.1,0.1-0.2,0.2-0.3,0.2c-0.1,0-0.2,0-0.3,0c-0.1,0-0.2-0.1-0.3-0.2l-3.3-5.5
			v5.2c0,0.1-0.1,0.3-0.2,0.4c-0.1,0.1-0.2,0.2-0.4,0.2c-0.1,0-0.3-0.1-0.4-0.2c-0.1-0.1-0.2-0.2-0.2-0.4V5.5c0-0.1-0.1-0.1-0.1-0.2
			c-0.3-0.3-0.4-0.7-0.5-1c0-0.3,0-0.5,0.1-0.7c0.1-0.2,0.3-0.4,0.6-0.5C102.4,3,102.5,2.9,102.7,2.9z"/>
		<path class="st1" d="M93.2,13.7c-0.3,0-0.5,0-0.7,0.1c-0.4,0.2-0.7,0.4-0.9,0.8c-0.2,0.4-0.3,0.8-0.2,1.2c0.1,0.5,0.3,1,0.6,1.3
			v6.7c0,0.3,0.1,0.6,0.3,0.8c0.2,0.2,0.5,0.3,0.8,0.3c0.3,0,0.6-0.1,0.8-0.3c0.2-0.2,0.3-0.5,0.3-0.8v-2.8l2.1,3.4
			c0.1,0.2,0.3,0.4,0.6,0.5c0.2,0.1,0.5,0.1,0.8,0c0.2-0.1,0.5-0.2,0.6-0.4c0.2-0.2,0.2-0.5,0.2-0.7v-7.2c0-0.3-0.1-0.6-0.4-0.8
			c-0.2-0.2-0.5-0.3-0.8-0.3c-0.3,0-0.6,0.1-0.8,0.3c-0.2,0.2-0.4,0.5-0.4,0.8v3l-1.6-2.7c0.7-1.1,0.4-1.9,0-2.4
			c-0.2-0.2-0.4-0.4-0.7-0.6C93.8,13.8,93.5,13.7,93.2,13.7z M93.3,15.9c0.1-0.3,0.1-0.4,0.1-0.4c0,0,0,0-0.1,0c0,0,0,0-0.1,0
			c0,0-0.1,0-0.1,0c0,0,0,0,0,0.1C93.1,15.7,93.2,15.8,93.3,15.9z M93.2,14.4c0.2,0,0.4,0,0.5,0.1c0.2,0.1,0.3,0.2,0.4,0.4
			c0.4,0.5,0.3,1.2-0.3,2c0.5,0.9,2.1,3.4,3.1,5.1v-5.3c0-0.1,0.1-0.3,0.2-0.4c0.1-0.1,0.2-0.2,0.4-0.2c0.1,0,0.3,0.1,0.4,0.2
			c0.1,0.1,0.2,0.2,0.2,0.4v7.2c0,0.1,0,0.2-0.1,0.3c-0.1,0.1-0.2,0.2-0.3,0.2c-0.1,0-0.2,0-0.3,0c-0.1,0-0.2-0.1-0.3-0.2l-3.3-5.5
			v5.2c0,0.1-0.1,0.3-0.2,0.4c-0.1,0.1-0.2,0.2-0.4,0.2c-0.1,0-0.3-0.1-0.4-0.2c-0.1-0.1-0.2-0.2-0.2-0.4V17c0-0.1-0.1-0.1-0.1-0.2
			c-0.3-0.3-0.4-0.7-0.5-1c0-0.3,0-0.5,0.1-0.7c0.1-0.2,0.3-0.4,0.6-0.5C92.9,14.4,93.1,14.4,93.2,14.4"/>
		<path class="st1" d="M55.2,2.3c-0.3,0-0.5,0.1-0.7,0.1c-0.4,0.2-0.7,0.4-0.9,0.8c-0.2,0.4-0.3,0.8-0.2,1.2c0.1,0.5,0.3,1,0.6,1.3
			v6.7c0,0.3,0.1,0.6,0.3,0.8c0.2,0.2,0.5,0.3,0.8,0.3c0.3,0,0.6-0.1,0.8-0.3c0.2-0.2,0.3-0.5,0.3-0.8V9.6l2.1,3.4
			c0.1,0.2,0.3,0.3,0.4,0.4c0.2,0.1,0.4,0.2,0.6,0.2c0.1,0,0.2,0,0.3,0c0.2-0.1,0.5-0.2,0.6-0.4c0.2-0.2,0.2-0.5,0.2-0.7V5.2
			c0-0.3-0.1-0.6-0.4-0.8c-0.2-0.2-0.5-0.3-0.8-0.3c-0.3,0-0.6,0.1-0.8,0.3c-0.2,0.2-0.4,0.5-0.4,0.8v3l-1.6-2.7
			c0.7-1.1,0.4-1.9,0-2.4c-0.2-0.2-0.4-0.4-0.7-0.6C55.8,2.3,55.5,2.3,55.2,2.3z M55.2,4.5c0.1-0.3,0.1-0.4,0.1-0.4c0,0,0,0-0.1,0
			s0,0-0.1,0c0,0-0.1,0-0.1,0c0,0,0,0,0,0.1C55.1,4.2,55.2,4.4,55.2,4.5z M55.2,2.9c0.2,0,0.4,0,0.5,0.1c0.2,0.1,0.3,0.2,0.4,0.4
			c0.4,0.5,0.3,1.2-0.3,2l3.1,5.1V5.2c0-0.1,0.1-0.3,0.2-0.4c0.1-0.1,0.2-0.2,0.4-0.2c0.1,0,0.3,0.1,0.4,0.2C60,4.9,60,5.1,60,5.2
			v7.2c0,0.1,0,0.2-0.1,0.3c-0.1,0.1-0.2,0.2-0.3,0.2c-0.1,0-0.2,0-0.3,0c-0.1,0-0.2-0.1-0.3-0.2l-3.3-5.5v5.2
			c0,0.1-0.1,0.3-0.2,0.4c-0.1,0.1-0.2,0.2-0.4,0.2c-0.1,0-0.3-0.1-0.4-0.2c-0.1-0.1-0.2-0.2-0.2-0.4V5.5c0-0.1-0.1-0.1-0.1-0.2
			c-0.3-0.3-0.4-0.7-0.5-1c0-0.3,0-0.5,0.1-0.7s0.3-0.4,0.6-0.5C54.9,3,55,2.9,55.2,2.9"/>
		<path class="st1" d="M47.5,2.3c-0.3,0-0.5,0.1-0.7,0.1c-0.4,0.2-0.7,0.4-0.9,0.8c-0.2,0.4-0.3,0.8-0.2,1.2c0.1,0.5,0.3,1,0.6,1.3
			v6.7c0,0.3,0.1,0.6,0.4,0.8c0.2,0.2,0.5,0.3,0.8,0.3c0.3,0,0.6-0.1,0.8-0.3c0.2-0.2,0.4-0.5,0.4-0.8V9.6c1,1.7,2.1,3.4,2.1,3.4
			c0.1,0.2,0.3,0.3,0.4,0.4c0.2,0.1,0.4,0.2,0.6,0.2c0.3,0,0.6-0.1,0.8-0.3c0.2-0.2,0.3-0.5,0.3-0.8V5.2c0-0.3-0.1-0.6-0.3-0.8
			C52.4,4.1,52.1,4,51.8,4c-0.3,0-0.6,0.1-0.8,0.3c-0.2,0.2-0.3,0.5-0.3,0.8v3L49,5.4c0.7-1.1,0.4-1.9,0-2.4
			c-0.2-0.2-0.4-0.4-0.7-0.6C48.1,2.3,47.8,2.3,47.5,2.3z M47.6,4.5c0.1-0.3,0.1-0.4,0.1-0.4c0,0,0,0-0.1,0c0,0,0,0-0.1,0
			c0,0-0.1,0-0.1,0c0,0,0,0,0,0.1C47.4,4.2,47.5,4.4,47.6,4.5z M47.5,2.9c0.2,0,0.4,0,0.5,0.1c0.2,0.1,0.3,0.2,0.4,0.4
			c0.4,0.5,0.3,1.2-0.3,2l3.1,5.1V5.2c0-0.1,0.1-0.3,0.2-0.4c0.1-0.1,0.2-0.2,0.4-0.2c0.1,0,0.3,0.1,0.4,0.2
			c0.1,0.1,0.2,0.2,0.2,0.4v7.2c0,0.1,0,0.2-0.1,0.3c-0.1,0.1-0.2,0.2-0.3,0.2c-0.1,0-0.2,0-0.3,0c-0.1,0-0.2-0.1-0.3-0.2l-3.3-5.5
			v5.2c0,0.1-0.1,0.3-0.2,0.4c-0.1,0.1-0.2,0.2-0.4,0.2c-0.1,0-0.3-0.1-0.4-0.2c-0.1-0.1-0.2-0.2-0.2-0.4V5.5c0-0.1-0.1-0.1-0.1-0.2
			c-0.3-0.3-0.4-0.7-0.5-1c0-0.3,0-0.5,0.1-0.7C46.6,3.3,46.8,3.1,47,3C47.2,3,47.3,2.9,47.5,2.9"/>
		<path class="st1" d="M66,11.6c-0.5,0-1-0.1-1.4-0.4c-0.4-0.3-0.7-0.7-0.9-1.1c-0.2-0.5-0.2-1-0.1-1.5s0.3-0.9,0.7-1.3
			c0.4-0.4,0.8-0.6,1.3-0.7s1,0,1.5,0.1c0.5,0.2,0.9,0.5,1.1,0.9c0.3,0.4,0.4,0.9,0.4,1.4c0,0.7-0.3,1.3-0.7,1.8
			C67.3,11.3,66.6,11.6,66,11.6z M66,4.2c-1,0-1.9,0.3-2.7,0.8c-0.8,0.5-1.4,1.3-1.8,2.2C61.1,8.1,61,9.1,61.2,10
			c0.2,0.9,0.7,1.8,1.3,2.5c0.7,0.7,1.5,1.2,2.5,1.3c0.9,0.2,1.9,0.1,2.8-0.3c0.9-0.4,1.7-1,2.2-1.8c0.5-0.8,0.8-1.8,0.8-2.7
			c0-1.3-0.5-2.5-1.4-3.5C68.5,4.7,67.3,4.2,66,4.2z M66,12.2c0.6,0,1.2-0.2,1.8-0.5c0.5-0.3,0.9-0.8,1.2-1.4
			c0.2-0.6,0.3-1.2,0.2-1.8c-0.1-0.6-0.4-1.2-0.9-1.6c-0.4-0.4-1-0.7-1.6-0.9c-0.6-0.1-1.2-0.1-1.8,0.2c-0.6,0.2-1.1,0.6-1.4,1.2
			c-0.3,0.5-0.5,1.1-0.5,1.8c0,0.8,0.3,1.6,0.9,2.2C64.3,11.9,65.1,12.2,66,12.2z M66,4.8c0.8,0,1.7,0.2,2.3,0.7
			C69,6,69.5,6.7,69.9,7.4s0.4,1.6,0.2,2.4c-0.2,0.8-0.6,1.6-1.2,2.2c-0.6,0.6-1.3,1-2.2,1.2c-0.8,0.2-1.7,0.1-2.4-0.2
			c-0.8-0.3-1.4-0.9-1.9-1.6c-0.5-0.7-0.7-1.5-0.7-2.4c0-0.6,0.1-1.1,0.3-1.6c0.2-0.5,0.5-1,0.9-1.4c0.4-0.4,0.9-0.7,1.4-0.9
			C64.9,4.9,65.4,4.8,66,4.8z"/>
		<path class="st1" d="M53.8,22.5c-0.5,0-1-0.1-1.4-0.4c-0.4-0.3-0.7-0.7-0.9-1.1c-0.2-0.5-0.2-1-0.1-1.5c0.1-0.5,0.3-0.9,0.7-1.3
			s0.8-0.6,1.3-0.7c0.5-0.1,1,0,1.5,0.1c0.5,0.2,0.9,0.5,1.1,0.9c0.3,0.4,0.4,0.9,0.4,1.4c0,0.7-0.3,1.3-0.7,1.8
			C55.1,22.2,54.5,22.5,53.8,22.5z M53.8,15c-1,0-1.9,0.3-2.7,0.8c-0.8,0.5-1.4,1.3-1.8,2.2S48.8,20,49,20.9
			c0.2,0.9,0.7,1.8,1.3,2.5c0.7,0.7,1.5,1.2,2.5,1.3c0.9,0.2,1.9,0.1,2.8-0.3c0.9-0.4,1.7-1,2.2-1.8c0.5-0.8,0.8-1.8,0.8-2.7
			c0-1.3-0.5-2.5-1.4-3.5C56.3,15.6,55.1,15.1,53.8,15L53.8,15z M53.8,23.1c0.6,0,1.2-0.2,1.8-0.5c0.5-0.3,0.9-0.8,1.2-1.4
			c0.2-0.6,0.3-1.2,0.2-1.8c-0.1-0.6-0.4-1.2-0.9-1.6c-0.4-0.4-1-0.7-1.6-0.9c-0.6-0.1-1.2-0.1-1.8,0.2c-0.6,0.2-1.1,0.6-1.4,1.2
			s-0.5,1.1-0.5,1.8c0,0.8,0.3,1.6,0.9,2.2C52.2,22.8,53,23.1,53.8,23.1z M53.8,15.7c0.8,0,1.7,0.2,2.3,0.7c0.7,0.5,1.2,1.1,1.6,1.9
			c0.3,0.8,0.4,1.6,0.2,2.4c-0.2,0.8-0.6,1.6-1.2,2.2s-1.3,1-2.2,1.2c-0.8,0.2-1.7,0.1-2.4-0.2c-0.8-0.3-1.4-0.9-1.9-1.6
			c-0.5-0.7-0.7-1.5-0.7-2.4c0-1.1,0.4-2.2,1.2-3C51.6,16.2,52.7,15.7,53.8,15.7z"/>
		<path class="st1" d="M73.2,15.1c-0.8,0-1.6,0.2-2.4,0.6c-0.7,0.4-1.3,1-1.8,1.7c-0.4,0.7-0.7,1.5-0.8,2.3c0,0.8,0.1,1.7,0.5,2.4
			c0.4,0.8,0.9,1.4,1.6,1.9c0.7,0.5,1.5,0.8,2.3,0.9s1.7,0,2.4-0.3c0.8-0.3,1.4-0.8,2-1.5c0.1-0.1,0.2-0.3,0.2-0.4
			c0-0.1,0.1-0.3,0-0.5c0-0.2-0.1-0.3-0.1-0.4c-0.1-0.1-0.2-0.3-0.3-0.4c-0.1-0.1-0.3-0.2-0.4-0.2c-0.1,0-0.3-0.1-0.5,0
			c-0.2,0-0.3,0.1-0.4,0.1c-0.1,0.1-0.3,0.2-0.4,0.3c-0.3,0.4-0.8,0.7-1.3,0.8c-0.5,0.1-1,0.1-1.5,0c-0.5-0.2-0.9-0.5-1.2-0.9
			c-0.3-0.4-0.5-0.9-0.5-1.4c0-0.5,0.1-1,0.4-1.5c0.3-0.4,0.7-0.8,1.1-1c0.5-0.2,1-0.3,1.5-0.2c0.5,0.1,1,0.3,1.3,0.7
			c0.2,0.2,0.5,0.3,0.8,0.3c0.3,0,0.6-0.1,0.8-0.4c0.2-0.2,0.3-0.5,0.3-0.8c0-0.3-0.1-0.6-0.3-0.8c-0.5-0.5-1-0.8-1.6-1.1
			C74.5,15.2,73.8,15.1,73.2,15.1L73.2,15.1z M73.2,15.7c0.6,0,1.1,0.1,1.6,0.3c0.5,0.2,1,0.5,1.4,0.9c0.1,0.1,0.2,0.2,0.2,0.4
			c0,0.1-0.1,0.3-0.2,0.4c-0.1,0.1-0.2,0.2-0.4,0.2c-0.1,0-0.3-0.1-0.4-0.2c-0.5-0.5-1-0.8-1.7-0.9c-0.6-0.1-1.3,0-1.9,0.2
			c-0.6,0.3-1.1,0.7-1.4,1.3c-0.3,0.6-0.5,1.2-0.5,1.9c0,0.6,0.3,1.3,0.7,1.8c0.4,0.5,0.9,0.9,1.6,1.1c0.6,0.2,1.3,0.2,1.9,0
			c0.6-0.2,1.2-0.6,1.6-1.1c0-0.1,0.1-0.1,0.2-0.1c0.1,0,0.1-0.1,0.2-0.1c0.1,0,0.1,0,0.2,0c0.1,0,0.1,0.1,0.2,0.1
			c0.1,0,0.1,0.1,0.1,0.2c0,0.1,0.1,0.1,0.1,0.2c0,0.1,0,0.1,0,0.2c0,0.1-0.1,0.1-0.1,0.2c-0.5,0.6-1,1-1.7,1.3
			c-0.7,0.3-1.4,0.4-2.1,0.3c-0.7-0.1-1.4-0.4-2-0.8c-0.6-0.4-1.1-1-1.4-1.6c-0.3-0.7-0.5-1.4-0.4-2.1c0-0.7,0.3-1.4,0.6-2
			c0.4-0.6,0.9-1.1,1.5-1.5C71.8,15.9,72.5,15.7,73.2,15.7"/>
		<path class="st1" d="M95.9,11.6c-0.5,0-1-0.1-1.4-0.4c-0.4-0.3-0.7-0.7-0.9-1.1c-0.2-0.5-0.2-1-0.1-1.5c0.1-0.5,0.3-0.9,0.7-1.3
			c0.4-0.4,0.8-0.6,1.3-0.7s1,0,1.5,0.1c0.5,0.2,0.9,0.5,1.1,0.9c0.3,0.4,0.4,0.9,0.4,1.4c0,0.7-0.3,1.3-0.7,1.8
			C97.2,11.3,96.6,11.6,95.9,11.6z M95.9,4.2c-1,0-1.9,0.3-2.7,0.8c-0.8,0.5-1.4,1.3-1.8,2.2C91,8.1,90.9,9.1,91.1,10
			c0.2,0.9,0.7,1.8,1.3,2.5c0.7,0.7,1.5,1.2,2.5,1.3c0.9,0.2,1.9,0.1,2.8-0.3c0.9-0.4,1.7-1,2.2-1.8c0.5-0.8,0.8-1.8,0.8-2.7
			c0-1.3-0.5-2.5-1.4-3.5C98.4,4.7,97.2,4.2,95.9,4.2z M95.9,12.2c0.6,0,1.2-0.2,1.8-0.5c0.5-0.3,0.9-0.8,1.2-1.4
			c0.2-0.6,0.3-1.2,0.2-1.8c-0.1-0.6-0.4-1.2-0.9-1.6c-0.4-0.4-1-0.7-1.6-0.9c-0.6-0.1-1.2-0.1-1.8,0.2c-0.6,0.2-1.1,0.6-1.4,1.2
			c-0.3,0.5-0.5,1.1-0.5,1.8c0,0.8,0.3,1.6,0.9,2.2C94.3,11.9,95.1,12.2,95.9,12.2z M95.9,4.8c0.8,0,1.7,0.2,2.3,0.7
			c0.7,0.5,1.2,1.1,1.6,1.9c0.3,0.8,0.4,1.6,0.2,2.4c-0.2,0.8-0.6,1.6-1.2,2.2c-0.6,0.6-1.3,1-2.2,1.2c-0.8,0.2-1.7,0.1-2.4-0.2
			c-0.8-0.3-1.4-0.9-1.9-1.6s-0.7-1.5-0.7-2.4c0-0.6,0.1-1.1,0.3-1.6c0.2-0.5,0.5-1,0.9-1.4c0.4-0.4,0.9-0.7,1.4-0.9
			C94.8,4.9,95.3,4.8,95.9,4.8z"/>
		<path class="st1" d="M76,4c-0.3,0-0.5,0.1-0.7,0.2c-0.2,0.2-0.4,0.4-0.4,0.6l-1.1,3.6l-1.2-3.6c-0.1-0.2-0.2-0.4-0.4-0.6
			C72,4.1,71.7,4,71.5,4c-0.1,0-0.2,0-0.4,0.1c-0.1,0-0.3,0.1-0.4,0.2c-0.1,0.1-0.2,0.2-0.3,0.4c-0.1,0.1-0.1,0.3-0.1,0.4
			c0,0.2,0,0.3,0.1,0.5l2.4,7.2c0.1,0.2,0.2,0.4,0.4,0.6c0.2,0.1,0.4,0.2,0.7,0.2h0c0.3,0,0.5-0.1,0.7-0.2c0.2-0.2,0.3-0.4,0.4-0.6
			l2.1-7.2c0.1-0.3,0.1-0.6-0.1-0.9c-0.1-0.3-0.4-0.5-0.7-0.6C76.2,4,76.1,4,76,4L76,4z M76,4.7c0.1,0,0.1,0,0.2,0
			c0.1,0,0.2,0.1,0.3,0.3c0.1,0.1,0.1,0.3,0,0.4l-2.1,7.2c0,0.1-0.1,0.2-0.2,0.3C74.1,12.9,74,13,73.9,13c-0.1,0-0.2,0-0.3-0.1
			c-0.1-0.1-0.2-0.2-0.2-0.3L71,5.4c0-0.1,0-0.3,0-0.4c0.1-0.1,0.2-0.2,0.3-0.3c0.1,0,0.1,0,0.2,0c0.1,0,0.2,0,0.3,0.1
			C71.9,4.8,72,4.9,72,5l1.8,5.6L75.5,5c0-0.1,0.1-0.2,0.2-0.3C75.8,4.7,75.9,4.7,76,4.7"/>
		<path class="st1" d="M84.7,3.6c-0.3,0-0.5,0.1-0.7,0.3H83c-0.3,0-0.6,0.1-0.8,0.3c-0.2,0.2-0.3,0.5-0.3,0.8c0,0.3,0.1,0.6,0.3,0.8
			c0.2,0.2,0.5,0.3,0.8,0.3h0.5v6.2c0,0.3,0.1,0.6,0.4,0.8c0.2,0.2,0.5,0.3,0.8,0.3s0.6-0.1,0.8-0.3c0.2-0.2,0.4-0.5,0.4-0.8V6.3
			h0.5c0.3,0,0.6-0.1,0.8-0.3c0.2-0.2,0.3-0.5,0.3-0.8c0-0.3-0.1-0.6-0.3-0.8c-0.2-0.2-0.5-0.3-0.8-0.3h-0.9
			C85.2,3.7,85,3.6,84.7,3.6z M84.7,4.3c0.1,0,0.2,0,0.3,0.1c0.1,0,0.1,0.1,0.2,0.2h1.2c0.1,0,0.3,0.1,0.4,0.2
			c0.1,0.1,0.2,0.2,0.2,0.4c0,0.1-0.1,0.3-0.2,0.4c-0.1,0.1-0.2,0.2-0.4,0.2h-1.1v6.8c0,0.1,0,0.1,0,0.2c0,0.1-0.1,0.1-0.1,0.2
			s-0.1,0.1-0.2,0.1c-0.1,0-0.1,0-0.2,0c-0.1,0-0.1,0-0.2,0c-0.1,0-0.1-0.1-0.2-0.1s-0.1-0.1-0.1-0.2c0-0.1,0-0.1,0-0.2V5.6H83
			c-0.1,0-0.3-0.1-0.4-0.2c-0.1-0.1-0.2-0.2-0.2-0.4c0-0.1,0.1-0.3,0.2-0.4c0.1-0.1,0.2-0.2,0.4-0.2h1.2c0-0.1,0.1-0.1,0.2-0.2
			C84.5,4.3,84.6,4.3,84.7,4.3z"/>
		<path class="st1" d="M89.2,3.6c-0.3,0-0.6,0.1-0.8,0.3C88.1,4.2,88,4.5,88,4.8v7.6c0,0.3,0.1,0.6,0.4,0.8c0.2,0.2,0.5,0.3,0.8,0.3
			s0.6-0.1,0.8-0.3c0.2-0.2,0.4-0.5,0.4-0.8V4.8c0-0.3-0.1-0.6-0.3-0.8C89.8,3.8,89.5,3.6,89.2,3.6z M89.2,4.3
			c0.1,0,0.3,0.1,0.4,0.2c0.1,0.1,0.2,0.2,0.2,0.4v7.6c0,0.1-0.1,0.3-0.2,0.4c-0.1,0.1-0.2,0.2-0.4,0.2c-0.1,0-0.3-0.1-0.4-0.2
			c-0.1-0.1-0.2-0.2-0.2-0.4V4.8c0-0.1,0.1-0.3,0.2-0.4S89.1,4.3,89.2,4.3z"/>
		<path class="st1" d="M89.2,0.5c-0.3,0-0.5,0.1-0.8,0.2S88,1.1,87.9,1.4c-0.1,0.2-0.1,0.5-0.1,0.8s0.2,0.5,0.4,0.7
			c0.2,0.2,0.4,0.3,0.7,0.4c0.3,0.1,0.5,0,0.8-0.1C90,3,90.2,2.9,90.3,2.6c0.1-0.2,0.2-0.5,0.2-0.8c0-0.4-0.1-0.7-0.4-1
			C89.9,0.7,89.6,0.5,89.2,0.5z M89.2,1.2c0.1,0,0.3,0,0.4,0.1c0.1,0.1,0.2,0.2,0.3,0.3s0.1,0.3,0,0.4c0,0.1-0.1,0.3-0.2,0.4
			c-0.1,0.1-0.2,0.2-0.4,0.2s-0.3,0-0.4,0c-0.1-0.1-0.2-0.1-0.3-0.3c-0.1-0.1-0.1-0.3-0.1-0.4c0-0.1,0-0.2,0.1-0.3
			c0-0.1,0.1-0.2,0.2-0.2c0.1-0.1,0.1-0.1,0.2-0.2C89,1.2,89.1,1.2,89.2,1.2z"/>
		<path class="st1" d="M44.1,0.5c-0.3,0-0.5,0.1-0.7,0.2c-0.2,0.2-0.4,0.4-0.5,0.6c-0.1,0.2-0.1,0.5-0.1,0.8
			c0.1,0.3,0.2,0.5,0.4,0.7c0.2,0.2,0.4,0.3,0.7,0.4c0.3,0.1,0.5,0,0.8-0.1c0.2-0.1,0.5-0.3,0.6-0.5c0.1-0.2,0.2-0.5,0.2-0.8
			c0-0.4-0.1-0.7-0.4-1C44.8,0.7,44.5,0.5,44.1,0.5z M44.1,1.2c0.1,0,0.3,0,0.4,0.1c0.1,0.1,0.2,0.2,0.3,0.3c0.1,0.1,0.1,0.3,0,0.4
			c0,0.1-0.1,0.3-0.2,0.4c-0.1,0.1-0.2,0.2-0.4,0.2s-0.3,0-0.4,0c-0.1-0.1-0.2-0.1-0.3-0.3c-0.1-0.1-0.1-0.3-0.1-0.4
			c0-0.2,0.1-0.4,0.2-0.5C43.7,1.3,43.9,1.2,44.1,1.2z"/>
		<path class="st1" d="M44.1,3.6c-0.3,0-0.6,0.1-0.8,0.3c-0.2,0.2-0.3,0.5-0.3,0.8v7.6c0,0.3,0.1,0.6,0.4,0.8
			c0.2,0.2,0.5,0.3,0.8,0.3c0.3,0,0.6-0.1,0.8-0.3c0.2-0.2,0.4-0.5,0.4-0.8V4.8c0-0.3-0.1-0.6-0.3-0.8C44.7,3.8,44.4,3.6,44.1,3.6z
			 M44.1,4.3c0.1,0,0.3,0.1,0.4,0.2c0.1,0.1,0.2,0.2,0.2,0.4v7.6c0,0.1-0.1,0.3-0.2,0.4c-0.1,0.1-0.2,0.2-0.4,0.2
			c-0.1,0-0.3-0.1-0.4-0.2c-0.1-0.1-0.2-0.2-0.2-0.4V4.8c0-0.1,0-0.1,0-0.2c0-0.1,0.1-0.1,0.1-0.2c0,0,0.1-0.1,0.2-0.1
			C44,4.3,44,4.3,44.1,4.3z"/>
		<path class="st1" d="M61.5,17.5h0.4c0.3,0,1.3,0.2,1.3,1.7c0,0.2,0,0.3-0.1,0.5c-0.3-0.3-0.6-0.5-1-0.6c-0.2-0.1-0.5-0.1-0.7-0.1
			L61.5,17.5z M60.4,15.1c-0.3,0-0.6,0.1-0.8,0.3c-0.2,0.2-0.3,0.5-0.3,0.8v7.3c0,0.3,0.1,0.6,0.4,0.8c0.2,0.2,0.5,0.3,0.8,0.3
			c0.3,0,0.6-0.1,0.8-0.3c0.2-0.2,0.4-0.5,0.4-0.8v-0.5c0.1,0,0.2,0,0.3,0c0.3,0,0.6,0,0.9-0.1c0.1,0.2,0.2,0.3,0.3,0.5l0,0
			c0.1,0.3,0.3,0.5,0.4,0.7c0.1,0.1,0.2,0.3,0.3,0.3c0.1,0.1,0.3,0.2,0.4,0.2c0.2,0,0.3,0,0.5,0c0.2,0,0.3-0.1,0.4-0.2
			c0.1-0.1,0.2-0.2,0.3-0.3c0.1-0.1,0.2-0.3,0.2-0.4c0-0.2,0-0.3,0-0.5s-0.1-0.3-0.2-0.4c-0.1-0.2-0.2-0.4-0.4-0.7
			c-0.1-0.2-0.2-0.4-0.3-0.6c0.6-0.7,0.9-1.7,0.9-2.6c0-3.3-2.6-4-3.6-4H60.4z M61.9,21.4c0.2,0,0.4,0,0.6-0.1
			c-0.2-0.3-0.5-0.5-0.8-0.6c-0.1,0-0.2,0-0.3,0c-0.1,0-0.2,0.1-0.3,0.2c0,0-0.1,0.1-0.1,0.1c0,0,0,0.1,0,0.2c0,0.1,0.2,0.2,0.6,0.3
			C61.6,21.4,61.8,21.4,61.9,21.4L61.9,21.4z M60.9,19.7c0.2-0.1,0.4-0.1,0.6-0.1c0.2,0,0.4,0,0.5,0.1c0.5,0.2,1,0.6,1.4,1.1
			c0.4-0.4,0.6-1,0.6-1.6c0-2.2-1.7-2.3-2-2.3h-1.1L60.9,19.7z M62,15.8c0,0,3,0.1,3,3.4c0,0.5-0.1,0.9-0.2,1.4s-0.4,0.8-0.8,1.1
			c0.2,0.3,0.4,0.7,0.6,1c0.1,0.3,0.3,0.5,0.4,0.7c0,0.1,0.1,0.1,0.1,0.2c0,0.1,0,0.1,0,0.2c0,0.1,0,0.1-0.1,0.2s-0.1,0.1-0.2,0.1
			c-0.1,0-0.1,0.1-0.2,0.1c-0.1,0-0.1,0-0.2,0c-0.1,0-0.1-0.1-0.2-0.1S64,23.9,64,23.9c-0.1-0.2-0.3-0.5-0.4-0.7
			c-0.2-0.3-0.3-0.6-0.5-0.9c-0.4,0.2-0.8,0.2-1.2,0.2c-0.2,0-0.3,0-0.5,0c-0.2,0-0.3-0.1-0.5-0.1v1.3c0,0.1-0.1,0.3-0.2,0.4
			c-0.1,0.1-0.2,0.2-0.4,0.2c-0.1,0-0.3-0.1-0.4-0.2c-0.1-0.1-0.2-0.2-0.2-0.4v-7.3c0-0.1,0.1-0.3,0.2-0.4c0.1-0.1,0.2-0.2,0.4-0.2
			H62z"/>
		<path class="st1" d="M83.1,14.9c-0.3,0-0.6,0.1-0.8,0.3c-0.2,0.2-0.3,0.5-0.3,0.8v3.8h-2v-3.8c0-0.3-0.1-0.6-0.4-0.8
			c-0.2-0.2-0.5-0.3-0.8-0.3c-0.3,0-0.6,0.1-0.8,0.3c-0.2,0.2-0.4,0.5-0.4,0.8v7.6c0,0.3,0.1,0.6,0.4,0.8c0.2,0.2,0.5,0.3,0.8,0.3
			c0.3,0,0.6-0.1,0.8-0.3c0.2-0.2,0.4-0.5,0.4-0.8v-1.5h2v1.5c0,0.3,0.1,0.6,0.4,0.8c0.2,0.2,0.5,0.3,0.8,0.3s0.6-0.1,0.8-0.3
			c0.2-0.2,0.4-0.5,0.4-0.8v-7.6c0-0.3-0.1-0.6-0.3-0.8C83.7,15.1,83.4,14.9,83.1,14.9z M83.1,15.6c0.1,0,0.3,0.1,0.4,0.2
			c0.1,0.1,0.2,0.2,0.2,0.4v7.6c0,0.1-0.1,0.3-0.2,0.4c-0.1,0.1-0.2,0.2-0.4,0.2c-0.1,0-0.3-0.1-0.4-0.2c-0.1-0.1-0.2-0.2-0.2-0.4
			v-2.2h-3.3v2.2c0,0.1-0.1,0.3-0.2,0.4c-0.1,0.1-0.2,0.2-0.4,0.2c-0.1,0-0.3-0.1-0.4-0.2c-0.1-0.1-0.2-0.2-0.2-0.4v-7.6
			c0-0.1,0.1-0.3,0.2-0.4c0.1-0.1,0.2-0.2,0.4-0.2c0.1,0,0.3,0.1,0.4,0.2c0.1,0.1,0.2,0.2,0.2,0.4v4.4h3.3v-4.4
			c0-0.1,0.1-0.3,0.2-0.4S83,15.6,83.1,15.6z"/>
		<path class="st1" d="M104.1,14.8c-0.7,0-1.5,0.2-2.1,0.5c-0.7,0.3-1.2,0.8-1.7,1.3c-0.5,0.6-0.8,1.2-1,1.9c-0.2,0.7-0.2,1.5,0,2.2
			s0.5,1.4,0.9,2c0.4,0.6,1,1.1,1.7,1.4c0.6,0.3,1.4,0.5,2.1,0.6s1.5-0.1,2.1-0.4c0.1,0.3,0.3,0.5,0.5,0.6c0.2,0.1,0.5,0.2,0.8,0.1
			c0.3-0.1,0.5-0.2,0.7-0.4c0.2-0.2,0.3-0.5,0.3-0.7v-4.1c0-0.3-0.1-0.6-0.3-0.8c-0.2-0.2-0.5-0.3-0.8-0.3c-0.3,0-0.6,0.1-0.8,0.3
			s-0.3,0.5-0.3,0.8v1.7c-0.3,0.4-0.8,0.6-1.3,0.7c-0.5,0.1-1,0.1-1.5-0.1c-0.5-0.2-0.9-0.5-1.2-0.9c-0.3-0.4-0.5-0.9-0.5-1.4
			c0-0.5,0.1-1,0.4-1.4c0.3-0.4,0.7-0.8,1.1-1s1-0.3,1.5-0.2c0.5,0.1,1,0.3,1.3,0.7c0.2,0.2,0.5,0.3,0.8,0.3c0.3,0,0.6-0.1,0.8-0.4
			c0.2-0.2,0.3-0.5,0.3-0.8c0-0.3-0.1-0.6-0.3-0.8c-0.5-0.5-1-0.8-1.6-1.1C105.4,14.9,104.8,14.8,104.1,14.8L104.1,14.8z
			 M104.1,15.4c0.6,0,1.1,0.1,1.6,0.3c0.5,0.2,1,0.5,1.4,0.9c0.1,0.1,0.2,0.2,0.2,0.4c0,0.1-0.1,0.3-0.2,0.4
			c-0.1,0.1-0.2,0.2-0.4,0.2c-0.1,0-0.3-0.1-0.4-0.2c-0.5-0.5-1-0.8-1.7-0.9c-0.6-0.1-1.3,0-1.9,0.2c-0.6,0.3-1.1,0.7-1.4,1.3
			c-0.3,0.6-0.5,1.2-0.5,1.9c0,0.7,0.3,1.3,0.7,1.8c0.4,0.5,0.9,0.9,1.6,1.1c0.6,0.2,1.3,0.2,1.9,0c0.6-0.2,1.2-0.6,1.6-1.1
			c0,0,0,0,0,0v-2c0-0.1,0.1-0.3,0.2-0.4c0.1-0.1,0.2-0.2,0.4-0.2s0.3,0.1,0.4,0.2c0.1,0.1,0.2,0.2,0.2,0.4v4.1
			c0,0.1-0.1,0.3-0.2,0.4c-0.1,0.1-0.2,0.2-0.4,0.2s-0.3-0.1-0.4-0.2c-0.1-0.1-0.2-0.2-0.2-0.4v-0.6c-0.5,0.4-1.2,0.7-1.8,0.8
			c-0.7,0.1-1.3,0.1-2-0.2c-0.6-0.2-1.2-0.6-1.7-1c-0.5-0.5-0.8-1.1-1-1.7c-0.2-0.6-0.3-1.3-0.2-2c0.1-0.7,0.4-1.3,0.8-1.8
			c0.4-0.5,0.9-1,1.5-1.3C102.8,15.6,103.5,15.5,104.1,15.4"/>
		<path class="st1" d="M114.2,15.1h-2.6c-1.2,0-2.3,0.9-2.5,2.3c-0.2,0.9,0,1.7,0.4,2.5c-0.3,0.5-0.4,1-0.5,1.5
			c-0.1,0.5-0.1,0.9,0.1,1.4s0.3,0.9,0.6,1.2c0.2,0.3,0.5,0.6,0.8,0.8c0.3,0.2,0.7,0.3,1.1,0.4c0,0,0.1,0,0.1,0h2.6
			c0.3,0,0.6-0.1,0.8-0.4c0.2-0.2,0.3-0.5,0.3-0.8c0-0.3-0.1-0.6-0.3-0.8c-0.2-0.2-0.5-0.4-0.8-0.4h-2.5c-0.1,0-0.2-0.1-0.2-0.2
			c-0.1-0.1-0.1-0.2-0.2-0.3c0-0.1,0-0.3,0-0.4c0,0,0-0.1,0-0.1c0.4,0.2,0.8,0.3,1.3,0.4c0.1,0,0.1,0,0.2,0c0.9-0.1,1.7-0.6,2.3-1.6
			c0.1-0.2,0.2-0.3,0.2-0.5c0-0.2,0-0.4,0-0.6c-0.2-0.6-0.7-0.9-1.5-1.3c-0.4-0.2-0.8-0.2-1.2-0.2c-0.4,0-0.8,0.1-1.2,0.2
			c0-0.1,0-0.2,0-0.3c0-0.1,0.1-0.3,0.2-0.3h2.6c0.3,0,0.6-0.1,0.8-0.4c0.2-0.2,0.3-0.5,0.3-0.8c0-0.3-0.1-0.6-0.3-0.8
			C114.8,15.2,114.5,15.1,114.2,15.1L114.2,15.1z M112.7,20.3L112.7,20.3c0.4-0.1,0.6-0.2,0.8-0.5c-0.1,0-0.2-0.1-0.3-0.1
			c-0.2-0.1-0.4-0.1-0.6-0.1c-0.2,0-0.5,0.1-0.7,0.2c-0.1,0-0.1,0.1-0.2,0.1C112,20.1,112.3,20.2,112.7,20.3L112.7,20.3z
			 M114.2,15.8c0.1,0,0.1,0,0.2,0c0.1,0,0.1,0.1,0.2,0.1c0,0,0.1,0.1,0.1,0.2c0,0.1,0,0.1,0,0.2c0,0.1,0,0.1,0,0.2
			c0,0.1-0.1,0.1-0.1,0.2c0,0-0.1,0.1-0.2,0.1c-0.1,0-0.1,0-0.2,0h-2.6c-0.6,0-0.8,0.7-0.8,0.9c-0.1,0.5,0,1,0.2,1.4
			c0.1-0.1,0.2-0.2,0.4-0.2c0.4-0.2,0.8-0.3,1.2-0.3c0.3,0,0.7,0.1,1,0.2c0.9,0.3,1.1,0.6,1.2,0.8c0,0.1,0,0.2,0,0.3
			c0,0.1,0,0.2-0.1,0.2c-0.6,0.8-1.2,1.2-1.9,1.3h-0.1c-0.6,0-1.2-0.3-1.6-0.7c-0.2,0.3-0.3,0.7-0.4,1c0,0.2,0,0.4,0,0.7
			c0.1,0.2,0.2,0.4,0.3,0.6c0.1,0.1,0.2,0.2,0.3,0.3c0.1,0.1,0.2,0.1,0.4,0.1h2.5c0.1,0,0.3,0.1,0.4,0.2c0.1,0.1,0.2,0.2,0.2,0.4
			c0,0.1-0.1,0.3-0.2,0.4c-0.1,0.1-0.2,0.2-0.4,0.2h-2.6c-0.3,0-0.6-0.1-0.8-0.3c-0.2-0.1-0.5-0.3-0.6-0.6c-0.2-0.3-0.4-0.6-0.5-1
			c-0.1-0.4-0.1-0.7,0-1.1c0.1-0.6,0.3-1.2,0.7-1.6c-0.3-0.3-0.4-0.7-0.5-1.1c-0.1-0.4-0.1-0.8,0-1.2c0.2-1,0.9-1.7,1.9-1.7
			L114.2,15.8z"/>
		<path class="st1" d="M43.6,15.1c-0.3,0-0.6,0.1-0.8,0.3c-0.2,0.2-0.3,0.5-0.3,0.8v7.4c0,0.3,0.1,0.6,0.3,0.8
			c0.2,0.2,0.5,0.3,0.8,0.3s0.6-0.1,0.8-0.3c0.2-0.2,0.3-0.5,0.3-0.8v-2.5h2.5c0.3,0,0.6-0.1,0.8-0.3c0.2-0.2,0.3-0.5,0.3-0.8
			s-0.1-0.6-0.3-0.8c-0.2-0.2-0.5-0.3-0.8-0.3h-2.5v-1.4h2.5c0.3,0,0.6-0.1,0.8-0.3c0.2-0.2,0.3-0.5,0.3-0.8c0-0.3-0.1-0.6-0.3-0.8
			c-0.2-0.2-0.5-0.3-0.8-0.3H43.6z M47.3,15.7c0.1,0,0.3,0.1,0.4,0.2c0.1,0.1,0.2,0.2,0.2,0.4s-0.1,0.3-0.2,0.4
			c-0.1,0.1-0.2,0.2-0.4,0.2h-3.2v2.7h3.2c0.1,0,0.1,0,0.2,0c0.1,0,0.1,0.1,0.2,0.1c0,0,0.1,0.1,0.1,0.2c0,0.1,0,0.1,0,0.2
			s0,0.1,0,0.2c0,0.1-0.1,0.1-0.1,0.2c0,0-0.1,0.1-0.2,0.1c-0.1,0-0.1,0-0.2,0h-3.2v3.2c0,0.1-0.1,0.3-0.2,0.4
			c-0.1,0.1-0.2,0.2-0.4,0.2s-0.3-0.1-0.4-0.2c-0.1-0.1-0.2-0.2-0.2-0.4v-7.4c0-0.1,0-0.1,0-0.2c0-0.1,0.1-0.1,0.1-0.2
			c0,0,0.1-0.1,0.2-0.1c0.1,0,0.1,0,0.2,0H47.3z"/>
		<path class="st1" d="M88.3,15.2c-0.3,0-0.5,0.1-0.7,0.2c-0.2,0.1-0.4,0.4-0.4,0.6l-2.3,7.2c-0.1,0.3-0.1,0.6,0.1,0.9
			c0.1,0.3,0.4,0.5,0.7,0.6c0.1,0,0.2,0.1,0.4,0.1c0.3,0,0.5-0.1,0.7-0.2c0.2-0.1,0.4-0.4,0.4-0.6l0.5-1.7h1.2l0.5,1.7
			c0,0.1,0.1,0.3,0.2,0.4c0.1,0.1,0.2,0.2,0.4,0.3c0.1,0.1,0.3,0.1,0.4,0.1c0.2,0,0.3,0,0.5,0c0.1,0,0.3-0.1,0.4-0.2
			c0.1-0.1,0.2-0.2,0.3-0.4c0.1-0.1,0.1-0.3,0.1-0.4c0-0.2,0-0.3,0-0.5l-2.2-7.2c-0.1-0.2-0.2-0.5-0.4-0.6
			C88.8,15.3,88.5,15.2,88.3,15.2L88.3,15.2z M87.5,20.5H89l-0.7-2.3L87.5,20.5z M88.3,15.9c0.1,0,0.2,0,0.3,0.1s0.2,0.2,0.2,0.3
			l2.2,7.2c0,0.1,0,0.1,0,0.2c0,0.1,0,0.1-0.1,0.2c0,0.1-0.1,0.1-0.1,0.2c-0.1,0-0.1,0.1-0.2,0.1c-0.1,0-0.1,0-0.2,0
			c-0.1,0-0.2,0-0.3-0.1C90.1,24,90,23.9,90,23.8l-0.7-2.1h-2.1l-0.7,2.1c0,0.1-0.1,0.2-0.2,0.3c-0.1,0.1-0.2,0.1-0.3,0.1
			c-0.1,0-0.1,0-0.2,0c-0.1,0-0.2-0.1-0.3-0.3c-0.1-0.1-0.1-0.3,0-0.4l2.3-7.2c0-0.1,0.1-0.2,0.2-0.3C88,15.9,88.2,15.9,88.3,15.9
			L88.3,15.9z"/>
		<path class="st1" d="M79.4,4.1c-0.3,0-0.5,0.1-0.7,0.2c-0.2,0.1-0.4,0.4-0.4,0.6L76,12.2c0,0.1-0.1,0.3-0.1,0.5
			c0,0.2,0.1,0.3,0.1,0.4c0.1,0.1,0.2,0.3,0.3,0.4c0.1,0.1,0.3,0.2,0.4,0.2c0.1,0,0.3,0.1,0.5,0.1c0.2,0,0.3-0.1,0.4-0.1
			c0.1-0.1,0.3-0.2,0.4-0.3c0.1-0.1,0.2-0.3,0.2-0.4l0.5-1.7H80l0.5,1.7c0.1,0.2,0.2,0.5,0.4,0.6c0.2,0.2,0.5,0.2,0.7,0.2
			c0.1,0,0.2,0,0.3-0.1c0.3-0.1,0.5-0.3,0.7-0.6c0.1-0.3,0.2-0.6,0.1-0.9L80.5,5c-0.1-0.2-0.2-0.5-0.4-0.6
			C79.9,4.2,79.7,4.1,79.4,4.1z M78.7,9.4h1.4l-0.7-2.3L78.7,9.4z M79.4,4.8c0.1,0,0.2,0,0.3,0.1c0.1,0.1,0.2,0.2,0.2,0.3l2.2,7.2
			c0,0.1,0,0.3,0,0.4c-0.1,0.1-0.2,0.2-0.3,0.3c-0.1,0-0.1,0-0.2,0c-0.1,0-0.2,0-0.3-0.1c-0.1-0.1-0.2-0.2-0.2-0.3l-0.7-2.1h-2.2
			l-0.7,2.1c0,0.1-0.1,0.2-0.2,0.3c-0.1,0.1-0.2,0.1-0.3,0.1c-0.1,0-0.1,0-0.2,0c-0.1,0-0.1-0.1-0.2-0.1c-0.1,0-0.1-0.1-0.1-0.2
			c0-0.1-0.1-0.1-0.1-0.2s0-0.1,0-0.2l2.3-7.2C78.9,5,79,5,79.1,4.9S79.3,4.8,79.4,4.8L79.4,4.8z"/>
		<path class="st1" d="M43.1,30.7l0.6,1.5l0.6-1.6l0.6,1.6l0.6-1.5h0.4l-1,2.3l-0.6-1.6L43.7,33l-0.9-2.3H43.1z"/>
		<path class="st1" d="M46.4,31.5h0.9v-0.9h0.3v2.2h-0.3v-1h-0.9v1h-0.3v-2.2h0.3L46.4,31.5z"/>
		<path class="st1" d="M49.4,31h-0.9v0.5h0.8v0.3h-0.8v0.7h0.9v0.3h-1.2v-2.2h1.2V31z"/>
		<path class="st1" d="M50.6,31.9l0.7,0.9h-0.4L50.2,32h-0.1v0.9h-0.3v-2.2h0.4c0.2,0,0.4,0,0.6,0.2c0.1,0.1,0.1,0.1,0.2,0.2
			c0,0.1,0.1,0.2,0.1,0.3c0,0.1,0,0.3-0.1,0.4C50.8,31.8,50.7,31.9,50.6,31.9z M50.2,31.7h0.1c0.3,0,0.5-0.1,0.5-0.4
			S50.6,31,50.3,31h-0.1V31.7z"/>
		<path class="st1" d="M52.8,31h-0.9v0.5h0.8v0.3h-0.8v0.7h0.9v0.3h-1.2v-2.2h1.2L52.8,31z"/>
		<path class="st1" d="M54.4,32v0.9h-0.3v-2.2h0.4c0.1,0,0.3,0,0.4,0c0.1,0,0.2,0.1,0.2,0.1c0.1,0.1,0.1,0.1,0.1,0.2
			c0,0.1,0,0.2,0,0.3c0,0.1,0,0.2,0,0.3c0,0.1-0.1,0.2-0.1,0.2C55,31.9,54.8,32,54.6,32H54.4z M54.4,31.7h0.1c0.3,0,0.5-0.1,0.5-0.3
			c0-0.2-0.2-0.3-0.5-0.3h-0.1V31.7z"/>
		<path class="st1" d="M56.9,31H56v0.5h0.8v0.3H56v0.7h0.9v0.3h-1.2v-2.2h1.2V31z"/>
		<path class="st1" d="M57.2,31.8c0-0.1,0-0.3,0.1-0.4c0.1-0.1,0.1-0.3,0.3-0.4c0.1-0.1,0.2-0.2,0.4-0.2c0.1-0.1,0.3-0.1,0.4-0.1
			c0.3,0,0.6,0.1,0.8,0.3c0.2,0.2,0.3,0.5,0.3,0.8c0,0.1,0,0.3-0.1,0.4c-0.1,0.1-0.1,0.3-0.3,0.4c-0.2,0.2-0.5,0.3-0.8,0.3
			c-0.3,0-0.6-0.1-0.8-0.3c-0.1-0.1-0.2-0.2-0.3-0.4C57.2,32.1,57.2,31.9,57.2,31.8z M57.5,31.8c0,0.2,0,0.3,0.1,0.5
			c0.1,0.1,0.2,0.2,0.4,0.3c0.1,0.1,0.3,0.1,0.5,0.1c0.2,0,0.3-0.1,0.4-0.2c0.1-0.1,0.1-0.2,0.2-0.3c0-0.1,0.1-0.2,0.1-0.3
			c0-0.1,0-0.2-0.1-0.3c0-0.1-0.1-0.2-0.2-0.3c-0.2-0.2-0.4-0.2-0.6-0.2c-0.2,0-0.4,0.1-0.6,0.2c-0.1,0.1-0.1,0.2-0.2,0.3
			C57.6,31.6,57.5,31.7,57.5,31.8L57.5,31.8z"/>
		<path class="st1" d="M60.2,32v0.9h-0.3v-2.2h0.4c0.1,0,0.3,0,0.4,0c0.1,0,0.2,0.1,0.2,0.1c0.1,0.1,0.1,0.1,0.1,0.2s0,0.2,0,0.3
			c0,0.1,0,0.2,0,0.3c0,0.1-0.1,0.2-0.2,0.2c-0.2,0.1-0.3,0.2-0.5,0.2H60.2z M60.2,31.7h0.1c0.3,0,0.5-0.1,0.5-0.3
			c0-0.2-0.2-0.3-0.5-0.3h-0.1V31.7z"/>
		<path class="st1" d="M61.8,30.7v1.9h0.6v0.3h-1v-2.2H61.8z"/>
		<path class="st1" d="M64,31h-0.9v0.5h0.8v0.3h-0.8v0.7H64v0.3h-1.2v-2.2H64V31z"/>
		<path class="st1" d="M66.9,30.8v0.4C66.7,31,66.5,31,66.3,31c-0.1,0-0.2,0-0.3,0.1c-0.1,0-0.2,0.1-0.3,0.2
			c-0.1,0.1-0.1,0.2-0.2,0.3c0,0.1-0.1,0.2-0.1,0.3c0,0.1,0,0.2,0.1,0.3c0,0.1,0.1,0.2,0.2,0.3c0.1,0.1,0.2,0.1,0.3,0.2
			c0.1,0,0.2,0.1,0.3,0.1c0.1,0,0.2,0,0.3-0.1c0,0,0.1,0,0.1-0.1c0,0,0.1-0.1,0.2-0.1v0.4c-0.2,0.1-0.4,0.2-0.6,0.2
			c-0.1,0-0.3,0-0.4-0.1c-0.1-0.1-0.3-0.1-0.4-0.2c-0.1-0.1-0.2-0.2-0.2-0.4c-0.1-0.1-0.1-0.3-0.1-0.4c0-0.3,0.1-0.5,0.3-0.7
			c0.1-0.1,0.2-0.2,0.4-0.3c0.2-0.1,0.3-0.1,0.5-0.1C66.5,30.6,66.7,30.7,66.9,30.8z"/>
		<path class="st1" d="M67.2,31.8c0-0.1,0-0.3,0.1-0.4c0.1-0.1,0.1-0.3,0.3-0.4c0.1-0.1,0.2-0.2,0.4-0.2c0.1-0.1,0.3-0.1,0.4-0.1
			c0.3,0,0.6,0.1,0.8,0.3c0.2,0.2,0.3,0.5,0.3,0.8c0,0.1,0,0.3-0.1,0.4c-0.1,0.1-0.1,0.3-0.3,0.4c-0.2,0.2-0.5,0.3-0.8,0.3
			c-0.3,0-0.6-0.1-0.8-0.3c-0.1-0.1-0.2-0.2-0.3-0.4C67.2,32.1,67.2,31.9,67.2,31.8z M67.5,31.8c0,0.2,0,0.3,0.1,0.5
			c0.1,0.1,0.2,0.2,0.4,0.3c0.1,0.1,0.3,0.1,0.5,0.1c0.2,0,0.3-0.1,0.4-0.2c0.1-0.1,0.1-0.2,0.2-0.3c0-0.1,0.1-0.2,0.1-0.3
			c0-0.1,0-0.2-0.1-0.3c0-0.1-0.1-0.2-0.2-0.3c-0.2-0.2-0.4-0.2-0.6-0.2c-0.2,0-0.4,0.1-0.6,0.2c-0.1,0.1-0.1,0.2-0.2,0.3
			C67.6,31.6,67.5,31.7,67.5,31.8L67.5,31.8z"/>
		<path class="st1" d="M69.9,32.9v-2.3l1.6,1.7v-1.5h0.3V33l-1.6-1.7v1.5H69.9z"/>
		<path class="st1" d="M72.3,32.9v-2.3l1.6,1.7v-1.5h0.3V33l-1.6-1.7v1.5H72.3z"/>
		<path class="st1" d="M76,31h-0.9v0.5H76v0.3h-0.9v0.7H76v0.3h-1.2v-2.2H76V31z"/>
		<path class="st1" d="M78,31.2C77.9,31,77.7,31,77.5,31c-0.1,0-0.2,0-0.3,0.1c-0.1,0-0.2,0.1-0.3,0.2c-0.1,0.1-0.1,0.2-0.2,0.3
			c0,0.1-0.1,0.2-0.1,0.3c0,0.1,0,0.2,0.1,0.3c0,0.1,0.1,0.2,0.2,0.3c0.1,0.1,0.2,0.1,0.3,0.2c0.1,0,0.2,0.1,0.3,0.1
			c0.1,0,0.2,0,0.3-0.1c0,0,0.1,0,0.1-0.1c0.1,0,0.1-0.1,0.2-0.1v0.4c-0.2,0.1-0.4,0.2-0.6,0.2c-0.1,0-0.3,0-0.4-0.1
			s-0.3-0.1-0.4-0.2c-0.1-0.1-0.2-0.2-0.2-0.4c-0.1-0.1-0.1-0.3-0.1-0.4c0-0.3,0.1-0.5,0.3-0.7c0.2-0.2,0.4-0.3,0.7-0.4
			c0.3,0,0.5,0,0.8,0.1V31.2z"/>
		<path class="st1" d="M79.1,31v1.9h-0.3V31h-0.5v-0.3h1.3V31H79.1z"/>
		<path class="st1" d="M81.4,31v1.9H81V31h-0.5v-0.3h1.3V31H81.4z"/>
		<path class="st1" d="M82,31.8c0-0.1,0-0.3,0.1-0.4c0.1-0.1,0.1-0.3,0.3-0.4c0.1-0.1,0.2-0.2,0.4-0.2c0.1-0.1,0.3-0.1,0.4-0.1
			c0.3,0,0.6,0.1,0.8,0.3c0.2,0.2,0.3,0.5,0.3,0.8c0,0.1,0,0.3-0.1,0.4c-0.1,0.1-0.1,0.3-0.3,0.4c-0.2,0.2-0.5,0.3-0.8,0.3
			c-0.3,0-0.6-0.1-0.8-0.3c-0.1-0.1-0.2-0.2-0.3-0.4C82,32.1,82,31.9,82,31.8z M82.3,31.8c0,0.2,0,0.3,0.1,0.5
			c0.1,0.1,0.2,0.2,0.4,0.3c0.1,0.1,0.3,0.1,0.5,0.1c0.2,0,0.3-0.1,0.4-0.2c0.1-0.1,0.1-0.2,0.2-0.3c0-0.1,0.1-0.2,0.1-0.3
			c0-0.1,0-0.2-0.1-0.3c0-0.1-0.1-0.2-0.2-0.3c-0.1-0.1-0.2-0.1-0.3-0.2c-0.1,0-0.2-0.1-0.3-0.1c-0.1,0-0.2,0-0.3,0.1
			c-0.1,0-0.2,0.1-0.3,0.2c-0.1,0.1-0.1,0.2-0.2,0.3C82.3,31.6,82.3,31.7,82.3,31.8L82.3,31.8z"/>
		<path class="st1" d="M87.2,30.8v0.4C87,31,86.8,31,86.6,31c-0.1,0-0.2,0-0.3,0.1c-0.1,0-0.2,0.1-0.3,0.2c-0.1,0.1-0.1,0.2-0.2,0.3
			c0,0.1-0.1,0.2-0.1,0.3c0,0.1,0,0.2,0.1,0.3c0,0.1,0.1,0.2,0.2,0.3c0.1,0.1,0.2,0.1,0.3,0.2s0.2,0.1,0.3,0.1c0.1,0,0.2,0,0.3-0.1
			c0,0,0.1,0,0.1-0.1c0.1,0,0.1-0.1,0.2-0.1v0.4c-0.2,0.1-0.4,0.2-0.6,0.2c-0.1,0-0.3,0-0.4-0.1c-0.1-0.1-0.3-0.1-0.4-0.2
			c-0.1-0.1-0.2-0.2-0.2-0.4c-0.1-0.1-0.1-0.3-0.1-0.4c0-0.3,0.1-0.5,0.3-0.7c0.1-0.1,0.2-0.2,0.4-0.3c0.2-0.1,0.3-0.1,0.5-0.1
			C86.8,30.6,87,30.7,87.2,30.8z"/>
		<path class="st1" d="M88.3,31.9l0.7,0.9h-0.4L88,32h-0.1v0.9h-0.3v-2.2H88c0.2,0,0.4,0,0.6,0.2c0.1,0.1,0.1,0.1,0.2,0.2
			c0,0.1,0.1,0.2,0.1,0.3c0,0.1,0,0.3-0.1,0.4C88.6,31.8,88.5,31.9,88.3,31.9z M87.9,31.7H88c0.3,0,0.5-0.1,0.5-0.4S88.4,31,88,31
			h-0.1L87.9,31.7z"/>
		<path class="st1" d="M90.5,31h-0.9v0.5h0.8v0.3h-0.8v0.7h0.9v0.3h-1.2v-2.2h1.2V31z"/>
		<path class="st1" d="M92.3,32.3h-0.9l-0.2,0.5h-0.4l1.1-2.3l1,2.3h-0.4L92.3,32.3z M92.1,32l-0.3-0.8L91.5,32L92.1,32z"/>
		<path class="st1" d="M93.6,31v1.9h-0.3V31h-0.5v-0.3h1.3V31H93.6z"/>
		<path class="st1" d="M95.6,31h-0.9v0.5h0.8v0.3h-0.8v0.7h0.9v0.3h-1.2v-2.2h1.2L95.6,31z"/>
		<path class="st1" d="M97.5,31v1.9h-0.3V31h-0.5v-0.3H98V31H97.5z"/>
		<path class="st1" d="M98.1,31.8c0-0.1,0-0.3,0.1-0.4s0.1-0.3,0.3-0.4c0.1-0.1,0.2-0.2,0.4-0.2c0.1-0.1,0.3-0.1,0.4-0.1
			c0.2,0,0.4,0.1,0.6,0.2c0.2,0.1,0.3,0.3,0.4,0.5c0.1,0.2,0.1,0.4,0.1,0.7c0,0.2-0.2,0.4-0.3,0.6c-0.2,0.2-0.5,0.3-0.8,0.3
			c-0.3,0-0.6-0.1-0.8-0.3c-0.1-0.1-0.2-0.2-0.3-0.4C98.2,32.1,98.1,31.9,98.1,31.8z M98.5,31.8c0,0.1,0,0.2,0.1,0.3
			c0,0.1,0.1,0.2,0.2,0.3c0.1,0.1,0.2,0.1,0.3,0.2c0.1,0,0.2,0.1,0.3,0.1c0.1,0,0.2,0,0.3-0.1c0.1,0,0.2-0.1,0.3-0.2
			c0.2-0.2,0.2-0.4,0.2-0.6c0-0.2-0.1-0.4-0.2-0.6c-0.1-0.1-0.2-0.1-0.3-0.2c-0.1,0-0.2-0.1-0.3-0.1c-0.1,0-0.2,0-0.3,0.1
			c-0.1,0-0.2,0.1-0.3,0.2c-0.1,0.1-0.1,0.2-0.2,0.3C98.5,31.6,98.5,31.7,98.5,31.8L98.5,31.8z"/>
		<path class="st1" d="M100.8,32.9l0.5-2.4l0.8,1.7l0.8-1.7l0.4,2.4h-0.3l-0.2-1.3L102,33l-0.6-1.4l-0.2,1.3H100.8z"/>
		<path class="st1" d="M103.5,31.8c0-0.1,0-0.3,0.1-0.4c0.1-0.1,0.1-0.3,0.3-0.4c0.1-0.1,0.2-0.2,0.4-0.2c0.1-0.1,0.3-0.1,0.4-0.1
			c0.2,0,0.4,0.1,0.6,0.2c0.2,0.1,0.3,0.3,0.4,0.5c0.1,0.2,0.1,0.4,0.1,0.7c0,0.2-0.2,0.4-0.3,0.6c-0.2,0.2-0.5,0.3-0.8,0.3
			c-0.3,0-0.6-0.1-0.8-0.3c-0.1-0.1-0.2-0.2-0.3-0.4C103.5,32.1,103.5,31.9,103.5,31.8z M103.9,31.8c0,0.2,0,0.3,0.1,0.5
			c0.1,0.1,0.2,0.2,0.4,0.3c0.1,0.1,0.3,0.1,0.5,0.1c0.2,0,0.3-0.1,0.4-0.2c0.1-0.1,0.1-0.2,0.2-0.3c0-0.1,0.1-0.2,0.1-0.3
			c0-0.1,0-0.2-0.1-0.3s-0.1-0.2-0.2-0.3c-0.1-0.1-0.2-0.1-0.3-0.2c-0.1,0-0.2-0.1-0.3-0.1c-0.1,0-0.2,0-0.3,0.1
			c-0.1,0-0.2,0.1-0.3,0.2c-0.1,0.1-0.1,0.2-0.2,0.3C103.9,31.6,103.9,31.7,103.9,31.8L103.9,31.8z"/>
		<path class="st1" d="M107,31.9l0.7,0.9h-0.4l-0.6-0.9h-0.1v0.9h-0.3v-2.2h0.4c0.2,0,0.4,0,0.6,0.2c0.1,0.1,0.1,0.1,0.2,0.2
			c0,0.1,0.1,0.2,0.1,0.3c0,0.1,0,0.3-0.1,0.4C107.2,31.8,107.1,31.9,107,31.9z M106.6,31.7h0.1c0.3,0,0.5-0.1,0.5-0.4
			S107,31,106.7,31h-0.1V31.7z"/>
		<path class="st1" d="M108.7,31.9l0.7,0.9H109l-0.6-0.9h-0.1v0.9H108v-2.2h0.4c0.2,0,0.4,0,0.6,0.2c0.1,0.1,0.1,0.1,0.2,0.2
			c0,0.1,0.1,0.2,0.1,0.3c0,0.1,0,0.3-0.1,0.4C109,31.8,108.8,31.9,108.7,31.9z M108.3,31.7h0.1c0.3,0,0.5-0.1,0.5-0.4
			s-0.2-0.3-0.5-0.3h-0.1V31.7z"/>
		<path class="st1" d="M109.6,31.8c0-0.1,0-0.3,0.1-0.4c0.1-0.1,0.1-0.3,0.3-0.4c0.1-0.1,0.2-0.2,0.4-0.2c0.1-0.1,0.3-0.1,0.4-0.1
			c0.3,0,0.6,0.1,0.8,0.3c0.2,0.2,0.3,0.5,0.3,0.8c0,0.1,0,0.3-0.1,0.4c-0.1,0.1-0.1,0.3-0.3,0.4c-0.2,0.2-0.5,0.3-0.8,0.3
			c-0.3,0-0.6-0.1-0.8-0.3c-0.1-0.1-0.2-0.2-0.3-0.4C109.6,32.1,109.5,31.9,109.6,31.8z M109.9,31.8c0,0.2,0,0.3,0.1,0.5
			c0.1,0.1,0.2,0.2,0.4,0.3c0.1,0.1,0.3,0.1,0.5,0.1c0.2,0,0.3-0.1,0.4-0.2c0.1-0.1,0.1-0.2,0.2-0.3c0-0.1,0.1-0.2,0.1-0.3
			c0-0.1,0-0.2-0.1-0.3c0-0.1-0.1-0.2-0.2-0.3c-0.2-0.2-0.4-0.2-0.6-0.2c-0.2,0-0.4,0.1-0.6,0.2c-0.1,0.1-0.1,0.2-0.2,0.3
			C109.9,31.6,109.9,31.7,109.9,31.8L109.9,31.8z"/>
		<path class="st1" d="M112.3,30.7l0.6,1.5l0.6-1.6l0.6,1.6l0.6-1.5h0.4l-1,2.3l-0.6-1.6l-0.6,1.6l-0.9-2.3H112.3z"/>
	</g>
</g>
</svg>
