<svg width="112" height="115" viewBox="0 0 112 115" fill="none" xmlns="http://www.w3.org/2000/svg">
<g opacity="0.6">
<path d="M47.0661 40.934L47.0657 40.9343C44.5637 43.2861 43.1802 46.4539 43.1802 49.8459V50.4747C43.1802 51.0806 43.6482 51.6366 44.2964 51.6366H47.9935C48.6417 51.6366 49.1097 51.0806 49.1097 50.4747V49.8459C49.1097 46.5238 52.152 43.7265 56.004 43.7265C59.856 43.7265 62.8983 46.5238 62.8983 49.8459C62.8983 52.1905 61.3515 54.3815 58.8872 55.3988C57.155 56.1098 55.6903 57.354 54.6443 58.9741L54.6436 58.9753C53.5794 60.6332 53.0316 62.6147 53.0316 64.6153V66.3942C53.0316 67.0001 53.4996 67.5562 54.1478 67.5562H57.8449C58.4931 67.5562 58.9611 67.0001 58.9611 66.3942L58.9611 64.5185C58.9611 64.5182 58.9611 64.518 58.9611 64.5177C58.9648 63.8075 59.1677 63.1176 59.5396 62.5384C59.9115 61.9592 60.4333 61.5197 61.0327 61.271C65.7566 59.3183 68.8197 54.8385 68.8202 49.847C68.8282 46.4543 67.4445 43.2863 64.9427 40.9346C62.5368 38.6689 59.3632 37.431 56.004 37.431C52.6441 37.431 49.471 38.6777 47.0661 40.934ZM56.0002 20.3311C35.9237 20.3311 19.6602 36.8979 19.6602 57.3111C19.6602 77.7242 35.9237 94.291 56.0002 94.291C76.0766 94.291 92.3401 77.7242 92.3401 57.3111C92.3401 36.8979 76.0766 20.3311 56.0002 20.3311ZM56.0002 87.1025C39.8526 87.1025 26.7402 73.7687 26.7402 57.3111C26.7402 40.8534 39.8526 27.5196 56.0002 27.5196C72.1477 27.5196 85.2601 40.8534 85.2601 57.3111C85.2601 73.7687 72.1477 87.1025 56.0002 87.1025ZM52.4231 75.6613C52.4231 76.6606 52.7923 77.6256 53.4595 78.3423C54.1278 79.0603 55.0423 79.471 56.004 79.471C56.9658 79.471 57.8802 79.0603 58.5486 78.3423C59.2158 77.6256 59.585 76.6606 59.585 75.6613C59.585 74.662 59.2158 73.6971 58.5486 72.9804C57.8802 72.2624 56.9658 71.8517 56.004 71.8517C55.0423 71.8517 54.1278 72.2624 53.4595 72.9804C52.7923 73.6971 52.4231 74.662 52.4231 75.6613Z" fill="#F0AA00" stroke="#F0AA00"/>
</g>
</svg>
