<?xml version="1.0" encoding="utf-8"?>
<!-- Generator: Adobe Illustrator 25.3.1, SVG Export Plug-In . SVG Version: 6.00 Build 0)  -->
<svg version="1.1" xmlns="http://www.w3.org/2000/svg" xmlns:xlink="http://www.w3.org/1999/xlink" x="0px" y="0px"
	 viewBox="0 0 225.3 145.4" style="enable-background:new 0 0 225.3 145.4;" xml:space="preserve">
<style type="text/css">
	.st0{fill:#FFFAEA;}
	.st1{fill:#BAC579;}
	.st2{fill:#FFFFFF;}
	.st3{fill:#FAFAFC;}
	.st4{opacity:0.15;}
	.st5{fill:#90D1D4;}
	.st6{fill:#B98854;}
	.st7{fill:#BAC579;stroke:#BAC579;stroke-width:1.0166;stroke-miterlimit:10;}
	.st8{opacity:0.2;fill:#009ECF;}
	.st9{clip-path:url(#SVGID_2_);}
	.st10{fill:none;stroke:#000000;stroke-miterlimit:10;}
	.st11{fill:#EAC04B;}
	.st12{fill:#EBAC29;}
	.st13{fill:#F4E8D8;}
	.st14{filter:url(#Adobe_OpacityMaskFilter);}
	.st15{mask:url(#SVGID_3_);}
	.st16{fill:none;stroke:#000000;stroke-width:0.6206;}
	.st17{fill:#B60005;}
	.st18{display:none;}
	.st19{display:inline;}
	.st20{fill:#F0B5BE;}
	.st21{display:inline;fill:#FFFFFF;}
</style>
<g id="bg">
</g>
<g id="front">
	<g>
		<g>
			<path class="st2" d="M110,128.1c0.2,0,0.5,0,0.9,0.1L110,128.1z"/>
			<path class="st2" d="M103.5,128l0.2,0.1C103.9,128.1,103.8,128.1,103.5,128z"/>
			<path class="st2" d="M55.8,123.6l-1.5,0.6C55,123.9,55.5,123.7,55.8,123.6z"/>
			<path class="st2" d="M145.5,128.4l-1.1-0.2C144.6,128.3,143.9,128.5,145.5,128.4z"/>
			<path class="st2" d="M184.6,33.8c0.1,0.1,0.1,0.1,0.2,0.2C184.7,33.9,184.6,33.8,184.6,33.8z"/>
			<path class="st2" d="M191.9,97.5c0,0.1,0,0.1-0.1,0.2C192.2,97.1,192.4,96.8,191.9,97.5z"/>
			<path class="st2" d="M42.4,110.6C42.4,110.6,42.3,110.6,42.4,110.6C42.3,110.6,42.3,110.6,42.4,110.6L42.4,110.6z"/>
			<path class="st2" d="M42.3,111.2c-0.1,0.1-0.1,0.1-0.2,0.2c-0.2,0.1-0.3,0.3-0.5,0.5c0.3-0.2,0.6-0.4,0.8-0.4
				c0.2-0.1,0.5-0.2,0.8-0.4c0-0.1-0.1-0.2-0.2-0.2c-0.2-0.1-0.5-0.1-0.7-0.2c0.1,0.1,0.2,0.1,0.2,0.2
				C42.5,111,42.4,111.1,42.3,111.2z"/>
			<path class="st2" d="M181.1,113c-0.1,0.1-0.1,0.1-0.2,0.2C180.9,113.2,181,113.1,181.1,113z"/>
			<path class="st2" d="M107.2,128c0.1,0,0.2,0,0.3,0L107.2,128z"/>
			<g>
				<polygon class="st2" points="106.1,97.7 106.1,98.1 106.2,99.4 106.5,99.5 109.4,99.4 109.5,97.8 107,97.7 				"/>
				<polygon class="st2" points="123.9,60.8 123.9,59.4 123.5,57.1 118.8,57.2 117.9,57.3 118,62.4 121.8,62.2 124,62 124,61.7 				
					"/>
				<path class="st2" d="M106.5,79.2l-5.9,0.2l-0.3,3.9l3.4,0.1c1-0.2,2.1-0.2,3.2-0.2c1.1,0,2.2,0,3.2-0.1l4,0.1l0.1-0.1l4.7,0.2
					l0-0.3l0.3-3c-1-0.4-2.1-0.6-3.2-0.6L106.5,79.2z"/>
				<polygon class="st2" points="106.4,93.4 106.2,94.9 107,95 109,94.9 109.5,95 109.5,93.3 108.1,93.3 				"/>
				<path class="st2" d="M112.3,93.5l-0.1,1.6l2.3,0.1l1.3-0.1l0-0.7l-0.2-0.6C114.6,93.7,113.5,93.6,112.3,93.5z"/>
				<polygon class="st2" points="108.8,111.9 107.5,111.7 107.4,112.7 107.6,114.4 111.7,114.6 113.3,114.5 113.4,111.8 
					111.1,111.8 				"/>
				<path class="st2" d="M135.6,54.3l0.1,5.6l0.3,1.5l3.6-0.1l2.9,0l2.4-0.2l-0.2-4.9l-0.1-1.9c-1.4-0.1-2.7-0.1-4.1-0.2
					c-1.3,0-2.7,0-4.1,0L135.6,54.3z"/>
				<path class="st2" d="M198.5,73.7c-0.3,2.1-0.3-1.3-0.5,0.6c0.1-2.3,0.3-2.4,0.4-3.5l-0.2-0.7c0.1-1.5,0.2-1.7,0.3-2.1
					c0-0.2,0-0.4,0.1-0.9c0-0.5,0.1-1.2-0.1-2.4c0.1,1.6-0.6-1.8-0.5-0.6c-0.2-1.3-0.3-2.5-0.4-3.5l0,0.2c-0.1-0.6-0.2-1.1-0.3-1.5
					c-0.1-0.4-0.2-0.8-0.3-1.1c-0.2-0.6-0.3-1.1-0.5-1.5c-0.3-0.9-0.4-1.7-1.1-3.7l0.3,0.4c-0.4-1.3-0.9-2.8-1.4-4.2
					c-0.7-1.4-1.3-2.9-2-4.3c-0.8-1.4-1.7-2.8-2.5-4.1c-0.4-0.7-0.8-1.3-1.3-1.9c-0.4-0.6-0.9-1.2-1.3-1.8l1.3,1.6
					c-0.2-0.2-0.8-1.1-1.4-2c-0.3-0.5-0.7-1-1.1-1.4c-0.4-0.4-0.8-0.8-1.1-1.1c0.2,0.3,0.6,0.8,0.9,1c-0.1,0-0.8-0.4-1.7-1.4
					l-0.2-0.5l-0.5-0.3c-1.4-1.6,0.6,0.3-0.8-1.3c-0.7-0.2-2.4-1.8-4.1-3.3c-1.9-1.4-3.9-2.9-4.7-3.2c-0.9-1.2,3.3,2.3,2.2,1.1
					c-0.6-0.3-0.8-0.5-2-1.3l0.5,0.1c-1.4-0.9-2.6-1.5-3.6-2.1c-0.5-0.3-1-0.6-1.5-0.9c-0.5-0.2-1-0.4-1.5-0.7c-1-0.4-1.9-0.9-3-1.3
					c-1-0.5-2.2-0.8-3.6-1.3l0.2,0.1c-1-0.3-1.7-0.6-2.3-0.8c-0.6-0.2-1.1-0.4-1.5-0.6c-0.4,0,1,0.4,0.2,0.3
					c-0.8-0.4-1.7-0.7-2.5-0.9c-0.4-0.1-0.9-0.2-1.3-0.3c-0.4-0.1-0.8-0.1-1.2-0.1c-1.6-0.1-3.1-0.2-4.1-0.5
					c0.1,0.2-0.7,0.3-1.5,0.5c-1.5-0.1-3.1-0.2-4.6-0.2H83c-1.9,0-3.8,0.1-5.7,0.3c-0.1,0-0.1,0-0.2,0c-0.1,0-0.1,0-0.2,0
					c-2.1,0.2-4.2,0.6-6.2,1c-0.3,0-0.5,0-0.6,0c-0.4,0.1-0.1,0.1,0.1,0.1c-0.4,0.1-0.8,0.2-1.1,0.3L68.2,18c0,0,0,0.1,0,0.1
					c-2.5,0.7-4.9,1.6-7.3,2.6c0.2-0.1,0.5-0.2,0.7-0.3l0.5-0.3c-0.5,0.2-1,0.4-1.4,0.7c-2.1,0.9-4.2,2-6.2,3.2
					c-0.3,0.1-0.8,0.4-1.2,0.5c-0.4,0.3-0.9,0.6-1.5,1c-0.5,0.4-1,0.8-1.6,1.2c-0.5,0.4-1.1,0.8-1.7,1.3c-0.6,0.4-1.1,0.8-1.6,1.3
					c-0.4,0.4-0.9,0.8-1.3,1.2c-0.1,0.1-0.1,0.1-0.2,0.2c-0.4,0.4-0.8,0.8-1.2,1.1c-0.3,0.3-0.6,0.6-0.8,0.8
					c-2.8,2.8-5.2,5.9-7.3,9.2c-0.4,0.4-0.7,0.5-0.8,0.5c0.2-0.3,0.5-0.7,0.8-1.2c0.3-0.4,0.6-0.9,1-1.3c0.7-0.8,1.2-1.6,1.2-1.8
					c-0.5,0.6-1.2,1.4-1.8,2.1c-0.5,0.7-1,1.3-1.1,1.3c-0.5,1.6,1.6-2.5,0.8-0.5c-0.6,0.9-0.9,1.3-1.3,1.7c0.5-0.6-0.3,1-0.4,1.3
					c-0.2,0.4-0.4,0.7-0.7,1.1c-0.2,0.4-0.3,0.7-0.5,1.1c-0.3,0.7-0.6,1.3-0.9,2c-0.3,0.7-0.6,1.3-0.9,2.1c-0.2,0.5-0.4,1.1-0.6,1.6
					c-0.4,1.1-0.8,2.2-1.2,3.3c-0.5,1.1-1,1.9-1.1,1.5c-0.5,2.2-0.5,2.3-1,4.1c0.1-1.5,0.2-1.4,0-0.8c-0.1,0.5-0.2,1.5-0.4,1.7
					c-0.3,1.9,0.1,0.7,0,1.6c-0.1,0.3-0.3,1.1-0.4,1.1c0.1,1,0.7-1.1,1-1.1c-0.1,1-0.3,1.9-0.4,2.9l-0.1,0l0,0.6l0.1-0.1
					c-0.1,0.9-0.1,1.9-0.2,2.8c-0.4-0.1-0.9-0.5-1.1-1.3c-0.2,0.1,0.1,1.9,0.1,2.7c0.3,2.5-0.2,3.8,0.1,5.8l0.1-1.6
					c0.1,0.2,0.1,1,0.1,1.9c0,0.9,0.1,1.7,0.1,2c0.1,0.1,0.4-1.6,0.7-0.7c0.2,1.8,0.4,3.6,0.5,4.9c0.1,1.3,0,2.2-0.2,2.1
					c-0.3-1.9-0.6-3.8-0.7-5.6c-0.4-0.2,0.4,4,0,3.9l0.6,2.5l0.8,2.5c-0.2-0.6-0.6-2.6-0.3-1.9c0.6,2.2,0.3,1.1,0.9,2.5
					c-0.1-0.6-0.2-1.4-0.3-2.2c-0.1-0.8-0.1-1.7-0.2-2.6c0-0.3,0-0.5,0-0.8c0.3,1.4,0.7,2.9,1.1,4.2c0,0.1,0,0.2,0,0.3
					c0.1,1.4,0.1,2.4,0.1,2.9c0.8,1.9,1.1,1,1.1,0.5c0.7,1.8,0.9,2.8,1.1,3.7c0.2,1,0.5,1.9,1.4,3.7c-0.3-0.4-0.5-0.8-0.8-1.3
					c0.3,0.9,2.2,3.8,1.9,3.5c0.6,0.6,1.3,1,0.9,0.2c0.5,1.1,0.9,2.2,1.5,3.2c-0.3-0.5,0.4-0.5,0.3-0.7c0.8,1.1,1,2.3,0.3,1.6
					c2,1.9,1.4,1.6,3.2,3c0.5,0.6-0.4,0.3-0.9-0.1c0.6,0.7,1,1.3,1.5,1.8c0.1,0.1,0.2,0.2,0.3,0.3c0.1,0.1,0.1,0.1,0.2,0.1
					c0.1,0.1,0.2,0.2,0.3,0.2c-0.1-0.1-0.2-0.3-0.2-0.4c0,0-0.1-0.1-0.1-0.2c0-0.1-0.1-0.2-0.1-0.2c-0.1-0.2,0-0.4,0.2-0.4
					c0.1-0.1,0.3-0.1,0.4-0.1c0.5,0.5,0.9,1,1.4,1.5c0,0,0,0,0,0c-0.3,0.3-0.6,0.6-0.9,0.8l-0.4,0.3l-0.4,0.4l-1.7,1.5
					c0.2-0.1,0.9-0.2,0.9-0.2c-0.7,0.2-5.1,6.1-7.3,9l0.3-0.4c0.6-0.5-1.2,2.1-2.1,3c0.2-0.1,0.4-0.4,0.7-0.8
					c-0.1,0.3-0.3,0.5-0.4,0.7c-0.1,0.1-0.2,0.2-0.2,0.3c-0.1,0.1-0.2,0.2-0.2,0.4c-0.3,0.5-0.5,1-0.6,1.5c-0.1,0.5,0,1.1,0.4,1.7
					c0.3,0.5,0.9,1.1,1.8,1.3c-0.8-0.2-1.3-0.7-1.6-1.1c-0.3-0.4-0.4-0.7-0.5-1c-0.1-0.5,0-0.6,0.1-0.6c0,0.6,0.4,1.3,1,1.9
					c0.6,0.5,1.6,0.8,2.4,0.6c0.4-0.1,0.6-0.2,0.9-0.2c0.2-0.1,0.4-0.1,0.6-0.1c0.3,0,0.4,0,0.3,0.2c1.1-0.5,2.1-0.7,1.9-0.9
					l4.4-1.1c-0.3,0.1-0.7,0,0.6-0.4c-2.4,0.8-4.9,1.1-6,1.8c-0.2-0.3,0.7-0.7-0.5-0.6c4.7-1.3,7.4-1.6,10.5-2.2l4-1.5L52,125
					l0.6-0.6c0.5-0.1,0.9-0.1,1-0.2c0.1-0.1-0.1-0.1-0.3-0.1c0.4-0.1,0.8-0.2,1.1-0.2c0.1-0.2-0.7-0.2-1.5-0.2
					c-0.3,0.2-0.7,0.4-1.1,0.6c-0.5,0-0.9,0.1-1,0l1.5-0.5c0.2,0,0.3,0,0.5,0c0.1-0.1,0.2-0.1,0.3-0.2c-0.1,0-0.3,0.1-0.4,0.1
					l0.7-0.2c-0.1,0-0.2,0.1-0.3,0.1c2-0.4,4.4-0.8,2.7,0l2.3-1c0.9-0.2,1-0.2,1.2-0.1c0.1,0.1,0.2,0.1,0.3,0.2
					c0.1,0,0.1,0.1,0.3,0.2c0.3,0.1,0.5,0.3,0.8,0.4c0.6,0.3,1.3,0.6,2.5,1.2c0.2,0-0.6-0.5,0-0.4c2.3,1.4,6.3,1.5,6.8,1.9
					c2.1,0.6,0.8,0.5,2.1,0.9c-0.1-0.1-0.2-0.2,0.2-0.1c0.5,0.2,1,0.4,1.6,0.5c0.7,0-1.4-0.4,0.4-0.2c3.1,0.7,4.9,0.9,7.5,0.9
					c3.7,0.1-1.6,0.5,1.5,0.5c0.5-0.2,0.9-0.5,2.8-0.5c1,0.2,0.9,0.3,2.6,0.4l-0.1-0.3c1.6,0,2.9,0.1,2.9-0.2
					c1.3,0.1,2.2,0.1,2.9,0.1c2.4,0.2-1.8,0.7-2.3,0.8c2.4-0.3,4-0.1,5.4-0.5l-2.1-0.1c4.5-0.4,4.3,0.5,6.4-0.2
					c-1.5,0-3.4-0.2-2.5-0.3l2.2,0.2c0.3-0.1-1.3-0.1-0.3-0.2c0.6,0.1,1.9,0.2,2.5,0.4l0,0l3.7,0.1c-0.5,0-0.5-0.1,0.1-0.1l2.6,0.2
					c-0.8-0.1,0-0.2,1.2-0.2c3.4-0.1,2.7,0.8,5.4,0.4c-0.4,0-0.4,0-0.8,0l1.4-0.1c0.3,0.7,8,0.1,8.3,0.8c1.9-0.3,0.1-0.2-2.4-0.5
					l2.1-0.2c-0.8,0-1.5,0-2.4,0c2.7-0.3,5.2,0.1,6.7,0.3c1-0.1-0.8-0.5,2.1-0.4c4.2,0.1-0.8,0.5,1.7,0.6l1.8-0.4
					c3.2,0.3,5.5,0.1,8.3-0.1c0.6,0,0.9,0,1.1,0.1c0.7-0.1,1.5-0.1,2.2-0.1c0.7,0,1.5,0,2.2-0.1c1.4-0.1,2.8-0.2,3.9-0.5
					c-0.5,0,1.2-0.4,1.4-0.6l3.9-0.8c-1.7,0.3-1.7,0.1-2.1,0c1.2-0.3,1.8-0.3,2.6-0.5c-0.5,0.1-1,0.1-0.4-0.1c0.3-0.1,0.7-0.1,1-0.2
					l1-0.3l2-0.6c-0.2,0.1-0.7,0.3-1,0.4c0.5-0.2,1.3-0.4,2.1-0.7c0.4-0.2,0.9-0.3,1.2-0.5c0.4-0.2,0.8-0.4,1.1-0.6
					c-0.2,0-0.6,0.1-0.8,0.1c-1,0.8-1.8,0.7-2.5,0.8c2.7-1,0.7-0.3,1.9-0.9c1.8-0.9,2.7-1,2.3-0.6c1-0.5,1.7-0.9,2.4-1.2
					c0.7-0.3,1.3-0.7,2.4-1.2l-0.5,0l1.9-1l-1.7,0.6c1.7-1.1,1.9-1.1,2.2-1.2c0.1,0,0.3,0,0.7-0.2c0.3-0.2,0.9-0.6,1.8-1.3l-0.1-0.2
					c1.4-1,2.2-1,3.1-2.1c1.4-1-2,2.2,1.1-0.4c0.4-0.6,1.5-1.7,2.3-2.5c0.9-0.7-0.2,0.6-0.9,1.2c1-0.9,1.7-1.5,2.1-2.1
					c0.4-0.6,0.7-1,0.9-1.4c0.2-0.4,0.4-0.7,0.8-1.2c0.2-0.3,0.4-0.5,0.8-0.9c0.3-0.3,0.6-0.8,1.1-1.3c-0.5,0.8-0.2,0.6,0,0.6
					c0.1,0,0.1,0.1-0.1,0.3c-0.1,0.1-0.2,0.3-0.4,0.6c-0.2,0.2-0.5,0.6-0.9,1c0.4-0.4,0.7-0.7,1-1.2c0.3-0.4,0.6-0.9,0.9-1.3
					c0.6-0.9,1.1-1.8,1.9-2.6l-1.1,1c0.5-0.6,1.1-1.3,1.4-1.6l-0.3,0c0.9-1,1.5-2.1,2-3.1c0.3-0.5,0.5-0.9,0.8-1.3
					c0.3-0.4,0.5-0.8,0.8-1.1c-0.9,0.8,0.9-1.8,1.2-2.9c-0.6,0.9-1.3,2.4-1.9,3.6c-0.7,1.2-1.3,2.1-1.5,2.1c0.4-1,1.1-1.6,1.4-2.6
					c-0.3,0.6-1,1.4-1.2,1.6c0.2-0.4,0.4-0.7,0.6-1.1c0.2-0.3,0.3-0.7,0.5-1c0.3-0.6,0.6-1.2,0.9-1.7c0.6-1,1.2-1.8,1.6-2.8
					c-0.5,1.1-1.1,2.2-1.6,3.3c0.5-0.1,0.8-1.4,1.5-2.2c0.5-1.8,1.2-3,1.6-4.5c-0.1,0.4-0.2,0.4-0.3,0.8c0.7-1.9,0.8-3.2,0.9-4.1
					c0.1-1,0.1-1.7,0.3-2.4c0.2-0.7,0.4-1.8,0.6-2.6c0.2-0.8,0.4-1.2,0.4-0.7c0.2-0.6-0.1,0.7-0.2,1.9c-0.1,0.6-0.2,1.1-0.2,1.4
					c0,0.3,0.1,0.3,0.3-0.2c0-1.2,0.1-2.3,0.5-3.8c0.1-0.7,0.3-1.6,0.5-2.5C198.5,76.1,198.5,75,198.5,73.7z M48.9,125.4
					c0.7-0.3,1.3-0.5,1.8-0.6C50,125.1,49.4,125.4,48.9,125.4z M75.6,38.4l-0.1-5.9c0-0.9,0.5-1.4,1.3-1.4c1.1,0,1.6,0.5,1.6,1.3
					l0.1,5.9c0,0.4,0.5,0.9,1,0.9l0.5,0c0.4,0,0.9-0.6,0.9-1l-0.2-5.9c0-0.9,0.5-1.4,1.4-1.4c0.9,0,1.4,0.5,1.4,1.4l0.1,5.9
					c0,0.4,0.5,0.9,1,0.9l2.6-0.1c0.9,0,1.4,0.5,1.5,1.4c0,0.9-0.5,1.4-1.4,1.5l-15.3,0.4c-0.9,0-1.4-0.5-1.5-1.4
					c0-0.9,0.5-1.4,1.4-1.5l2.7-0.1C75.1,39.4,75.6,38.8,75.6,38.4z M71.3,33.5c1,0,1.6,0.6,1.9,1.3l0.4,1.5c0.3,0.8-0.2,1.4-1,1.5
					c-1,0-1.7-0.6-2-1.4l-0.4-1.5C70.1,34.1,70.6,33.5,71.3,33.5z M81.5,97.2l-5.7,0.4L71,97.7l-0.1,1.8l0.1,4.2l-0.1,0.1l0.1,6.9
					l-0.1,0.9l0.1,1c-0.2,0.5-0.5,0.8-0.9,1l-0.8,0l-1.1-0.9l-0.1-1.9l0.1-0.1l-0.1-6.7l0.1-0.1l-0.1-4.2l0.1-1.9l-10,0.2L57,97.2
					c-0.3-0.3-0.4-0.7-0.3-1.2c0.2-0.5,0.5-0.8,1-1l10.4-0.2L68.1,91c0.2-0.8,0.2-1.7,0.2-2.6c-0.1-0.9-0.1-1.8,0.1-2.6l-0.6,0
					c-0.9,0.2-1.8,0.4-2.8,0.5c-1,0.1-2,0.2-3,0.2c-0.5-0.2-0.8-0.5-1-0.9l0-0.8c0.2-0.5,0.5-0.8,1-1.1c2.3,0,4.5-0.3,6.6-1.1
					c2.1-0.8,4.1-1.6,6.2-2.4c0.5,0.2,0.8,0.5,1,0.9l0,0.8c-0.4,0.7-1,1.2-1.8,1.5l-2.8,1.3l-0.3,6.2l0.1,4l4.8-0.1l5.7-0.3
					c0.5,0.2,0.8,0.5,1,0.9l0,0.8C82.3,96.7,82,97,81.5,97.2z M87.6,62.1l-14.9,2.2c-0.9,0.1-1.4-0.4-1.5-1.2c0-1,0.5-1.5,1.4-1.7
					l5.1-0.7c0.6-0.1,1.1-0.6,1.1-1.1l-0.1-2c0-0.4-0.5-0.9-1.2-0.9l-3,0.1c-0.9,0-1.4-0.5-1.5-1.4c0-0.9,0.5-1.4,1.4-1.5l3-0.1
					c0.6,0,1.1-0.6,1.1-1l0-1.3c0-0.4-0.5-1-1.2-1l-4.1,0.1c-0.9,0-1.4-0.5-1.5-1.4c0-0.9,0.5-1.4,1.4-1.5l0.8,0
					c0.5,0,0.7-0.5,0.7-0.9l-0.6-2c-0.3-0.8,0.2-1.4,1-1.4c1,0,1.6,0.6,1.9,1.3l0.7,1.9c0.1,0.6,0.7,0.9,1.2,0.9l1.9,0
					c0.4,0,1-0.3,1.1-0.9l0.4-1.9c0.2-0.8,0.9-1.4,1.8-1.4c0.8,0,1.2,0.5,1.1,1.4l-0.4,2c-0.1,0.3,0.4,0.8,0.7,0.8l0.9,0
					c0.9,0,1.4,0.5,1.5,1.4c0,0.9-0.5,1.4-1.4,1.5l-4.2,0.1c-0.4,0-0.9,0.6-0.9,1l0,1.3c0,0.4,0.6,0.9,1,0.9l3.1-0.1
					c0.9,0,1.4,0.5,1.4,1.4c0,0.9-0.5,1.4-1.4,1.5l-3.1,0.1c-0.4,0-0.9,0.6-0.9,1l0,1.6c0,0.4,0.6,0.9,1,0.8l4.9-0.7
					c0.8-0.1,1.4,0.3,1.4,1.2C89,61.4,88.5,62,87.6,62.1z M89.3,34.8l-0.4,1.4c-0.3,1-1.2,1.7-2.2,1.7c-0.8,0-1.4-0.8-1.2-1.6
					l0.4-1.4c0.3-1,1.1-1.7,2.2-1.7C88.9,33.2,89.5,34,89.3,34.8z M118.3,30.2l0.9,0c0.5,0.2,0.8,0.5,1,0.9l0.4,3.5
					c-0.2,0.4-0.5,0.7-0.9,1l-0.9,0c-0.5-0.2-0.8-0.5-1-0.9l-0.5-3.5C117.5,30.8,117.8,30.4,118.3,30.2z M113.1,38.6
					c0.2-0.5,0.5-0.8,0.9-1l11-0.7c0.5,0.1,0.8,0.4,1,0.9l0,0.8c-0.2,0.5-0.6,0.9-1.2,1.1l-10.4,0.7l-1.1-0.5
					C113.2,39.5,113,39.1,113.1,38.6z M123.3,45.9l-1.5,0.3l-5.2,0.2l-1.2,0.1c-0.5-0.2-0.8-0.5-1-0.9l0-0.7c0.2-0.5,0.5-0.8,1-1
					l1.2-0.2l5.2-0.2l1.6-0.2c0.5,0.2,0.8,0.5,1,0.9l0,0.8C124.1,45.4,123.7,45.7,123.3,45.9z M124.1,50.6c-0.2,0.4-0.5,0.7-1,1
					l-0.4,0.1l-5.3,0.2l-1.3,0.1c-0.5-0.2-0.8-0.5-1-0.9l0-0.8c0.2-0.4,0.6-0.8,1-1l1.3-0.2l4.8-0.2l0.9-0.1c0.5,0.2,0.8,0.5,1,0.9
					L124.1,50.6z M90.4,39.4c0-0.9,0.5-1.6,1.4-1.6l5.9-0.2c0.4,0,0.9-0.6,0.9-1L98.5,32c0-0.9,0.5-1.4,1.4-1.5
					c0.9,0,1.4,0.5,1.5,1.4l0.1,4.7c0,0.4,0.5,0.9,0.9,0.9l1,0c0.9,0,1.4,0.7,1.5,1.6c0,0.9-0.5,1.4-1.4,1.4l-1,0
					c-0.4,0-0.9,0.5-0.8,0.9l0.6,22c0,0.9-0.5,1.4-1.4,1.5c-0.9,0-1.4-0.5-1.5-1.4l-0.6-21.9c0-0.4-0.5-1-1-1l-5.9,0.2
					C91,40.8,90.4,40.3,90.4,39.4z M95.9,53.7c-1,0-2-0.6-2.3-1.5l-1.7-4.4c-0.3-0.7,0.2-1.6,1.1-1.7c1,0,2,0.6,2.3,1.6l1.7,4.3
					C97.2,52.8,96.7,53.7,95.9,53.7z M94.3,128c1-0.1,1.5-0.2,2.2,0.1C96.1,128.2,94.9,128,94.3,128z M116.2,109.6l-0.2,5.6
					c-0.3,0.6-0.7,1.2-1,1.8c-1,0.4-2,0.5-3.1,0.4l-5.5-0.2l-1-0.6c-0.5-1.3-0.7-2.7-0.7-4.2c0-1.5,0-3,0.1-4.5
					c0-1.4,0.4-2.5,1.1-3.5c1.2-0.2,2.4-0.3,3.6-0.3l4.2,0.1c0.8,0,1.5,0.3,2,1C116.1,106.6,116.3,108,116.2,109.6z M118.6,100.5
					l-0.9,1.5c-0.7,0.3-1.5,0.4-2.4,0.3c-0.9-0.1-1.7-0.1-2.5,0l-4-0.1l-4.3,0c-0.4-0.2-0.8-0.5-0.9-1l-0.3-2.8l0.1-4.1
					c0-1.1,0.3-2.1,0.9-3c0.6-0.5,1.3-0.7,2.1-0.7l0-0.3c-0.4-0.7-0.6-1.5-0.6-2.4c0.2-0.4,0.5-0.8,1-0.9l0.8,0
					c0.6,0.3,0.9,0.7,1.1,1.3l0.7,2.2l3,0.2c0.2-1.2,0.7-2.3,1.5-3.3c0.3-0.2,0.8-0.3,1.3-0.2c0.4,0.2,0.8,0.5,0.9,1l0,0.9l-0.7,1.9
					c1.1,0,2,0.4,2.9,1.2c0.4,1,0.6,2,0.7,3.2L118.6,100.5z M122.1,81.7c-0.1,1.5-0.4,2.9-1,4.3c-0.3,0.2-0.8,0.3-1.3,0.2l-0.7-0.1
					l-0.1,0.1l-4.9-0.2l-0.1,0.1l-4-0.1c-1.7,0-3.3,0-5,0.1c-1.6,0.1-3.3,0.1-5.1,0c-0.3,3.7-0.8,7.4-1.6,11
					c-0.8,3.6-2.3,7-4.5,10.2c-0.3,0.2-0.8,0.3-1.3,0.2c-0.4-0.2-0.8-0.5-0.9-1l0-0.8c2.5-4.1,4.1-8.5,4.8-13.2
					c0.7-4.7,1.1-9.4,1.4-14.1l-0.1-0.9c0.2-0.4,0.5-0.8,1-0.9l7.8-0.3l9.8,0.3c0.9,0.2,1.8,0.3,2.7,0.3c0.9,0.1,1.8,0.4,2.5,1
					C122.1,79.1,122.2,80.4,122.1,81.7z M126.3,64.5l-4.4,0.5l-5.6,0.2c-0.5-0.2-0.8-0.5-1-0.9l-0.3-5.3c-0.1-1.6,0.3-3,0.9-4.2
					c0.3-0.3,0.7-0.4,1.2-0.4c0.5,0.2,0.9,0.3,1.4,0.2l2.4-0.2c1.8-0.3,3.5,0,4.9,0.9c0.3,0.8,0.6,1.6,0.8,2.6
					c0.2,0.9,0.3,1.9,0.3,2.9l-0.1,0.5c0.1,0.8,0.3,1.6,0.4,2.3C127.1,64,126.7,64.3,126.3,64.5z M130.2,46.5
					c-0.5-0.2-0.8-0.5-1-0.9l0-0.8c0.2-0.5,0.5-0.8,0.9-1l1.1-0.2l6.6-0.3l-0.2-4.9l0-2l-0.3,0c-1,0.3-1.9,0.6-2.9,1
					c-0.9,0.3-1.9,0.5-2.9,0.5c-0.5-0.2-0.8-0.5-1.1-1l0-0.8l0.7-1c2.2-0.4,4.4-1,6.4-1.8c2.1-0.8,4.1-1.7,6.2-2.6
					c0.5,0.2,0.8,0.5,1,0.9l0,0.8c-0.8,1-1.8,1.8-3,2.3l-1.5,0.5l0,3.1l0.2,4.9l1.6-0.1l1.1-0.2l5.3-0.2c0.5,0.2,0.8,0.5,1,0.9
					l0,0.8c-0.2,0.5-0.5,0.8-0.9,1l-0.4,0.1l-4.9,0.2l-2.7,0.3l0,3.5l0.2,1.7c0.9,0,1.9,0.1,3,0.1c1,0,2,0.3,2.9,0.8
					c0.5,1.2,0.8,2.5,0.8,3.9l0.2,6l0.1,0.9c-0.2,0.5-0.5,0.8-0.9,1l-0.4,0.1c-1.1-0.1-2.4-0.2-3.7,0l-2.9,0.2l-0.1-0.1l-4.5,0.2
					c-0.8-0.2-1.3-0.7-1.7-1.5c-0.2-1-0.4-2-0.5-3c-0.1-1-0.1-2.1-0.1-3.2c-0.1-1.6,0.1-3.2,0.5-4.6c0.8-0.2,1.5-0.4,2.3-0.6
					c0.7-0.2,1.5-0.3,2.3-0.2l-0.1-1.4l-0.1-1.3l0-2.3l-6.5,0.3L130.2,46.5z M131.3,92.9c0.2-0.5,0.5-0.8,1-1l0.9,0
					c0.8,0.4,1.5,0.8,2.3,1.3c0.7,0.5,1.5,1,2.3,1.4c0.3,0.3,0.4,0.7,0.3,1.3c-0.2,0.5-0.6,0.8-1,1l-0.5,0.1
					c-0.9-0.3-1.7-0.7-2.5-1.3c-0.8-0.5-1.6-1.1-2.4-1.6C131.4,93.9,131.3,93.5,131.3,92.9z M136.4,109.9c-0.4,1.4-0.9,2.7-1.6,4
					c-0.3,0.3-0.7,0.4-1.3,0.3c-0.5-0.2-0.8-0.5-1-1l0-1c0.4-1.4,0.9-2.7,1.3-4c0.4-1.3,1-2.6,1.8-3.8c0.4-0.3,0.8-0.4,1.3-0.3
					c0.5,0.2,0.8,0.5,1,1l0,0.8C137.4,107.1,136.8,108.5,136.4,109.9z M139.3,85.1l-0.8,0c-0.9-0.5-1.8-1.1-2.6-1.9
					c-0.8-0.8-1.5-1.6-2.1-2.5l0-0.8c0.2-0.5,0.5-0.8,1-1l0.8,0c0.8,0.7,1.6,1.4,2.4,2.1c0.8,0.7,1.6,1.4,2.3,2.1l0,0.9
					C140.1,84.6,139.8,84.9,139.3,85.1z M146.3,104.9c-0.8,3.5-1.8,6.6-3.1,9.2c-0.3,0.3-0.7,0.4-1.3,0.3c-0.5-0.2-0.8-0.5-1-1l0-1
					c1.1-2.9,2-6.1,2.8-9.8c0.8-3.7,1.2-7.1,1.1-10.1c0.1-1.3,0-2.5-0.2-3.8c-0.2-1.2-0.4-2.4-0.7-3.6c0.2-0.5,0.5-0.8,1-1
					c2.3-0.8,4.6-1.8,6.7-2.9c2.2-1.1,4.5-2.1,6.8-2.8c0.5,0.2,0.8,0.5,1,1l0,0.8c-0.3,0.6-0.8,1.1-1.4,1.3
					c-1.8,0.8-3.6,1.7-5.4,2.5c-1.8,0.8-3.6,1.6-5.4,2.4l-0.1,0.7c0.3,1.3,0.4,2.6,0.4,4c0,1.4,0,2.8,0.1,4.2
					C147.5,98.2,147,101.4,146.3,104.9z M154.1,92.7c0.2,0.8,0.3,1.7,0.4,2.6c0,0.9,0.1,1.8,0.1,2.7c-0.1,2.6-0.6,5.6-1.5,8.8
					c-0.9,3.2-2,6-3.2,8.3c-0.3,0.3-0.7,0.4-1.3,0.3c-0.5-0.2-0.8-0.5-1-1l0-0.9c1.1-2.6,2.1-5.6,3-9c0.8-3.4,1.2-6.6,1.2-9.6
					l-0.7-3.8l0.4-0.7c1.7-0.7,3.3-1.5,4.8-2.6c1.5-1.1,3.1-2,4.8-2.8c0.5,0.2,0.8,0.5,1,1l0,0.8c-1.1,1.2-2.3,2.3-3.6,3.1
					c-1.3,0.8-2.6,1.7-4,2.4l-0.2,0L154.1,92.7z M169,112.8c-0.2,0.5-0.5,0.8-1,1l-0.5,0.1c-1.1-0.3-2.1-1-3-1.9
					c-2.2-2.3-4-4.8-5.4-7.4c-1.4-2.7-2.4-5.5-2.9-8.5c0.2-0.5,0.5-0.8,1-1l0.8,0l1,0.9c0.2,1.4,0.6,2.6,1.2,3.8l0.3,0
					c0.8-0.5,1.6-1.1,2.4-1.8c0.8-0.6,1.7-1.1,2.6-1.3c0.5,0.2,0.8,0.5,1,1l0,0.8c-0.6,0.8-1.4,1.6-2.3,2.2
					c-0.9,0.6-1.8,1.2-2.7,1.8l0,0.3c0.7,1.4,1.4,2.7,2.4,4c0.9,1.2,2,2.5,3.1,3.6c0.6,0.4,1.2,0.9,1.8,1.2
					C168.9,111.8,169,112.2,169,112.8z"/>
				<path class="st2" d="M112.3,97.9l-0.1,1.5l0.4,0l3.2,0l0.1-1.6l-0.3,0C114.5,98,113.4,98,112.3,97.9z"/>
				<polygon class="st2" points="113.1,106.9 109.3,106.8 107.6,106.9 107.5,108.9 109.3,109.1 113.4,109 113.4,108 113.2,107 				
					"/>
			</g>
			<path class="st2" d="M54.1,124.1c0.5-0.2,0.4-0.2,0.2-0.2C54.3,124,54.3,124.1,54.1,124.1z"/>
			<path class="st2" d="M144.5,128.2C144.4,128.2,144.4,128.2,144.5,128.2l-0.2,0L144.5,128.2z"/>
			<path class="st2" d="M27.2,63.1c-0.1,0.9-0.1,1.1,0,1.1C27.2,64,27.2,63.6,27.2,63.1z"/>
			<path class="st2" d="M43.7,31.7c-0.3,0.2-0.5,0.4-0.8,0.6l0.3,0.2C43.4,32.3,43.3,32.2,43.7,31.7z"/>
			<path class="st2" d="M39.4,36.4c0.6-0.8,0.6-0.8,0.3-0.6c-0.2,0.2-0.6,0.7-0.7,0.8C37.3,38.8,39.2,36.5,39.4,36.4z"/>
			<path class="st2" d="M31,93.4c0.1,0.6-0.8-1.7-0.7-1.1c1,2.1-0.2,0.5,1,2.8C31.9,95.6,31.5,94.9,31,93.4z"/>
			<path class="st2" d="M31,93.4c0-0.1-0.1-0.3-0.2-0.8C30.9,92.9,30.9,93.2,31,93.4z"/>
			<path class="st2" d="M89.7,128.7l1.3-0.2c-0.8,0-1.2,0-1.4,0.1L89.7,128.7z"/>
			<polygon class="st2" points="112.1,128.4 112.4,128.1 111.7,128.4 			"/>
			<path class="st2" d="M128.4,128.8c0.8,0,1.7,0.1,2.4,0C131,128.4,130,128.8,128.4,128.8z"/>
		</g>
	</g>
</g>
<g id="backup" class="st18">
</g>
<g id="circle">
</g>
</svg>
